<svg version="1.1" xmlns="http://www.w3.org/2000/svg" viewBox="0 0 526.3334350585938 755.1084312483795" width="526.3334350585938" height="755.1084312483795">
  <!-- svg-source:excalidraw -->
  
  <defs>
    <style class="style-fonts">
      @font-face {
        font-family: "Virgil";
        src: url("https://file%2B.vscode-resource.vscode-cdn.net/c%3A/Users/logre/.vscode/extensions/pomdtr.excalidraw-editor-3.7.1/public//dist/excalidraw-assets/Virgil.woff2");
      }
      @font-face {
        font-family: "Cascadia";
        src: url("https://file%2B.vscode-resource.vscode-cdn.net/c%3A/Users/logre/.vscode/extensions/pomdtr.excalidraw-editor-3.7.1/public//dist/excalidraw-assets/Cascadia.woff2");
      }
      @font-face {
        font-family: "Assistant";
        src: url("https://file%2B.vscode-resource.vscode-cdn.net/c%3A/Users/logre/.vscode/extensions/pomdtr.excalidraw-editor-3.7.1/public//dist/excalidraw-assets/Assistant-Regular.woff2");
      }
    </style>
    
  </defs>
  <rect x="0" y="0" width="526.3334350585938" height="755.1084312483795" fill="#ffffff"></rect><g stroke-linecap="round" transform="translate(10.66680908203125 10) rotate(0 249.99996948242188 29)"><path d="M14.5 0 C174.89 0.65, 334.03 1.67, 485.5 0 M14.5 0 C191.13 -0.69, 367.79 -0.81, 485.5 0 M485.5 0 C496.71 -0.29, 499.52 6.6, 500 14.5 M485.5 0 C494.44 1.35, 499.12 3.26, 500 14.5 M500 14.5 C500.7 19.58, 501.37 28.17, 500 43.5 M500 14.5 C501.02 21.55, 499.67 29.35, 500 43.5 M500 43.5 C501.14 51.26, 497.1 58.86, 485.5 58 M500 43.5 C501.49 51.8, 493.47 56.33, 485.5 58 M485.5 58 C325.43 57.78, 165.84 57.92, 14.5 58 M485.5 58 C327.9 59.17, 170.86 58.71, 14.5 58 M14.5 58 C6.76 56.5, -0.68 51.62, 0 43.5 M14.5 58 C3.52 58.27, 0.72 51.69, 0 43.5 M0 43.5 C-0.97 36.58, 0.28 28.3, 0 14.5 M0 43.5 C-0.94 34.85, -0.86 25.95, 0 14.5 M0 14.5 C0.35 2.99, 4.08 -0.79, 14.5 0 M0 14.5 C-1.57 4.44, 3.68 1.18, 14.5 0" stroke="#1e1e1e" stroke-width="2" fill="none"></path></g><g transform="translate(193.0767822265625 26.5) rotate(0 67.58999633789062 12.5)"><text x="67.58999633789062" y="0" font-family="Virgil, Segoe UI Emoji" font-size="20px" fill="#1e1e1e" text-anchor="middle" style="white-space: pre;" direction="ltr" dominant-baseline="text-before-edge">控制面板 UI层</text></g><g stroke-linecap="round" transform="translate(10 169) rotate(0 253.16671752929688 31.333328247070312)"><path d="M15.67 0 C173.68 -2.32, 332.32 -2.52, 490.67 0 M15.67 0 C163.55 1.18, 312.01 1.11, 490.67 0 M490.67 0 C502.11 0.17, 506.96 5.14, 506.33 15.67 M490.67 0 C501.6 -1.08, 504.31 5.04, 506.33 15.67 M506.33 15.67 C504.37 21.81, 505.42 28.09, 506.33 47 M506.33 15.67 C505.4 23.74, 506.85 34.35, 506.33 47 M506.33 47 C505.19 59.29, 502.8 61.04, 490.67 62.67 M506.33 47 C507.02 55.89, 500.09 60.74, 490.67 62.67 M490.67 62.67 C393.85 62.84, 297 63.07, 15.67 62.67 M490.67 62.67 C331.33 62.72, 171.69 62.81, 15.67 62.67 M15.67 62.67 C3.58 60.92, 1.23 57.66, 0 47 M15.67 62.67 C5.8 64.5, 1.11 59.5, 0 47 M0 47 C-1.7 38.87, -0.09 29.22, 0 15.67 M0 47 C0.63 34.93, -0.73 23.78, 0 15.67 M0 15.67 C0.28 3.24, 4.91 1.01, 15.67 0 M0 15.67 C0.07 5.78, 4.2 -2.28, 15.67 0" stroke="#1e1e1e" stroke-width="2" fill="none"></path></g><g transform="translate(228.16671752929688 187.8333282470703) rotate(0 35 12.5)"><text x="35" y="0" font-family="Virgil, Segoe UI Emoji" font-size="20px" fill="#1e1e1e" text-anchor="middle" style="white-space: pre;" direction="ltr" dominant-baseline="text-before-edge">编排层 </text></g><g stroke-linecap="round" transform="translate(14.6666259765625 324.66668701171875) rotate(0 119 32.66668701171875)"><path d="M16.33 0 C70.97 0.88, 127.29 1.67, 221.67 0 M16.33 0 C81.41 0.47, 146.93 1.88, 221.67 0 M221.67 0 C232.5 -0.9, 238.4 5.36, 238 16.33 M221.67 0 C233.1 0.89, 237.93 4.62, 238 16.33 M238 16.33 C238.72 26.19, 238.15 32.32, 238 49 M238 16.33 C238.85 27.16, 238.63 38.75, 238 49 M238 49 C236.02 58.54, 233.94 64.98, 221.67 65.33 M238 49 C238.11 61.8, 234.53 64.86, 221.67 65.33 M221.67 65.33 C143.84 64.03, 66.96 64.8, 16.33 65.33 M221.67 65.33 C156.34 66.17, 89.69 65.37, 16.33 65.33 M16.33 65.33 C4.15 65.57, 0.6 57.99, 0 49 M16.33 65.33 C6.99 65.22, -0.12 60.1, 0 49 M0 49 C-1.01 35.19, -1.28 23.41, 0 16.33 M0 49 C-0.81 41.55, -0.76 33.99, 0 16.33 M0 16.33 C-1.11 6.77, 5.15 0.58, 16.33 0 M0 16.33 C-1.74 3.96, 6.88 0.36, 16.33 0" stroke="#1e1e1e" stroke-width="2" fill="none"></path></g><g transform="translate(77.01668548583984 344.8333740234375) rotate(0 56.649940490722656 12.5)"><text x="56.649940490722656" y="0" font-family="Virgil, Segoe UI Emoji" font-size="20px" fill="#1e1e1e" text-anchor="middle" style="white-space: pre;" direction="ltr" dominant-baseline="text-before-edge">Docker-Shim</text></g><g stroke-linecap="round" transform="translate(264.666748046875 323.9999084472656) rotate(0 124.66668701171875 31)"><path d="M15.5 0 C79.37 0.97, 144.62 2.08, 233.83 0 M15.5 0 C100.9 -0.05, 186.77 1.08, 233.83 0 M233.83 0 C243.87 0.58, 247.82 3.88, 249.33 15.5 M233.83 0 C245.6 0.36, 248.73 7.1, 249.33 15.5 M249.33 15.5 C248.96 24.07, 249 29.93, 249.33 46.5 M249.33 15.5 C249.74 25.77, 249.65 36.77, 249.33 46.5 M249.33 46.5 C249.71 55.31, 244.63 60.82, 233.83 62 M249.33 46.5 C251.45 57.02, 245.92 60.09, 233.83 62 M233.83 62 C150.73 62.59, 69.06 62.7, 15.5 62 M233.83 62 C172.28 61.22, 111.55 60.06, 15.5 62 M15.5 62 C6.38 60.5, -0.23 56.42, 0 46.5 M15.5 62 C5.08 64.19, -0.17 55.87, 0 46.5 M0 46.5 C-0.68 36.48, -0.12 24.07, 0 15.5 M0 46.5 C0.62 35.85, -0.29 23.92, 0 15.5 M0 15.5 C-1.36 4.89, 6.47 0.18, 15.5 0 M0 15.5 C0.88 3.87, 5.17 2.06, 15.5 0" stroke="#1e1e1e" stroke-width="2" fill="none"></path></g><g transform="translate(345.82347869873047 342.4999084472656) rotate(0 43.50995635986328 12.5)"><text x="43.50995635986328" y="0" font-family="Virgil, Segoe UI Emoji" font-size="20px" fill="#1e1e1e" text-anchor="middle" style="white-space: pre;" direction="ltr" dominant-baseline="text-before-edge">K8S-Shim</text></g><g stroke-linecap="round" transform="translate(378.65684884235066 480.85091076774233) rotate(0 48.58409540405927 46.919929613181296)"><path d="M97.17 46.92 C97.17 48.96, 97.03 51.02, 96.75 53.04 C96.48 55.07, 96.06 57.09, 95.51 59.06 C94.97 61.04, 94.28 62.99, 93.47 64.88 C92.66 66.76, 91.72 68.61, 90.66 70.38 C89.6 72.15, 88.42 73.86, 87.13 75.48 C85.84 77.1, 84.43 78.65, 82.94 80.1 C81.44 81.54, 79.84 82.9, 78.16 84.14 C76.48 85.39, 74.71 86.53, 72.88 87.55 C71.05 88.57, 69.13 89.49, 67.18 90.27 C65.22 91.05, 63.2 91.71, 61.16 92.24 C59.12 92.77, 57.02 93.17, 54.93 93.44 C52.83 93.7, 50.7 93.84, 48.58 93.84 C46.47 93.84, 44.34 93.7, 42.24 93.44 C40.15 93.17, 38.05 92.77, 36.01 92.24 C33.97 91.71, 31.94 91.05, 29.99 90.27 C28.04 89.49, 26.12 88.57, 24.29 87.55 C22.46 86.53, 20.68 85.39, 19.01 84.14 C17.33 82.9, 15.72 81.54, 14.23 80.1 C12.74 78.65, 11.33 77.1, 10.04 75.48 C8.75 73.86, 7.57 72.15, 6.51 70.38 C5.45 68.61, 4.51 66.76, 3.7 64.88 C2.89 62.99, 2.2 61.04, 1.66 59.06 C1.11 57.09, 0.69 55.07, 0.42 53.04 C0.14 51.02, 0 48.96, 0 46.92 C0 44.88, 0.14 42.82, 0.42 40.8 C0.69 38.77, 1.11 36.75, 1.66 34.78 C2.2 32.8, 2.89 30.85, 3.7 28.96 C4.51 27.08, 5.45 25.23, 6.51 23.46 C7.57 21.69, 8.75 19.98, 10.04 18.36 C11.33 16.74, 12.74 15.19, 14.23 13.74 C15.72 12.3, 17.33 10.94, 19.01 9.7 C20.68 8.45, 22.46 7.31, 24.29 6.29 C26.12 5.27, 28.04 4.35, 29.99 3.57 C31.94 2.79, 33.97 2.13, 36.01 1.6 C38.05 1.07, 40.15 0.67, 42.24 0.4 C44.34 0.13, 46.47 0, 48.58 0 C50.7 0, 52.83 0.13, 54.93 0.4 C57.02 0.67, 59.12 1.07, 61.16 1.6 C63.2 2.13, 65.22 2.79, 67.18 3.57 C69.13 4.35, 71.05 5.27, 72.88 6.29 C74.71 7.31, 76.48 8.45, 78.16 9.7 C79.84 10.94, 81.44 12.3, 82.94 13.74 C84.43 15.19, 85.84 16.74, 87.13 18.36 C88.42 19.98, 89.6 21.69, 90.66 23.46 C91.72 25.23, 92.66 27.08, 93.47 28.96 C94.28 30.85, 94.97 32.8, 95.51 34.78 C96.06 36.75, 96.48 38.77, 96.75 40.8 C97.03 42.82, 97.1 45.9, 97.17 46.92 C97.24 47.94, 97.24 45.9, 97.17 46.92" stroke="none" stroke-width="0" fill="#228be6"></path><path d="M97.17 46.92 C97.17 48.96, 97.03 51.02, 96.75 53.04 C96.48 55.07, 96.06 57.09, 95.51 59.06 C94.97 61.04, 94.28 62.99, 93.47 64.88 C92.66 66.76, 91.72 68.61, 90.66 70.38 C89.6 72.15, 88.42 73.86, 87.13 75.48 C85.84 77.1, 84.43 78.65, 82.94 80.1 C81.44 81.54, 79.84 82.9, 78.16 84.14 C76.48 85.39, 74.71 86.53, 72.88 87.55 C71.05 88.57, 69.13 89.49, 67.18 90.27 C65.22 91.05, 63.2 91.71, 61.16 92.24 C59.12 92.77, 57.02 93.17, 54.93 93.44 C52.83 93.7, 50.7 93.84, 48.58 93.84 C46.47 93.84, 44.34 93.7, 42.24 93.44 C40.15 93.17, 38.05 92.77, 36.01 92.24 C33.97 91.71, 31.94 91.05, 29.99 90.27 C28.04 89.49, 26.12 88.57, 24.29 87.55 C22.46 86.53, 20.68 85.39, 19.01 84.14 C17.33 82.9, 15.72 81.54, 14.23 80.1 C12.74 78.65, 11.33 77.1, 10.04 75.48 C8.75 73.86, 7.57 72.15, 6.51 70.38 C5.45 68.61, 4.51 66.76, 3.7 64.88 C2.89 62.99, 2.2 61.04, 1.66 59.06 C1.11 57.09, 0.69 55.07, 0.42 53.04 C0.14 51.02, 0 48.96, 0 46.92 C0 44.88, 0.14 42.82, 0.42 40.8 C0.69 38.77, 1.11 36.75, 1.66 34.78 C2.2 32.8, 2.89 30.85, 3.7 28.96 C4.51 27.08, 5.45 25.23, 6.51 23.46 C7.57 21.69, 8.75 19.98, 10.04 18.36 C11.33 16.74, 12.74 15.19, 14.23 13.74 C15.72 12.3, 17.33 10.94, 19.01 9.7 C20.68 8.45, 22.46 7.31, 24.29 6.29 C26.12 5.27, 28.04 4.35, 29.99 3.57 C31.94 2.79, 33.97 2.13, 36.01 1.6 C38.05 1.07, 40.15 0.67, 42.24 0.4 C44.34 0.13, 46.47 0, 48.58 0 C50.7 0, 52.83 0.13, 54.93 0.4 C57.02 0.67, 59.12 1.07, 61.16 1.6 C63.2 2.13, 65.22 2.79, 67.18 3.57 C69.13 4.35, 71.05 5.27, 72.88 6.29 C74.71 7.31, 76.48 8.45, 78.16 9.7 C79.84 10.94, 81.44 12.3, 82.94 13.74 C84.43 15.19, 85.84 16.74, 87.13 18.36 C88.42 19.98, 89.6 21.69, 90.66 23.46 C91.72 25.23, 92.66 27.08, 93.47 28.96 C94.28 30.85, 94.97 32.8, 95.51 34.78 C96.06 36.75, 96.48 38.77, 96.75 40.8 C97.03 42.82, 97.1 45.9, 97.17 46.92 C97.24 47.94, 97.24 45.9, 97.17 46.92" stroke="#228be6" stroke-width="1" fill="none"></path></g><g stroke-linecap="round"><g transform="translate(426.5035181918247 487.45882972464244) rotate(0 -14.538402474196232 9.53795577676351)"><path d="M0 0 C-8.49 5.57, -16.97 11.14, -29.08 19.08 M0 0 C-9.72 6.37, -19.43 12.75, -29.08 19.08" stroke="#ffffff" stroke-width="4" fill="none"></path></g></g><mask></mask><g stroke-linecap="round"><g transform="translate(427.3133035286651 487.64092183679816) rotate(0 15.28680862511402 9.962202877130721)"><path d="M0 0 C11.78 7.68, 23.56 15.35, 30.57 19.92 M0 0 C6.45 4.2, 12.89 8.4, 30.57 19.92" stroke="#ffffff" stroke-width="4" fill="none"></path></g></g><mask></mask><g stroke-linecap="round"><g transform="translate(396.3962461805753 507.2218049354826) rotate(0 -4.093944776689625 14.642325400084701)"><path d="M0 0 C-1.91 6.84, -3.83 13.68, -8.19 29.28 M0 0 C-2.81 10.03, -5.61 20.07, -8.19 29.28" stroke="#ffffff" stroke-width="4" fill="none"></path></g></g><mask></mask><g stroke-linecap="round"><g transform="translate(457.8869207788937 508.252363729134) rotate(0 4.122308559242015 12.710388708286416)"><path d="M0 0 C3.17 9.78, 6.35 19.56, 8.24 25.42 M0 0 C2.56 7.89, 5.12 15.78, 8.24 25.42" stroke="#ffffff" stroke-width="4" fill="none"></path></g></g><mask></mask><g stroke-linecap="round"><g transform="translate(387.97834103048854 537.8350351355175) rotate(0 11.422937515240221 12.518830078674)"><path d="M0 0 C7.68 8.41, 15.36 16.83, 22.85 25.04 M0 0 C4.84 5.31, 9.69 10.62, 22.85 25.04" stroke="#ffffff" stroke-width="4" fill="none"></path></g></g><mask></mask><g stroke-linecap="round"><g transform="translate(412.45663405569144 563.8464714829353) rotate(0 15.844726942378827 0.028372955631823515)"><path d="M0 0 C11.56 0.02, 23.12 0.04, 31.69 0.06 M0 0 C10.47 0.02, 20.95 0.04, 31.69 0.06" stroke="#ffffff" stroke-width="4" fill="none"></path></g></g><mask></mask><g stroke-linecap="round"><g transform="translate(466.5034335085862 535.3339970655255) rotate(0 -10.449038965319403 13.569191139643124)"><path d="M0 0 C-7.52 9.76, -15.03 19.52, -20.9 27.14 M0 0 C-4.24 5.51, -8.49 11.02, -20.9 27.14" stroke="#ffffff" stroke-width="4" fill="none"></path></g></g><mask></mask><g stroke-linecap="round" transform="translate(409.9221763624927 514.1434525236991) rotate(0 17.826823536868915 16.115181292386694)"><path d="M35.65 16.12 C35.65 17.05, 35.56 17.99, 35.38 18.91 C35.2 19.83, 34.93 20.75, 34.58 21.63 C34.23 22.5, 33.78 23.36, 33.27 24.17 C32.75 24.98, 32.15 25.76, 31.48 26.47 C30.82 27.19, 30.08 27.86, 29.29 28.46 C28.5 29.06, 27.63 29.6, 26.74 30.07 C25.85 30.54, 24.89 30.94, 23.92 31.26 C22.95 31.58, 21.94 31.82, 20.92 31.99 C19.91 32.15, 18.86 32.23, 17.83 32.23 C16.79 32.23, 15.75 32.15, 14.73 31.99 C13.72 31.82, 12.7 31.58, 11.73 31.26 C10.76 30.94, 9.81 30.54, 8.91 30.07 C8.02 29.6, 7.16 29.06, 6.37 28.46 C5.58 27.86, 4.83 27.19, 4.17 26.47 C3.51 25.76, 2.9 24.98, 2.39 24.17 C1.87 23.36, 1.43 22.5, 1.08 21.63 C0.72 20.75, 0.45 19.83, 0.27 18.91 C0.09 17.99, 0 17.05, 0 16.12 C0 15.18, 0.09 14.24, 0.27 13.32 C0.45 12.4, 0.72 11.48, 1.08 10.6 C1.43 9.73, 1.87 8.87, 2.39 8.06 C2.9 7.25, 3.51 6.47, 4.17 5.76 C4.83 5.04, 5.58 4.37, 6.37 3.77 C7.16 3.17, 8.02 2.63, 8.91 2.16 C9.81 1.69, 10.76 1.29, 11.73 0.97 C12.7 0.65, 13.72 0.41, 14.73 0.24 C15.75 0.08, 16.79 0, 17.83 0 C18.86 0, 19.91 0.08, 20.92 0.24 C21.94 0.41, 22.95 0.65, 23.92 0.97 C24.89 1.29, 25.85 1.69, 26.74 2.16 C27.63 2.63, 28.5 3.17, 29.29 3.77 C30.08 4.37, 30.82 5.04, 31.48 5.76 C32.15 6.47, 32.75 7.25, 33.27 8.06 C33.78 8.87, 34.23 9.73, 34.58 10.6 C34.93 11.48, 35.2 12.4, 35.38 13.32 C35.56 14.24, 35.61 15.65, 35.65 16.12 C35.7 16.58, 35.7 15.65, 35.65 16.12" stroke="#ffffff" stroke-width="4" fill="none"></path></g><g stroke-linecap="round" transform="translate(421.45877853394336 524.8261224152122) rotate(0 6.349014847666183 5.714108615860994)"><path d="M12.7 5.71 C12.7 6.04, 12.67 6.38, 12.6 6.71 C12.54 7.03, 12.44 7.36, 12.32 7.67 C12.19 7.98, 12.03 8.28, 11.85 8.57 C11.66 8.86, 11.45 9.13, 11.21 9.39 C10.98 9.64, 10.71 9.88, 10.43 10.09 C10.15 10.3, 9.84 10.5, 9.52 10.66 C9.21 10.83, 8.87 10.97, 8.52 11.08 C8.18 11.2, 7.81 11.28, 7.45 11.34 C7.09 11.4, 6.72 11.43, 6.35 11.43 C5.98 11.43, 5.61 11.4, 5.25 11.34 C4.88 11.28, 4.52 11.2, 4.18 11.08 C3.83 10.97, 3.49 10.83, 3.17 10.66 C2.86 10.5, 2.55 10.3, 2.27 10.09 C1.99 9.88, 1.72 9.64, 1.49 9.39 C1.25 9.13, 1.03 8.86, 0.85 8.57 C0.67 8.28, 0.51 7.98, 0.38 7.67 C0.26 7.36, 0.16 7.03, 0.1 6.71 C0.03 6.38, 0 6.04, 0 5.71 C0 5.38, 0.03 5.05, 0.1 4.72 C0.16 4.4, 0.26 4.07, 0.38 3.76 C0.51 3.45, 0.67 3.14, 0.85 2.86 C1.03 2.57, 1.25 2.29, 1.49 2.04 C1.72 1.79, 1.99 1.55, 2.27 1.34 C2.55 1.12, 2.86 0.93, 3.17 0.77 C3.49 0.6, 3.83 0.46, 4.18 0.34 C4.52 0.23, 4.88 0.14, 5.25 0.09 C5.61 0.03, 5.98 0, 6.35 0 C6.72 0, 7.09 0.03, 7.45 0.09 C7.81 0.14, 8.18 0.23, 8.52 0.34 C8.87 0.46, 9.21 0.6, 9.52 0.77 C9.84 0.93, 10.15 1.12, 10.43 1.34 C10.71 1.55, 10.98 1.79, 11.21 2.04 C11.45 2.29, 11.66 2.57, 11.85 2.86 C12.03 3.14, 12.19 3.45, 12.32 3.76 C12.44 4.07, 12.54 4.4, 12.6 4.72 C12.67 5.05, 12.68 5.55, 12.7 5.71 C12.71 5.88, 12.71 5.55, 12.7 5.71" stroke="#ffffff" stroke-width="4" fill="none"></path></g><g stroke-linecap="round"><g transform="translate(422.2206646558129 527.1117604363699) rotate(0 -7.9073766565028905 -6.994872798236372)"><path d="M0 0 C-4.12 -3.64, -8.24 -7.29, -15.81 -13.99 M0 0 C-5.89 -5.21, -11.78 -10.42, -15.81 -13.99" stroke="#ffffff" stroke-width="4" fill="none"></path></g></g><mask></mask><g stroke-linecap="round"><g transform="translate(454.9755214263894 534.2608938953681) rotate(0 -9.501558229686964 -1.3811556592586953)"><path d="M0 0 C-6.35 -0.92, -12.69 -1.84, -19 -2.76 M0 0 C-6.1 -0.89, -12.21 -1.77, -19 -2.76" stroke="#ffffff" stroke-width="4" fill="none"></path></g></g><mask></mask><g stroke-linecap="round"><g transform="translate(439.52840274689913 553.5504233614488) rotate(0 -4.416998270701697 -8.355119864401615)"><path d="M0 0 C-2.52 -4.76, -5.03 -9.52, -8.83 -16.71 M0 0 C-2.9 -5.48, -5.79 -10.96, -8.83 -16.71" stroke="#ffffff" stroke-width="4" fill="none"></path></g></g><mask></mask><g stroke-linecap="round"><g transform="translate(423.02734972166877 535.0605004890065) rotate(0 -4.435321662455408 9.337559359765407)"><path d="M0 0 C-2.9 6.11, -5.8 12.22, -8.87 18.68 M0 0 C-2.64 5.56, -5.28 11.12, -8.87 18.68" stroke="#ffffff" stroke-width="4" fill="none"></path></g></g><mask></mask><g stroke-linecap="round"><g transform="translate(427.2879019567928 504.3027623076416) rotate(0 0.399622442576117 10.307092516849934)"><path d="M0 0 C0.24 6.31, 0.49 12.61, 0.8 20.61 M0 0 C0.22 5.6, 0.43 11.2, 0.8 20.61" stroke="#ffffff" stroke-width="4" fill="none"></path></g></g><mask></mask><g stroke-linecap="round"><g transform="translate(448.97125694687384 513.6585700188265) rotate(0 -8.073297500229614 6.455867360061575)"><path d="M0 0 C-5.28 4.22, -10.56 8.44, -16.15 12.91 M0 0 C-4.76 3.81, -9.52 7.62, -16.15 12.91" stroke="#ffffff" stroke-width="4" fill="none"></path></g></g><mask></mask><g stroke-linecap="round"><g transform="translate(420.7063006823537 532.5168841730158) rotate(0 -10.298683703946438 1.425704213379447)"><path d="M0 0 C-8.02 1.11, -16.03 2.22, -20.6 2.85 M0 0 C-5.87 0.81, -11.74 1.63, -20.6 2.85" stroke="#ffffff" stroke-width="4" fill="none"></path></g></g><mask></mask><g transform="translate(357.13907657062873 444.7813018504892) rotate(0 70.10186767578125 16.426666348240815)"><text x="70.10186767578125" y="0" font-family="Virgil, Segoe UI Emoji" font-size="26.282666157185286px" fill="#000000" text-anchor="middle" style="white-space: pre;" direction="ltr" dominant-baseline="text-before-edge">Kubernetes</text></g><g stroke-linecap="round" transform="translate(20.674562818765367 485.1678078002637) rotate(0 53.1857112110296 42.62004742550138)"><path d="M106.37 42.62 C106.37 44.47, 106.22 46.34, 105.92 48.18 C105.61 50.02, 105.16 51.86, 104.56 53.65 C103.96 55.44, 103.21 57.22, 102.32 58.93 C101.44 60.64, 100.4 62.32, 99.25 63.93 C98.09 65.54, 96.79 67.09, 95.38 68.57 C93.97 70.04, 92.43 71.45, 90.79 72.76 C89.16 74.07, 87.4 75.3, 85.56 76.43 C83.73 77.56, 81.78 78.6, 79.78 79.53 C77.77 80.46, 75.68 81.29, 73.54 82 C71.4 82.71, 69.19 83.31, 66.95 83.79 C64.72 84.27, 62.42 84.63, 60.13 84.88 C57.83 85.12, 55.5 85.24, 53.19 85.24 C50.87 85.24, 48.54 85.12, 46.24 84.88 C43.95 84.63, 41.66 84.27, 39.42 83.79 C37.19 83.31, 34.97 82.71, 32.83 82 C30.69 81.29, 28.6 80.46, 26.59 79.53 C24.59 78.6, 22.64 77.56, 20.81 76.43 C18.97 75.3, 17.21 74.07, 15.58 72.76 C13.94 71.45, 12.4 70.04, 10.99 68.57 C9.58 67.09, 8.28 65.54, 7.13 63.93 C5.97 62.32, 4.93 60.64, 4.05 58.93 C3.16 57.22, 2.41 55.44, 1.81 53.65 C1.21 51.86, 0.76 50.02, 0.46 48.18 C0.15 46.34, 0 44.47, 0 42.62 C0 40.77, 0.15 38.9, 0.46 37.06 C0.76 35.22, 1.21 33.38, 1.81 31.59 C2.41 29.8, 3.16 28.02, 4.05 26.31 C4.93 24.6, 5.97 22.92, 7.13 21.31 C8.28 19.7, 9.58 18.15, 10.99 16.67 C12.4 15.2, 13.94 13.79, 15.58 12.48 C17.21 11.17, 18.97 9.94, 20.81 8.81 C22.64 7.68, 24.59 6.64, 26.59 5.71 C28.6 4.78, 30.69 3.95, 32.83 3.24 C34.97 2.53, 37.19 1.93, 39.42 1.45 C41.66 0.97, 43.95 0.61, 46.24 0.36 C48.54 0.12, 50.87 0, 53.19 0 C55.5 0, 57.83 0.12, 60.13 0.36 C62.42 0.61, 64.72 0.97, 66.95 1.45 C69.19 1.93, 71.4 2.53, 73.54 3.24 C75.68 3.95, 77.77 4.78, 79.78 5.71 C81.78 6.64, 83.73 7.68, 85.56 8.81 C87.4 9.94, 89.16 11.17, 90.79 12.48 C92.43 13.79, 93.97 15.2, 95.38 16.67 C96.79 18.15, 98.09 19.7, 99.25 21.31 C100.4 22.92, 101.44 24.6, 102.32 26.31 C103.21 28.02, 103.96 29.8, 104.56 31.59 C105.16 33.38, 105.61 35.22, 105.92 37.06 C106.22 38.9, 106.3 41.69, 106.37 42.62 C106.45 43.55, 106.45 41.69, 106.37 42.62" stroke="none" stroke-width="0" fill="#228be6"></path><path d="M106.37 42.62 C106.37 44.47, 106.22 46.34, 105.92 48.18 C105.61 50.02, 105.16 51.86, 104.56 53.65 C103.96 55.44, 103.21 57.22, 102.32 58.93 C101.44 60.64, 100.4 62.32, 99.25 63.93 C98.09 65.54, 96.79 67.09, 95.38 68.57 C93.97 70.04, 92.43 71.45, 90.79 72.76 C89.16 74.07, 87.4 75.3, 85.56 76.43 C83.73 77.56, 81.78 78.6, 79.78 79.53 C77.77 80.46, 75.68 81.29, 73.54 82 C71.4 82.71, 69.19 83.31, 66.95 83.79 C64.72 84.27, 62.42 84.63, 60.13 84.88 C57.83 85.12, 55.5 85.24, 53.19 85.24 C50.87 85.24, 48.54 85.12, 46.24 84.88 C43.95 84.63, 41.66 84.27, 39.42 83.79 C37.19 83.31, 34.97 82.71, 32.83 82 C30.69 81.29, 28.6 80.46, 26.59 79.53 C24.59 78.6, 22.64 77.56, 20.81 76.43 C18.97 75.3, 17.21 74.07, 15.58 72.76 C13.94 71.45, 12.4 70.04, 10.99 68.57 C9.58 67.09, 8.28 65.54, 7.13 63.93 C5.97 62.32, 4.93 60.64, 4.05 58.93 C3.16 57.22, 2.41 55.44, 1.81 53.65 C1.21 51.86, 0.76 50.02, 0.46 48.18 C0.15 46.34, 0 44.47, 0 42.62 C0 40.77, 0.15 38.9, 0.46 37.06 C0.76 35.22, 1.21 33.38, 1.81 31.59 C2.41 29.8, 3.16 28.02, 4.05 26.31 C4.93 24.6, 5.97 22.92, 7.13 21.31 C8.28 19.7, 9.58 18.15, 10.99 16.67 C12.4 15.2, 13.94 13.79, 15.58 12.48 C17.21 11.17, 18.97 9.94, 20.81 8.81 C22.64 7.68, 24.59 6.64, 26.59 5.71 C28.6 4.78, 30.69 3.95, 32.83 3.24 C34.97 2.53, 37.19 1.93, 39.42 1.45 C41.66 0.97, 43.95 0.61, 46.24 0.36 C48.54 0.12, 50.87 0, 53.19 0 C55.5 0, 57.83 0.12, 60.13 0.36 C62.42 0.61, 64.72 0.97, 66.95 1.45 C69.19 1.93, 71.4 2.53, 73.54 3.24 C75.68 3.95, 77.77 4.78, 79.78 5.71 C81.78 6.64, 83.73 7.68, 85.56 8.81 C87.4 9.94, 89.16 11.17, 90.79 12.48 C92.43 13.79, 93.97 15.2, 95.38 16.67 C96.79 18.15, 98.09 19.7, 99.25 21.31 C100.4 22.92, 101.44 24.6, 102.32 26.31 C103.21 28.02, 103.96 29.8, 104.56 31.59 C105.16 33.38, 105.61 35.22, 105.92 37.06 C106.22 38.9, 106.3 41.69, 106.37 42.62 C106.45 43.55, 106.45 41.69, 106.37 42.62" stroke="#228be6" stroke-width="1" fill="none"></path></g><g stroke-linecap="round" transform="translate(20.446628797774565 481.43421511735005) rotate(0 52.914728027500075 23.622306976972197)"><path d="M0 0 L105.83 0 L105.83 47.24 L0 47.24" stroke="none" stroke-width="0" fill="#ffffff"></path><path d="M0 0 C31.34 0, 62.67 0, 105.83 0 M0 0 C35.86 0, 71.72 0, 105.83 0 M105.83 0 C105.83 14.62, 105.83 29.24, 105.83 47.24 M105.83 0 C105.83 12.82, 105.83 25.64, 105.83 47.24 M105.83 47.24 C77.48 47.24, 49.12 47.24, 0 47.24 M105.83 47.24 C82.92 47.24, 60.01 47.24, 0 47.24 M0 47.24 C0 35.5, 0 23.75, 0 0 M0 47.24 C0 36.83, 0 26.42, 0 0" stroke="#ffffff" stroke-width="2" fill="none"></path></g><g stroke-linecap="round" transform="translate(47.83726571598902 499.19951878699226) rotate(0 9.134093921621911 7.489962284116132)"><path d="M0 0 L18.27 0 L18.27 14.98 L0 14.98" stroke="none" stroke-width="0" fill="#15aabf"></path><path d="M0 0 C4.06 0, 8.13 0, 18.27 0 M0 0 C6.1 0, 12.2 0, 18.27 0 M18.27 0 C18.27 5.29, 18.27 10.58, 18.27 14.98 M18.27 0 C18.27 5.13, 18.27 10.25, 18.27 14.98 M18.27 14.98 C14.45 14.98, 10.63 14.98, 0 14.98 M18.27 14.98 C12.84 14.98, 7.41 14.98, 0 14.98 M0 14.98 C0 9.27, 0 3.57, 0 0 M0 14.98 C0 9.39, 0 3.81, 0 0" stroke="#1864ab" stroke-width="2" fill="none"></path></g><g stroke-linecap="round" transform="translate(66.01405681414712 499.19951878699226) rotate(0 9.134093921621911 7.489962284116132)"><path d="M0 0 L18.27 0 L18.27 14.98 L0 14.98" stroke="none" stroke-width="0" fill="#15aabf"></path><path d="M0 0 C4.24 0, 8.49 0, 18.27 0 M0 0 C5.81 0, 11.61 0, 18.27 0 M18.27 0 C18.27 3, 18.27 5.99, 18.27 14.98 M18.27 0 C18.27 4.46, 18.27 8.93, 18.27 14.98 M18.27 14.98 C14.39 14.98, 10.52 14.98, 0 14.98 M18.27 14.98 C11.78 14.98, 5.3 14.98, 0 14.98 M0 14.98 C0 9.69, 0 4.39, 0 0 M0 14.98 C0 10.36, 0 5.73, 0 0" stroke="#1864ab" stroke-width="2" fill="none"></path></g><g stroke-linecap="round" transform="translate(84.96736901978142 499.19951878699237) rotate(0 9.13409392162194 7.489962284116132)"><path d="M0 0 L18.27 0 L18.27 14.98 L0 14.98" stroke="none" stroke-width="0" fill="#15aabf"></path><path d="M0 0 C4.91 0, 9.82 0, 18.27 0 M0 0 C5.16 0, 10.32 0, 18.27 0 M18.27 0 C18.27 5.11, 18.27 10.22, 18.27 14.98 M18.27 0 C18.27 4.1, 18.27 8.2, 18.27 14.98 M18.27 14.98 C13.08 14.98, 7.89 14.98, 0 14.98 M18.27 14.98 C10.99 14.98, 3.71 14.98, 0 14.98 M0 14.98 C0 11.12, 0 7.26, 0 0 M0 14.98 C0 11.35, 0 7.71, 0 0" stroke="#1864ab" stroke-width="2" fill="none"></path></g><g stroke-linecap="round" transform="translate(85.10446413740954 484.60782794275303) rotate(0 9.134093921621911 7.489962284116132)"><path d="M0 0 L18.27 0 L18.27 14.98 L0 14.98" stroke="none" stroke-width="0" fill="#15aabf"></path><path d="M0 0 C3.74 0, 7.47 0, 18.27 0 M0 0 C6.85 0, 13.69 0, 18.27 0 M18.27 0 C18.27 4.16, 18.27 8.32, 18.27 14.98 M18.27 0 C18.27 5.66, 18.27 11.32, 18.27 14.98 M18.27 14.98 C12.36 14.98, 6.45 14.98, 0 14.98 M18.27 14.98 C14.06 14.98, 9.86 14.98, 0 14.98 M0 14.98 C0 9.6, 0 4.22, 0 0 M0 14.98 C0 11.97, 0 8.96, 0 0" stroke="#1864ab" stroke-width="2" fill="none"></path></g><g stroke-linecap="round" transform="translate(29.95726037631607 513.6085722413941) rotate(0 9.134093921621911 7.489962284116132)"><path d="M0 0 L18.27 0 L18.27 14.98 L0 14.98" stroke="none" stroke-width="0" fill="#15aabf"></path><path d="M0 0 C5.65 0, 11.31 0, 18.27 0 M0 0 C5.99 0, 11.98 0, 18.27 0 M18.27 0 C18.27 5.83, 18.27 11.67, 18.27 14.98 M18.27 0 C18.27 4.86, 18.27 9.72, 18.27 14.98 M18.27 14.98 C11.16 14.98, 4.05 14.98, 0 14.98 M18.27 14.98 C13.23 14.98, 8.19 14.98, 0 14.98 M0 14.98 C0 9.54, 0 4.09, 0 0 M0 14.98 C0 11.19, 0 7.4, 0 0" stroke="#1864ab" stroke-width="2" fill="none"></path></g><g stroke-linecap="round" transform="translate(48.134051474474745 513.6085722413941) rotate(0 9.134093921621911 7.489962284116132)"><path d="M0 0 L18.27 0 L18.27 14.98 L0 14.98" stroke="none" stroke-width="0" fill="#15aabf"></path><path d="M0 0 C5.85 0, 11.71 0, 18.27 0 M0 0 C5.36 0, 10.72 0, 18.27 0 M18.27 0 C18.27 3.07, 18.27 6.13, 18.27 14.98 M18.27 0 C18.27 3.96, 18.27 7.93, 18.27 14.98 M18.27 14.98 C11.53 14.98, 4.79 14.98, 0 14.98 M18.27 14.98 C14.31 14.98, 10.36 14.98, 0 14.98 M0 14.98 C0 10.67, 0 6.37, 0 0 M0 14.98 C0 9.86, 0 4.73, 0 0" stroke="#1864ab" stroke-width="2" fill="none"></path></g><g stroke-linecap="round" transform="translate(67.08736368010909 513.6085722413941) rotate(0 9.134093921621911 7.489962284116132)"><path d="M0 0 L18.27 0 L18.27 14.98 L0 14.98" stroke="none" stroke-width="0" fill="#15aabf"></path><path d="M0 0 C5.65 0, 11.31 0, 18.27 0 M0 0 C4.96 0, 9.92 0, 18.27 0 M18.27 0 C18.27 4.01, 18.27 8.03, 18.27 14.98 M18.27 0 C18.27 3.24, 18.27 6.48, 18.27 14.98 M18.27 14.98 C13.73 14.98, 9.18 14.98, 0 14.98 M18.27 14.98 C14.24 14.98, 10.21 14.98, 0 14.98 M0 14.98 C0 10.08, 0 5.18, 0 0 M0 14.98 C0 10.24, 0 5.5, 0 0" stroke="#1864ab" stroke-width="2" fill="none"></path></g><g stroke-linecap="round" transform="translate(85.10446413740954 513.6085722413941) rotate(0 9.134093921621911 7.489962284116132)"><path d="M0 0 L18.27 0 L18.27 14.98 L0 14.98" stroke="none" stroke-width="0" fill="#15aabf"></path><path d="M0 0 C6.45 0, 12.9 0, 18.27 0 M0 0 C6.25 0, 12.5 0, 18.27 0 M18.27 0 C18.27 3.13, 18.27 6.26, 18.27 14.98 M18.27 0 C18.27 4.45, 18.27 8.91, 18.27 14.98 M18.27 14.98 C11.31 14.98, 4.35 14.98, 0 14.98 M18.27 14.98 C11.45 14.98, 4.64 14.98, 0 14.98 M0 14.98 C0 10.1, 0 5.22, 0 0 M0 14.98 C0 9.57, 0 4.17, 0 0" stroke="#1864ab" stroke-width="2" fill="none"></path></g><g stroke-linecap="round" transform="translate(103.28125523556827 513.6085722413941) rotate(0 9.13409392162194 7.489962284116132)"><path d="M0 0 L18.27 0 L18.27 14.98 L0 14.98" stroke="none" stroke-width="0" fill="#15aabf"></path><path d="M0 0 C3.65 0, 7.31 0, 18.27 0 M0 0 C5.44 0, 10.89 0, 18.27 0 M18.27 0 C18.27 3.18, 18.27 6.36, 18.27 14.98 M18.27 0 C18.27 5.32, 18.27 10.63, 18.27 14.98 M18.27 14.98 C11.81 14.98, 5.36 14.98, 0 14.98 M18.27 14.98 C12.63 14.98, 6.99 14.98, 0 14.98 M0 14.98 C0 11.33, 0 7.68, 0 0 M0 14.98 C0 11.56, 0 8.13, 0 0" stroke="#1864ab" stroke-width="2" fill="none"></path></g><g stroke-linecap="round" transform="translate(57.28759079280371 536.6933825854958) rotate(0 3.4810954801676814 3.7131866901368653)"><path d="M6.96 3.71 C6.96 3.93, 6.94 4.15, 6.91 4.36 C6.87 4.57, 6.82 4.78, 6.75 4.98 C6.68 5.19, 6.6 5.38, 6.5 5.57 C6.4 5.76, 6.28 5.94, 6.15 6.1 C6.02 6.26, 5.87 6.42, 5.72 6.56 C5.56 6.7, 5.4 6.82, 5.22 6.93 C5.05 7.04, 4.86 7.13, 4.67 7.2 C4.48 7.28, 4.28 7.33, 4.09 7.37 C3.89 7.41, 3.68 7.43, 3.48 7.43 C3.28 7.43, 3.08 7.41, 2.88 7.37 C2.68 7.33, 2.48 7.28, 2.29 7.2 C2.1 7.13, 1.92 7.04, 1.74 6.93 C1.57 6.82, 1.4 6.7, 1.24 6.56 C1.09 6.42, 0.94 6.26, 0.81 6.1 C0.68 5.94, 0.57 5.76, 0.47 5.57 C0.37 5.38, 0.28 5.19, 0.21 4.98 C0.14 4.78, 0.09 4.57, 0.05 4.36 C0.02 4.15, 0 3.93, 0 3.71 C0 3.5, 0.02 3.28, 0.05 3.07 C0.09 2.86, 0.14 2.65, 0.21 2.44 C0.28 2.24, 0.37 2.04, 0.47 1.86 C0.57 1.67, 0.68 1.49, 0.81 1.33 C0.94 1.16, 1.09 1.01, 1.24 0.87 C1.4 0.73, 1.57 0.6, 1.74 0.5 C1.92 0.39, 2.1 0.3, 2.29 0.22 C2.48 0.15, 2.68 0.09, 2.88 0.06 C3.08 0.02, 3.28 0, 3.48 0 C3.68 0, 3.89 0.02, 4.09 0.06 C4.28 0.09, 4.48 0.15, 4.67 0.22 C4.86 0.3, 5.05 0.39, 5.22 0.5 C5.4 0.6, 5.56 0.73, 5.72 0.87 C5.87 1.01, 6.02 1.16, 6.15 1.33 C6.28 1.49, 6.4 1.67, 6.5 1.86 C6.6 2.04, 6.68 2.24, 6.75 2.44 C6.82 2.65, 6.87 2.86, 6.91 3.07 C6.94 3.28, 6.95 3.61, 6.96 3.71 C6.97 3.82, 6.97 3.61, 6.96 3.71" stroke="#ffffff" stroke-width="2" fill="none"></path></g><g stroke-linecap="round"><g transform="translate(31.871591025724058 553.56158958737) rotate(0 20.738429553531518 6.544383720921076)"><path d="M0 0 C7.72 -0.98, 15.45 -1.97, 27.82 -3.55 M0 0 C10.51 -1.34, 21.02 -2.68, 27.82 -3.55 M27.82 -3.55 C32.24 2.98, 36.65 9.51, 41.48 16.63 M27.82 -3.55 C30.96 1.1, 34.1 5.74, 41.48 16.63" stroke="#ffffff" stroke-width="2" fill="none"></path></g></g><mask></mask><g stroke-linecap="round" transform="translate(120.18627566916905 520.1822336159602) rotate(321.4058571138861 12.201875009019489 8.279115009627446)"><path d="M13 0 L24.4 9 L13 16.56 L0 9" stroke="none" stroke-width="0" fill="#228be6" fill-rule="evenodd"></path><path d="M13 0 C17.44 3.51, 21.88 7.01, 24.4 9 M13 0 C16.7 2.92, 20.4 5.84, 24.4 9 M24.4 9 C19.97 11.94, 15.53 14.88, 13 16.56 M24.4 9 C21.26 11.08, 18.11 13.17, 13 16.56 M13 16.56 C8.28 13.81, 3.55 11.07, 0 9 M13 16.56 C9.71 14.65, 6.42 12.73, 0 9 M0 9 C4.02 6.22, 8.04 3.43, 13 0 M0 9 C3.52 6.56, 7.04 4.12, 13 0" stroke="#228be6" stroke-width="2" fill="none"></path></g><g transform="translate(37.93776912881526 442.9315203538739) rotate(0 43.36198425292969 16.426666348240815)"><text x="43.36198425292969" y="0" font-family="Virgil, Segoe UI Emoji" font-size="26.282666157185282px" fill="#000000" text-anchor="middle" style="white-space: pre;" direction="ltr" dominant-baseline="text-before-edge">Docker</text></g><g stroke-linecap="round" transform="translate(136.67686690021912 667.5981671911483) rotate(0 109.55184050750171 38.755132028615606)"><path d="M19.38 0 C80.15 0, 140.91 0, 199.73 0 C212.64 0, 219.1 6.46, 219.1 19.38 C219.1 28.32, 219.1 37.26, 219.1 58.13 C219.1 71.05, 212.64 77.51, 199.73 77.51 C146.84 77.51, 93.95 77.51, 19.38 77.51 C6.46 77.51, 0 71.05, 0 58.13 C0 47.79, 0 37.44, 0 19.38 C0 6.46, 6.46 0, 19.38 0" stroke="none" stroke-width="0" fill="#000000"></path><path d="M19.38 0 C83.1 0, 146.83 0, 199.73 0 M19.38 0 C75.06 0, 130.73 0, 199.73 0 M199.73 0 C212.64 0, 219.1 6.46, 219.1 19.38 M199.73 0 C212.64 0, 219.1 6.46, 219.1 19.38 M219.1 19.38 C219.1 28.88, 219.1 38.39, 219.1 58.13 M219.1 19.38 C219.1 27.43, 219.1 35.49, 219.1 58.13 M219.1 58.13 C219.1 71.05, 212.64 77.51, 199.73 77.51 M219.1 58.13 C219.1 71.05, 212.64 77.51, 199.73 77.51 M199.73 77.51 C142.65 77.51, 85.57 77.51, 19.38 77.51 M199.73 77.51 C153.12 77.51, 106.5 77.51, 19.38 77.51 M19.38 77.51 C6.46 77.51, 0 71.05, 0 58.13 M19.38 77.51 C6.46 77.51, 0 71.05, 0 58.13 M0 58.13 C0 42.87, 0 27.6, 0 19.38 M0 58.13 C0 48.25, 0 38.36, 0 19.38 M0 19.38 C0 6.46, 6.46 0, 19.38 0 M0 19.38 C0 6.46, 6.46 0, 19.38 0" stroke="#000000" stroke-width="4" fill="none"></path></g><g stroke-linecap="round" transform="translate(140.03906229285604 671.5707747120709) rotate(0 106.18964511486504 34.782524507692756)"><path d="M17.39 0 C62.21 0, 107.02 0, 194.99 0 C206.58 0, 212.38 5.8, 212.38 17.39 C212.38 27.52, 212.38 37.65, 212.38 52.17 C212.38 63.77, 206.58 69.57, 194.99 69.57 C140.8 69.57, 86.6 69.57, 17.39 69.57 C5.8 69.57, 0 63.77, 0 52.17 C0 38.84, 0 25.51, 0 17.39 C0 5.8, 5.8 0, 17.39 0" stroke="none" stroke-width="0" fill="#ffffff"></path><path d="M17.39 0 C63.18 0, 108.97 0, 194.99 0 M17.39 0 C60.48 0, 103.56 0, 194.99 0 M194.99 0 C206.58 0, 212.38 5.8, 212.38 17.39 M194.99 0 C206.58 0, 212.38 5.8, 212.38 17.39 M212.38 17.39 C212.38 26.33, 212.38 35.28, 212.38 52.17 M212.38 17.39 C212.38 29.29, 212.38 41.19, 212.38 52.17 M212.38 52.17 C212.38 63.77, 206.58 69.57, 194.99 69.57 M212.38 52.17 C212.38 63.77, 206.58 69.57, 194.99 69.57 M194.99 69.57 C131.65 69.57, 68.3 69.57, 17.39 69.57 M194.99 69.57 C141.72 69.57, 88.45 69.57, 17.39 69.57 M17.39 69.57 C5.8 69.57, 0 63.77, 0 52.17 M17.39 69.57 C5.8 69.57, 0 63.77, 0 52.17 M0 52.17 C0 43.3, 0 34.42, 0 17.39 M0 52.17 C0 40.28, 0 28.38, 0 17.39 M0 17.39 C0 5.8, 5.8 0, 17.39 0 M0 17.39 C0 5.8, 5.8 0, 17.39 0" stroke="#000000" stroke-width="4" fill="none"></path></g><g stroke-linecap="round" transform="translate(168.79654193211275 701.1854003411701) rotate(0 5.90982185966908 5.124033254344624)"><path d="M2.56 0 C4.97 0, 7.38 0, 9.26 0 C10.97 0, 11.82 0.85, 11.82 2.56 C11.82 4.34, 11.82 6.12, 11.82 7.69 C11.82 9.39, 10.97 10.25, 9.26 10.25 C7.32 10.25, 5.38 10.25, 2.56 10.25 C0.85 10.25, 0 9.39, 0 7.69 C0 5.72, 0 3.76, 0 2.56 C0 0.85, 0.85 0, 2.56 0" stroke="none" stroke-width="0" fill="#000000"></path><path d="M2.56 0 C4.97 0, 7.37 0, 9.26 0 M2.56 0 C3.91 0, 5.25 0, 9.26 0 M9.26 0 C10.97 0, 11.82 0.85, 11.82 2.56 M9.26 0 C10.97 0, 11.82 0.85, 11.82 2.56 M11.82 2.56 C11.82 3.83, 11.82 5.11, 11.82 7.69 M11.82 2.56 C11.82 4.04, 11.82 5.53, 11.82 7.69 M11.82 7.69 C11.82 9.39, 10.97 10.25, 9.26 10.25 M11.82 7.69 C11.82 9.39, 10.97 10.25, 9.26 10.25 M9.26 10.25 C7.26 10.25, 5.26 10.25, 2.56 10.25 M9.26 10.25 C7.17 10.25, 5.08 10.25, 2.56 10.25 M2.56 10.25 C0.85 10.25, 0 9.39, 0 7.69 M2.56 10.25 C0.85 10.25, 0 9.39, 0 7.69 M0 7.69 C0 5.7, 0 3.72, 0 2.56 M0 7.69 C0 6.04, 0 4.4, 0 2.56 M0 2.56 C0 0.85, 0.85 0, 2.56 0 M0 2.56 C0 0.85, 0.85 0, 2.56 0" stroke="#000000" stroke-width="4" fill="none"></path></g><g stroke-linecap="round" transform="translate(204.9503995487629 701.1763687521611) rotate(0 54.200659641485686 5.296504348014537)"><path d="M2.65 0 C29.38 0, 56.12 0, 105.75 0 C107.52 0, 108.4 0.88, 108.4 2.65 C108.4 3.8, 108.4 4.95, 108.4 7.94 C108.4 9.71, 107.52 10.59, 105.75 10.59 C73.18 10.59, 40.62 10.59, 2.65 10.59 C0.88 10.59, 0 9.71, 0 7.94 C0 6.72, 0 5.5, 0 2.65 C0 0.88, 0.88 0, 2.65 0" stroke="none" stroke-width="0" fill="#000000"></path><path d="M2.65 0 C40.11 0, 77.58 0, 105.75 0 M2.65 0 C28.74 0, 54.83 0, 105.75 0 M105.75 0 C107.52 0, 108.4 0.88, 108.4 2.65 M105.75 0 C107.52 0, 108.4 0.88, 108.4 2.65 M108.4 2.65 C108.4 4.34, 108.4 6.04, 108.4 7.94 M108.4 2.65 C108.4 3.98, 108.4 5.31, 108.4 7.94 M108.4 7.94 C108.4 9.71, 107.52 10.59, 105.75 10.59 M108.4 7.94 C108.4 9.71, 107.52 10.59, 105.75 10.59 M105.75 10.59 C68.83 10.59, 31.9 10.59, 2.65 10.59 M105.75 10.59 C83.95 10.59, 62.16 10.59, 2.65 10.59 M2.65 10.59 C0.88 10.59, 0 9.71, 0 7.94 M2.65 10.59 C0.88 10.59, 0 9.71, 0 7.94 M0 7.94 C0 6.68, 0 5.42, 0 2.65 M0 7.94 C0 6.87, 0 5.8, 0 2.65 M0 2.65 C0 0.88, 0.88 0, 2.65 0 M0 2.65 C0 0.88, 0.88 0, 2.65 0" stroke="#000000" stroke-width="4" fill="none"></path></g><g transform="translate(126.57600215804052 598.6610680542472) rotate(0 120.04431915283203 29.7414888061204)"><text x="0" y="0" font-family="Virgil, Segoe UI Emoji" font-size="47.586382089792615px" fill="#000000" text-anchor="start" style="white-space: pre;" direction="ltr" dominant-baseline="text-before-edge">Baremetal</text></g><g transform="translate(467.7442575139189 64.59406661929545) rotate(0 12.508033180944096 5.211680492060033)"><text x="0" y="0" font-family="Virgil, Segoe UI Emoji" font-size="8.338688787296057px" fill="#000" text-anchor="start" style="white-space: pre;" direction="ltr" dominant-baseline="text-before-edge">React</text></g><g stroke-linecap="round" transform="translate(459.8290612562646 12.091003644963962) rotate(0 18.315565318766005 24.96043729992897)"><path d="M0.57 -0.49 L37.47 -0.61 L36.07 49.16 L0.24 50.26" stroke="none" stroke-width="0" fill="#454c5a"></path><path d="M0 0 C11.12 1.05, 20.83 -0.24, 36.63 0 M0 0 C10.09 -0.11, 18.91 0.51, 36.63 0 M36.63 0 C36.98 18.85, 36.82 36.96, 36.63 49.92 M36.63 0 C36.73 16.17, 36.39 32.66, 36.63 49.92 M36.63 49.92 C25.86 49.1, 15.82 49.56, 0 49.92 M36.63 49.92 C23.91 49.75, 11.92 49.71, 0 49.92 M0 49.92 C0.73 39.49, -0.89 30.42, 0 0 M0 49.92 C0.13 37.4, -0.01 26.29, 0 0" stroke="#000000" stroke-width="4" fill="none"></path></g><g stroke-linecap="round" transform="translate(470.2103940517045 18.12926634277777) rotate(0 15.171421716538362 6.254016590472045)"><path d="M0.84 -0.61 L29.78 -0.76 L30.59 12.84 L0.12 11.88" stroke="none" stroke-width="0" fill="#fff"></path><path d="M0 0 C5.94 -0.53, 12.81 -0.41, 30.34 0 M0 0 C8.24 0.52, 17.52 0.01, 30.34 0 M30.34 0 C30.49 3.39, 30.54 7.02, 30.34 12.51 M30.34 0 C30.35 2.56, 30.37 5.17, 30.34 12.51 M30.34 12.51 C24.33 12.18, 16.95 12.21, 0 12.51 M30.34 12.51 C22.06 12.31, 13.28 12.42, 0 12.51 M0 12.51 C-0.62 9.32, -0.41 6.11, 0 0 M0 12.51 C0.09 8.74, 0.13 4.21, 0 0" stroke="#000000" stroke-width="4" fill="none"></path></g><g transform="translate(474.23186332129103 19.340197823888516) rotate(0 12.508033180944096 5.211680492060037)"><text x="0" y="0" font-family="Virgil, Segoe UI Emoji" font-size="8.338688787296057px" fill="#000000" text-anchor="start" style="white-space: pre;" direction="ltr" dominant-baseline="text-before-edge">React</text></g><g stroke-linecap="round" transform="translate(475.62104984735856 36.55881803357974) rotate(89.76620192223518 3.403274992414538 10.833464182909793)"><path d="M4.67 0.67 C5.37 1.11, 5.71 2.57, 6.1 4.37 C6.48 6.18, 7 9.24, 6.98 11.5 C6.96 13.77, 6.49 16.36, 5.98 17.98 C5.47 19.59, 4.75 20.83, 3.94 21.2 C3.12 21.56, 1.75 21.39, 1.08 20.18 C0.41 18.96, 0.08 16.16, -0.07 13.89 C-0.22 11.61, -0.13 8.7, 0.17 6.52 C0.47 4.33, 1.05 1.86, 1.74 0.78 C2.44 -0.3, 3.82 0.07, 4.33 0.04 C4.84 0, 4.81 0.36, 4.82 0.57 M3.17 -0.22 C3.82 -0.49, 4.1 0.5, 4.66 2 C5.22 3.5, 6.3 6.61, 6.55 8.76 C6.79 10.91, 6.36 12.99, 6.12 14.91 C5.89 16.84, 5.63 19.21, 5.13 20.3 C4.64 21.39, 3.81 22.12, 3.14 21.43 C2.47 20.74, 1.58 18.01, 1.12 16.17 C0.65 14.33, 0.29 12.65, 0.35 10.4 C0.4 8.15, 0.89 4.46, 1.47 2.65 C2.05 0.85, 3.59 0.07, 3.81 -0.43 C4.02 -0.93, 2.83 -0.63, 2.76 -0.33" stroke="#00bbd4" stroke-width="2" fill="none"></path></g><g stroke-linecap="round" transform="translate(475.32434525721726 36.54985695049518) rotate(29.4102139279678 3.403274992414538 10.833464182909793)"><path d="M2.8 0.15 C3.43 -0.41, 4.66 0.4, 5.31 1.53 C5.96 2.66, 6.48 4.8, 6.71 6.92 C6.95 9.03, 7.08 11.95, 6.73 14.22 C6.39 16.5, 5.32 19.35, 4.63 20.55 C3.94 21.76, 3.23 21.91, 2.57 21.44 C1.91 20.97, 1.12 19.55, 0.67 17.71 C0.22 15.87, -0.16 12.76, -0.13 10.38 C-0.11 8.01, 0.26 5.19, 0.85 3.46 C1.44 1.72, 3 0.52, 3.41 -0.03 C3.82 -0.58, 3.4 0.02, 3.31 0.16 M2.44 -0.06 C3.11 -0.21, 4.61 1.37, 5.27 2.65 C5.92 3.93, 6.12 5.51, 6.38 7.61 C6.63 9.71, 6.96 13, 6.8 15.22 C6.65 17.45, 6.09 20.08, 5.45 20.96 C4.81 21.84, 3.74 21.09, 2.98 20.52 C2.22 19.95, 1.31 19.42, 0.89 17.54 C0.47 15.66, 0.32 11.75, 0.45 9.24 C0.58 6.74, 1.31 4.15, 1.69 2.52 C2.08 0.89, 2.49 -0.21, 2.77 -0.55 C3.05 -0.89, 3.29 0.29, 3.38 0.49" stroke="#00bbd4" stroke-width="2" fill="none"></path></g><g stroke-linecap="round" transform="translate(475.6396715747354 36.5867325275764) rotate(144.34903574615214 3.403274992414538 10.833464182909793)"><path d="M4.23 0.23 C4.94 0.46, 5.69 1.98, 6.15 3.71 C6.6 5.44, 7.05 8.19, 6.95 10.61 C6.84 13.03, 6.06 16.41, 5.52 18.22 C4.99 20.03, 4.39 21.17, 3.73 21.48 C3.07 21.8, 2.16 21.35, 1.55 20.11 C0.94 18.86, 0.27 16.26, 0.05 14.01 C-0.16 11.76, -0.1 8.75, 0.26 6.62 C0.61 4.5, 1.5 2.32, 2.18 1.25 C2.87 0.18, 4.04 0.36, 4.38 0.2 C4.71 0.03, 4.24 0.07, 4.18 0.26 M2.97 0.56 C3.72 0.14, 4.36 0.13, 5.04 1.31 C5.72 2.49, 6.7 5.26, 7.05 7.66 C7.4 10.05, 7.45 13.61, 7.16 15.66 C6.88 17.72, 6.08 18.92, 5.36 19.98 C4.64 21.03, 3.55 22.56, 2.83 22 C2.11 21.45, 1.39 18.73, 1.03 16.62 C0.67 14.52, 0.72 11.71, 0.65 9.37 C0.57 7.02, 0.15 4.07, 0.59 2.56 C1.03 1.04, 2.87 0.75, 3.31 0.29 C3.75 -0.17, 3.23 -0.26, 3.22 -0.22" stroke="#00bbd4" stroke-width="2" fill="none"></path></g><g stroke-linecap="round" transform="translate(478.00529332463157 46.55294357381238) rotate(0 0.8100199746825183 0.8100199746825432)"><path d="M0.83 -0.14 C1.01 -0.13, 1.58 0.06, 1.66 0.27 C1.75 0.47, 1.39 0.91, 1.36 1.08 C1.33 1.26, 1.51 1.2, 1.48 1.32 C1.45 1.44, 1.31 1.74, 1.18 1.8 C1.06 1.86, 0.87 1.83, 0.71 1.69 C0.56 1.56, 0.36 1.24, 0.24 1.01 C0.12 0.78, -0.03 0.41, 0 0.3 C0.03 0.2, 0.24 0.44, 0.43 0.36 C0.62 0.27, 1.09 -0.12, 1.13 -0.21 C1.17 -0.3, 0.74 -0.19, 0.65 -0.19 M1.16 -0.15 C1.22 -0.25, 1.1 -0.39, 1.1 -0.25 C1.1 -0.11, 1.12 0.44, 1.16 0.69 C1.19 0.94, 1.24 1.14, 1.32 1.23 C1.39 1.32, 1.7 1.21, 1.59 1.23 C1.48 1.25, 0.85 1.3, 0.64 1.33 C0.42 1.36, 0.38 1.48, 0.28 1.43 C0.17 1.38, -0.03 1.18, 0.01 1.05 C0.05 0.92, 0.47 0.85, 0.53 0.64 C0.58 0.43, 0.27 -0.16, 0.33 -0.19 C0.39 -0.22, 0.75 0.38, 0.9 0.47" stroke="none" stroke-width="0" fill="#00bbd4"></path><path d="M0.88 -0.2 C1.04 -0.25, 1.35 -0.25, 1.43 -0.07 C1.5 0.1, 1.32 0.66, 1.31 0.87 C1.3 1.08, 1.42 1.07, 1.37 1.18 C1.32 1.3, 1.17 1.53, 1.01 1.56 C0.86 1.58, 0.59 1.42, 0.44 1.33 C0.3 1.23, 0.15 1.11, 0.13 0.98 C0.11 0.86, 0.26 0.74, 0.3 0.59 C0.35 0.45, 0.34 0.26, 0.41 0.13 C0.49 -0.01, 0.68 -0.22, 0.74 -0.24 C0.8 -0.26, 0.77 0.02, 0.77 0.02 M0.57 -0.46 C0.79 -0.58, 1.31 -0.32, 1.56 -0.11 C1.8 0.09, 2.01 0.64, 2.06 0.78 C2.12 0.92, 2 0.52, 1.88 0.73 C1.75 0.94, 1.49 1.95, 1.32 2.05 C1.14 2.15, 0.96 1.52, 0.83 1.33 C0.7 1.14, 0.72 1.1, 0.54 0.92 C0.35 0.75, -0.25 0.4, -0.27 0.3 C-0.29 0.21, 0.21 0.47, 0.4 0.37 C0.59 0.26, 0.78 -0.19, 0.85 -0.31 C0.93 -0.43, 0.8 -0.41, 0.85 -0.37" stroke="#00bbd4" stroke-width="2" fill="none"></path></g><g transform="translate(468.5901334561279 227.28982802387335) rotate(0 14.199560816586427 5.461369544840949)"><text x="0" y="0" font-family="Virgil, Segoe UI Emoji" font-size="8.738191271745508px" fill="#000" text-anchor="start" style="white-space: pre;" direction="ltr" dominant-baseline="text-before-edge">Python</text></g><g stroke-linecap="round" transform="translate(460.8290612562646 173.52042348552573) rotate(0 19.193055057931076 26.156279592239756)"><path d="M-0.26 -1.26 L40.33 -1.42 L36.61 52.9 L1.11 52.67" stroke="none" stroke-width="0" fill="#3572a5"></path><path d="M0 0 C7.65 -0.89, 16.04 0.34, 38.39 0 M0 0 C11.74 -0.42, 24.64 0.16, 38.39 0 M38.39 0 C37.89 14.46, 35.93 29.38, 38.39 52.31 M38.39 0 C39.08 20.03, 39.59 38.87, 38.39 52.31 M38.39 52.31 C30.27 53.57, 22.9 54.08, 0 52.31 M38.39 52.31 C25.33 52.96, 9.72 52.9, 0 52.31 M0 52.31 C0.17 34.8, 0.83 14.6, 0 0 M0 52.31 C0.24 40.25, -0.57 25.44, 0 0" stroke="#000000" stroke-width="4" fill="none"></path></g><g stroke-linecap="round" transform="translate(470.3664988132891 179.8479763836418) rotate(0 16.56890697694189 6.55364345380913)"><path d="M0.97 -0.71 L32.25 0.29 L33.69 13.29 L0.77 13.01" stroke="none" stroke-width="0" fill="#fff"></path><path d="M0 0 C6.56 0.09, 13.64 1.05, 33.14 0 M0 0 C12.02 0.21, 23.29 -0.42, 33.14 0 M33.14 0 C32.49 4.6, 33.62 10.66, 33.14 13.11 M33.14 0 C33.46 2.79, 32.84 5.65, 33.14 13.11 M33.14 13.11 C24.57 14.19, 16.68 13.83, 0 13.11 M33.14 13.11 C20.6 13.34, 9.11 13.1, 0 13.11 M0 13.11 C0.24 8.25, -0.34 4.65, 0 0 M0 13.11 C-0.18 8.98, -0.06 5.19, 0 0" stroke="#000000" stroke-width="4" fill="none"></path></g><g transform="translate(473.9224920484414 180.80140941879887) rotate(0 14.199560816586427 5.461369544840949)"><text x="0" y="0" font-family="Virgil, Segoe UI Emoji" font-size="8.738191271745508px" fill="#000000" text-anchor="start" style="white-space: pre;" direction="ltr" dominant-baseline="text-before-edge">Python</text></g><g stroke-linecap="round"><g transform="translate(486.993923424229 208.0914528030524) rotate(0 -3.1667036426633786 6.320804985224768)" fill-rule="evenodd"><path d="M0 0 C0.3 0.03, 1.35 -0.06, 1.8 0.15 C2.25 0.36, 2.47 0.64, 2.68 1.26 C2.88 1.89, 3.04 3.07, 3.02 3.9 C3.01 4.74, 2.94 5.67, 2.57 6.29 C2.2 6.9, 1.56 7.34, 0.82 7.59 C0.08 7.84, -0.95 7.77, -1.85 7.8 C-2.75 7.84, -3.96 7.79, -4.57 7.81 C-5.18 7.84, -5.38 7.75, -5.53 7.93 C-5.68 8.11, -6.15 8.71, -5.48 8.9 C-4.81 9.09, -2.27 8.84, -1.54 9.08 C-0.81 9.32, -1.09 9.94, -1.1 10.35 C-1.11 10.75, -1.25 11.15, -1.61 11.52 C-1.98 11.89, -2.51 12.37, -3.28 12.56 C-4.06 12.75, -5.42 12.77, -6.28 12.64 C-7.14 12.52, -7.96 12.16, -8.44 11.81 C-8.92 11.46, -9 11.08, -9.16 10.54 C-9.31 10, -9.34 9.28, -9.36 8.55 C-9.38 7.82, -9.49 6.79, -9.27 6.14 C-9.05 5.5, -8.62 4.93, -8.03 4.68 C-7.45 4.43, -6.54 4.66, -5.77 4.66 C-5.01 4.66, -4.12 4.74, -3.44 4.68 C-2.76 4.62, -2.23 4.62, -1.69 4.28 C-1.15 3.95, -0.5 3.39, -0.22 2.68 C0.06 1.97, -0.04 0.45, 0 0" stroke="none" stroke-width="0" fill="#ffda48" fill-rule="evenodd"></path><path d="M0 0 C0.3 0.03, 1.35 -0.06, 1.8 0.15 C2.25 0.36, 2.47 0.64, 2.68 1.26 C2.88 1.89, 3.04 3.07, 3.02 3.9 C3.01 4.74, 2.94 5.67, 2.57 6.29 C2.2 6.9, 1.56 7.34, 0.82 7.59 C0.08 7.84, -0.95 7.77, -1.85 7.8 C-2.75 7.84, -3.96 7.79, -4.57 7.81 C-5.18 7.84, -5.38 7.75, -5.53 7.93 C-5.68 8.11, -6.15 8.71, -5.48 8.9 C-4.81 9.09, -2.27 8.84, -1.54 9.08 C-0.81 9.32, -1.09 9.94, -1.1 10.35 C-1.11 10.75, -1.25 11.15, -1.61 11.52 C-1.98 11.89, -2.51 12.37, -3.28 12.56 C-4.06 12.75, -5.42 12.77, -6.28 12.64 C-7.14 12.52, -7.96 12.16, -8.44 11.81 C-8.92 11.46, -9 11.08, -9.16 10.54 C-9.31 10, -9.34 9.28, -9.36 8.55 C-9.38 7.82, -9.49 6.79, -9.27 6.14 C-9.05 5.5, -8.62 4.93, -8.03 4.68 C-7.45 4.43, -6.54 4.66, -5.77 4.66 C-5.01 4.66, -4.12 4.74, -3.44 4.68 C-2.76 4.62, -2.23 4.62, -1.69 4.28 C-1.15 3.95, -0.5 3.39, -0.22 2.68 C0.06 1.97, -0.04 0.45, 0 0 M0 0 C0.3 0.03, 1.35 -0.06, 1.8 0.15 C2.25 0.36, 2.47 0.64, 2.68 1.26 C2.88 1.89, 3.04 3.07, 3.02 3.9 C3.01 4.74, 2.94 5.67, 2.57 6.29 C2.2 6.9, 1.56 7.34, 0.82 7.59 C0.08 7.84, -0.95 7.77, -1.85 7.8 C-2.75 7.84, -3.96 7.79, -4.57 7.81 C-5.18 7.84, -5.38 7.75, -5.53 7.93 C-5.68 8.11, -6.15 8.71, -5.48 8.9 C-4.81 9.09, -2.27 8.84, -1.54 9.08 C-0.81 9.32, -1.09 9.94, -1.1 10.35 C-1.11 10.75, -1.25 11.15, -1.61 11.52 C-1.98 11.89, -2.51 12.37, -3.28 12.56 C-4.06 12.75, -5.42 12.77, -6.28 12.64 C-7.14 12.52, -7.96 12.16, -8.44 11.81 C-8.92 11.46, -9 11.08, -9.16 10.54 C-9.31 10, -9.34 9.28, -9.36 8.55 C-9.38 7.82, -9.49 6.79, -9.27 6.14 C-9.05 5.5, -8.62 4.93, -8.03 4.68 C-7.45 4.43, -6.54 4.66, -5.77 4.66 C-5.01 4.66, -4.12 4.74, -3.44 4.68 C-2.76 4.62, -2.23 4.62, -1.69 4.28 C-1.15 3.95, -0.5 3.39, -0.22 2.68 C0.06 1.97, -0.04 0.45, 0 0" stroke="#000" stroke-width="2" fill="none"></path></g></g><mask></mask><g stroke-linecap="round"><g transform="translate(476.5327175131629 216.2954124312813) rotate(0 2.8053550481808998 -6.530191918735056)" fill-rule="evenodd"><path d="M0 0 C-0.32 0, -1.39 0.21, -1.92 -0.01 C-2.46 -0.22, -2.9 -0.63, -3.19 -1.28 C-3.49 -1.94, -3.7 -3.1, -3.71 -3.96 C-3.71 -4.82, -3.58 -5.78, -3.23 -6.45 C-2.88 -7.12, -2.38 -7.7, -1.62 -7.98 C-0.86 -8.26, 0.31 -8.12, 1.31 -8.13 C2.31 -8.13, 3.67 -8.02, 4.37 -8.02 C5.06 -8.02, 5.36 -7.93, 5.48 -8.13 C5.6 -8.33, 5.8 -9.01, 5.07 -9.23 C4.34 -9.45, 1.84 -9.26, 1.1 -9.43 C0.36 -9.61, 0.66 -9.87, 0.63 -10.3 C0.61 -10.73, 0.6 -11.55, 0.97 -11.99 C1.34 -12.44, 2.03 -12.77, 2.86 -12.94 C3.7 -13.12, 5.09 -13.17, 5.99 -13.06 C6.89 -12.95, 7.71 -12.63, 8.25 -12.28 C8.79 -11.93, 9.05 -11.55, 9.23 -10.97 C9.4 -10.4, 9.36 -9.58, 9.32 -8.81 C9.28 -8.04, 9.25 -7.04, 9 -6.37 C8.76 -5.7, 8.42 -5.05, 7.83 -4.78 C7.24 -4.52, 6.26 -4.76, 5.45 -4.76 C4.65 -4.76, 3.71 -4.89, 2.99 -4.78 C2.28 -4.68, 1.65 -4.54, 1.16 -4.15 C0.66 -3.76, 0.23 -3.13, 0.04 -2.44 C-0.16 -1.75, 0.01 -0.41, 0 0" stroke="none" stroke-width="0" fill="#3371a2" fill-rule="evenodd"></path><path d="M0 0 C-0.32 0, -1.39 0.21, -1.92 -0.01 C-2.46 -0.22, -2.9 -0.63, -3.19 -1.28 C-3.49 -1.94, -3.7 -3.1, -3.71 -3.96 C-3.71 -4.82, -3.58 -5.78, -3.23 -6.45 C-2.88 -7.12, -2.38 -7.7, -1.62 -7.98 C-0.86 -8.26, 0.31 -8.12, 1.31 -8.13 C2.31 -8.13, 3.67 -8.02, 4.37 -8.02 C5.06 -8.02, 5.36 -7.93, 5.48 -8.13 C5.6 -8.33, 5.8 -9.01, 5.07 -9.23 C4.34 -9.45, 1.84 -9.26, 1.1 -9.43 C0.36 -9.61, 0.66 -9.87, 0.63 -10.3 C0.61 -10.73, 0.6 -11.55, 0.97 -11.99 C1.34 -12.44, 2.03 -12.77, 2.86 -12.94 C3.7 -13.12, 5.09 -13.17, 5.99 -13.06 C6.89 -12.95, 7.71 -12.63, 8.25 -12.28 C8.79 -11.93, 9.05 -11.55, 9.23 -10.97 C9.4 -10.4, 9.36 -9.58, 9.32 -8.81 C9.28 -8.04, 9.25 -7.04, 9 -6.37 C8.76 -5.7, 8.42 -5.05, 7.83 -4.78 C7.24 -4.52, 6.26 -4.76, 5.45 -4.76 C4.65 -4.76, 3.71 -4.89, 2.99 -4.78 C2.28 -4.68, 1.65 -4.54, 1.16 -4.15 C0.66 -3.76, 0.23 -3.13, 0.04 -2.44 C-0.16 -1.75, 0.01 -0.41, 0 0 M0 0 C-0.32 0, -1.39 0.21, -1.92 -0.01 C-2.46 -0.22, -2.9 -0.63, -3.19 -1.28 C-3.49 -1.94, -3.7 -3.1, -3.71 -3.96 C-3.71 -4.82, -3.58 -5.78, -3.23 -6.45 C-2.88 -7.12, -2.38 -7.7, -1.62 -7.98 C-0.86 -8.26, 0.31 -8.12, 1.31 -8.13 C2.31 -8.13, 3.67 -8.02, 4.37 -8.02 C5.06 -8.02, 5.36 -7.93, 5.48 -8.13 C5.6 -8.33, 5.8 -9.01, 5.07 -9.23 C4.34 -9.45, 1.84 -9.26, 1.1 -9.43 C0.36 -9.61, 0.66 -9.87, 0.63 -10.3 C0.61 -10.73, 0.6 -11.55, 0.97 -11.99 C1.34 -12.44, 2.03 -12.77, 2.86 -12.94 C3.7 -13.12, 5.09 -13.17, 5.99 -13.06 C6.89 -12.95, 7.71 -12.63, 8.25 -12.28 C8.79 -11.93, 9.05 -11.55, 9.23 -10.97 C9.4 -10.4, 9.36 -9.58, 9.32 -8.81 C9.28 -8.04, 9.25 -7.04, 9 -6.37 C8.76 -5.7, 8.42 -5.05, 7.83 -4.78 C7.24 -4.52, 6.26 -4.76, 5.45 -4.76 C4.65 -4.76, 3.71 -4.89, 2.99 -4.78 C2.28 -4.68, 1.65 -4.54, 1.16 -4.15 C0.66 -3.76, 0.23 -3.13, 0.04 -2.44 C-0.16 -1.75, 0.01 -0.41, 0 0" stroke="#000" stroke-width="2" fill="none"></path></g></g><mask></mask><g stroke-linecap="round" transform="translate(480.3223135998778 204.208570444449) rotate(0 0.8247156300696474 0.8791741922143359)"><path d="M1.65 0.88 C1.65 0.93, 1.65 0.98, 1.64 1.03 C1.63 1.08, 1.62 1.13, 1.6 1.18 C1.58 1.23, 1.56 1.27, 1.54 1.32 C1.52 1.36, 1.49 1.41, 1.46 1.44 C1.43 1.48, 1.39 1.52, 1.35 1.55 C1.32 1.59, 1.28 1.62, 1.24 1.64 C1.2 1.67, 1.15 1.69, 1.11 1.71 C1.06 1.72, 1.01 1.74, 0.97 1.74 C0.92 1.75, 0.87 1.76, 0.82 1.76 C0.78 1.76, 0.73 1.75, 0.68 1.74 C0.63 1.74, 0.59 1.72, 0.54 1.71 C0.5 1.69, 0.45 1.67, 0.41 1.64 C0.37 1.62, 0.33 1.59, 0.29 1.55 C0.26 1.52, 0.22 1.48, 0.19 1.44 C0.16 1.41, 0.13 1.36, 0.11 1.32 C0.09 1.27, 0.07 1.23, 0.05 1.18 C0.03 1.13, 0.02 1.08, 0.01 1.03 C0 0.98, 0 0.93, 0 0.88 C0 0.83, 0 0.78, 0.01 0.73 C0.02 0.68, 0.03 0.63, 0.05 0.58 C0.07 0.53, 0.09 0.48, 0.11 0.44 C0.13 0.4, 0.16 0.35, 0.19 0.31 C0.22 0.28, 0.26 0.24, 0.29 0.21 C0.33 0.17, 0.37 0.14, 0.41 0.12 C0.45 0.09, 0.5 0.07, 0.54 0.05 C0.59 0.04, 0.63 0.02, 0.68 0.01 C0.73 0, 0.78 0, 0.82 0 C0.87 0, 0.92 0, 0.97 0.01 C1.01 0.02, 1.06 0.04, 1.11 0.05 C1.15 0.07, 1.2 0.09, 1.24 0.12 C1.28 0.14, 1.32 0.17, 1.35 0.21 C1.39 0.24, 1.43 0.28, 1.46 0.31 C1.49 0.35, 1.52 0.4, 1.54 0.44 C1.56 0.48, 1.58 0.53, 1.6 0.58 C1.62 0.63, 1.63 0.68, 1.64 0.73 C1.65 0.78, 1.65 0.85, 1.65 0.88 C1.65 0.9, 1.65 0.85, 1.65 0.88" stroke="none" stroke-width="0" fill="#fff"></path><path d="M1.65 0.88 C1.65 0.93, 1.65 0.98, 1.64 1.03 C1.63 1.08, 1.62 1.13, 1.6 1.18 C1.58 1.23, 1.56 1.27, 1.54 1.32 C1.52 1.36, 1.49 1.41, 1.46 1.44 C1.43 1.48, 1.39 1.52, 1.35 1.55 C1.32 1.59, 1.28 1.62, 1.24 1.64 C1.2 1.67, 1.15 1.69, 1.11 1.71 C1.06 1.72, 1.01 1.74, 0.97 1.74 C0.92 1.75, 0.87 1.76, 0.82 1.76 C0.78 1.76, 0.73 1.75, 0.68 1.74 C0.63 1.74, 0.59 1.72, 0.54 1.71 C0.5 1.69, 0.45 1.67, 0.41 1.64 C0.37 1.62, 0.33 1.59, 0.29 1.55 C0.26 1.52, 0.22 1.48, 0.19 1.44 C0.16 1.41, 0.13 1.36, 0.11 1.32 C0.09 1.27, 0.07 1.23, 0.05 1.18 C0.03 1.13, 0.02 1.08, 0.01 1.03 C0 0.98, 0 0.93, 0 0.88 C0 0.83, 0 0.78, 0.01 0.73 C0.02 0.68, 0.03 0.63, 0.05 0.58 C0.07 0.53, 0.09 0.48, 0.11 0.44 C0.13 0.4, 0.16 0.35, 0.19 0.31 C0.22 0.28, 0.26 0.24, 0.29 0.21 C0.33 0.17, 0.37 0.14, 0.41 0.12 C0.45 0.09, 0.5 0.07, 0.54 0.05 C0.59 0.04, 0.63 0.02, 0.68 0.01 C0.73 0, 0.78 0, 0.82 0 C0.87 0, 0.92 0, 0.97 0.01 C1.01 0.02, 1.06 0.04, 1.11 0.05 C1.15 0.07, 1.2 0.09, 1.24 0.12 C1.28 0.14, 1.32 0.17, 1.35 0.21 C1.39 0.24, 1.43 0.28, 1.46 0.31 C1.49 0.35, 1.52 0.4, 1.54 0.44 C1.56 0.48, 1.58 0.53, 1.6 0.58 C1.62 0.63, 1.63 0.68, 1.64 0.73 C1.65 0.78, 1.65 0.85, 1.65 0.88 C1.65 0.9, 1.65 0.85, 1.65 0.88" stroke="#000" stroke-width="1" fill="none"></path></g><g stroke-linecap="round" transform="translate(480.8768708863938 218.06030688041037) rotate(0 0.8247156300696474 0.8791741922143359)"><path d="M1.65 0.88 C1.65 0.93, 1.65 0.98, 1.64 1.03 C1.63 1.08, 1.62 1.13, 1.6 1.18 C1.58 1.23, 1.56 1.27, 1.54 1.32 C1.52 1.36, 1.49 1.41, 1.46 1.44 C1.43 1.48, 1.39 1.52, 1.35 1.55 C1.32 1.59, 1.28 1.62, 1.24 1.64 C1.2 1.67, 1.15 1.69, 1.11 1.71 C1.06 1.72, 1.01 1.74, 0.97 1.74 C0.92 1.75, 0.87 1.76, 0.82 1.76 C0.78 1.76, 0.73 1.75, 0.68 1.74 C0.63 1.74, 0.59 1.72, 0.54 1.71 C0.5 1.69, 0.45 1.67, 0.41 1.64 C0.37 1.62, 0.33 1.59, 0.29 1.55 C0.26 1.52, 0.22 1.48, 0.19 1.44 C0.16 1.41, 0.13 1.36, 0.11 1.32 C0.09 1.27, 0.07 1.23, 0.05 1.18 C0.03 1.13, 0.02 1.08, 0.01 1.03 C0 0.98, 0 0.93, 0 0.88 C0 0.83, 0 0.78, 0.01 0.73 C0.02 0.68, 0.03 0.63, 0.05 0.58 C0.07 0.53, 0.09 0.48, 0.11 0.44 C0.13 0.4, 0.16 0.35, 0.19 0.31 C0.22 0.28, 0.26 0.24, 0.29 0.21 C0.33 0.17, 0.37 0.14, 0.41 0.12 C0.45 0.09, 0.5 0.07, 0.54 0.05 C0.59 0.04, 0.63 0.02, 0.68 0.01 C0.73 0, 0.78 0, 0.82 0 C0.87 0, 0.92 0, 0.97 0.01 C1.01 0.02, 1.06 0.04, 1.11 0.05 C1.15 0.07, 1.2 0.09, 1.24 0.12 C1.28 0.14, 1.32 0.17, 1.35 0.21 C1.39 0.24, 1.43 0.28, 1.46 0.31 C1.49 0.35, 1.52 0.4, 1.54 0.44 C1.56 0.48, 1.58 0.53, 1.6 0.58 C1.62 0.63, 1.63 0.68, 1.64 0.73 C1.65 0.78, 1.65 0.85, 1.65 0.88 C1.65 0.9, 1.65 0.85, 1.65 0.88" stroke="none" stroke-width="0" fill="#fff"></path><path d="M1.65 0.88 C1.65 0.93, 1.65 0.98, 1.64 1.03 C1.63 1.08, 1.62 1.13, 1.6 1.18 C1.58 1.23, 1.56 1.27, 1.54 1.32 C1.52 1.36, 1.49 1.41, 1.46 1.44 C1.43 1.48, 1.39 1.52, 1.35 1.55 C1.32 1.59, 1.28 1.62, 1.24 1.64 C1.2 1.67, 1.15 1.69, 1.11 1.71 C1.06 1.72, 1.01 1.74, 0.97 1.74 C0.92 1.75, 0.87 1.76, 0.82 1.76 C0.78 1.76, 0.73 1.75, 0.68 1.74 C0.63 1.74, 0.59 1.72, 0.54 1.71 C0.5 1.69, 0.45 1.67, 0.41 1.64 C0.37 1.62, 0.33 1.59, 0.29 1.55 C0.26 1.52, 0.22 1.48, 0.19 1.44 C0.16 1.41, 0.13 1.36, 0.11 1.32 C0.09 1.27, 0.07 1.23, 0.05 1.18 C0.03 1.13, 0.02 1.08, 0.01 1.03 C0 0.98, 0 0.93, 0 0.88 C0 0.83, 0 0.78, 0.01 0.73 C0.02 0.68, 0.03 0.63, 0.05 0.58 C0.07 0.53, 0.09 0.48, 0.11 0.44 C0.13 0.4, 0.16 0.35, 0.19 0.31 C0.22 0.28, 0.26 0.24, 0.29 0.21 C0.33 0.17, 0.37 0.14, 0.41 0.12 C0.45 0.09, 0.5 0.07, 0.54 0.05 C0.59 0.04, 0.63 0.02, 0.68 0.01 C0.73 0, 0.78 0, 0.82 0 C0.87 0, 0.92 0, 0.97 0.01 C1.01 0.02, 1.06 0.04, 1.11 0.05 C1.15 0.07, 1.2 0.09, 1.24 0.12 C1.28 0.14, 1.32 0.17, 1.35 0.21 C1.39 0.24, 1.43 0.28, 1.46 0.31 C1.49 0.35, 1.52 0.4, 1.54 0.44 C1.56 0.48, 1.58 0.53, 1.6 0.58 C1.62 0.63, 1.63 0.68, 1.64 0.73 C1.65 0.78, 1.65 0.85, 1.65 0.88 C1.65 0.9, 1.65 0.85, 1.65 0.88" stroke="#000" stroke-width="1" fill="none"></path></g><g transform="translate(207.0901334561279 382.97754834852265) rotate(0 14.199560816586427 5.461369544840949)"><text x="0" y="0" font-family="Virgil, Segoe UI Emoji" font-size="8.738191271745508px" fill="#000" text-anchor="start" style="white-space: pre;" direction="ltr" dominant-baseline="text-before-edge">Python</text></g><g stroke-linecap="round" transform="translate(199.3290612562646 329.208143810175) rotate(0 19.193055057931076 26.15627959223974)"><path d="M-1.85 -1.52 L38.35 -0.32 L40.07 50.39 L1.49 51.84" stroke="none" stroke-width="0" fill="#3572a5"></path><path d="M0 0 C14.31 1.3, 29.59 1.29, 38.39 0 M0 0 C10.71 -0.18, 21.15 0.73, 38.39 0 M38.39 0 C37.67 14.97, 36.36 35.17, 38.39 52.31 M38.39 0 C38.43 13.91, 39.25 26.54, 38.39 52.31 M38.39 52.31 C25.48 51.6, 11.72 52.41, 0 52.31 M38.39 52.31 C28.73 53.08, 20.41 53.01, 0 52.31 M0 52.31 C0.96 31.16, 1.1 10.01, 0 0 M0 52.31 C0.38 42.2, -0.26 30.21, 0 0" stroke="#000000" stroke-width="4" fill="none"></path></g><g stroke-linecap="round" transform="translate(208.86649881328913 335.5356967082911) rotate(0 16.56890697694189 6.553643453809144)"><path d="M-0.02 -0.16 L33.98 -0.96 L33.88 12.87 L0.44 14" stroke="none" stroke-width="0" fill="#fff"></path><path d="M0 0 C8.94 0.48, 17.47 -0.78, 33.14 0 M0 0 C7.76 0.32, 16.2 -0.43, 33.14 0 M33.14 0 C32.64 4.43, 32.82 8.13, 33.14 13.11 M33.14 0 C33.35 5.2, 33.25 10.35, 33.14 13.11 M33.14 13.11 C24.93 13.24, 17.02 13.34, 0 13.11 M33.14 13.11 C20.98 13.39, 8.64 13.49, 0 13.11 M0 13.11 C0.42 8.33, -0.68 4.54, 0 0 M0 13.11 C-0.06 7.57, -0.34 2.43, 0 0" stroke="#000000" stroke-width="4" fill="none"></path></g><g transform="translate(212.42249204844143 336.48912974344813) rotate(0 14.199560816586427 5.461369544840949)"><text x="0" y="0" font-family="Virgil, Segoe UI Emoji" font-size="8.738191271745508px" fill="#000000" text-anchor="start" style="white-space: pre;" direction="ltr" dominant-baseline="text-before-edge">Python</text></g><g stroke-linecap="round"><g transform="translate(225.49392342422902 363.7791731277016) rotate(0 -3.16670364266335 6.320804985224754)" fill-rule="evenodd"><path d="M0 0 C0.3 0.03, 1.35 -0.06, 1.8 0.15 C2.25 0.36, 2.47 0.64, 2.68 1.26 C2.88 1.89, 3.04 3.07, 3.02 3.9 C3.01 4.74, 2.94 5.67, 2.57 6.29 C2.2 6.9, 1.56 7.34, 0.82 7.59 C0.08 7.84, -0.95 7.77, -1.85 7.8 C-2.75 7.84, -3.96 7.79, -4.57 7.81 C-5.18 7.84, -5.38 7.75, -5.53 7.93 C-5.68 8.11, -6.15 8.71, -5.48 8.9 C-4.81 9.09, -2.27 8.84, -1.54 9.08 C-0.81 9.32, -1.09 9.94, -1.1 10.35 C-1.11 10.75, -1.25 11.15, -1.61 11.52 C-1.98 11.89, -2.51 12.37, -3.28 12.56 C-4.06 12.75, -5.42 12.77, -6.28 12.64 C-7.14 12.52, -7.96 12.16, -8.44 11.81 C-8.92 11.46, -9 11.08, -9.16 10.54 C-9.31 10, -9.34 9.28, -9.36 8.55 C-9.38 7.82, -9.49 6.79, -9.27 6.14 C-9.05 5.5, -8.62 4.93, -8.03 4.68 C-7.45 4.43, -6.54 4.66, -5.77 4.66 C-5.01 4.66, -4.12 4.74, -3.44 4.68 C-2.76 4.62, -2.23 4.62, -1.69 4.28 C-1.15 3.95, -0.5 3.39, -0.22 2.68 C0.06 1.97, -0.04 0.45, 0 0" stroke="none" stroke-width="0" fill="#ffda48" fill-rule="evenodd"></path><path d="M0 0 C0.3 0.03, 1.35 -0.06, 1.8 0.15 C2.25 0.36, 2.47 0.64, 2.68 1.26 C2.88 1.89, 3.04 3.07, 3.02 3.9 C3.01 4.74, 2.94 5.67, 2.57 6.29 C2.2 6.9, 1.56 7.34, 0.82 7.59 C0.08 7.84, -0.95 7.77, -1.85 7.8 C-2.75 7.84, -3.96 7.79, -4.57 7.81 C-5.18 7.84, -5.38 7.75, -5.53 7.93 C-5.68 8.11, -6.15 8.71, -5.48 8.9 C-4.81 9.09, -2.27 8.84, -1.54 9.08 C-0.81 9.32, -1.09 9.94, -1.1 10.35 C-1.11 10.75, -1.25 11.15, -1.61 11.52 C-1.98 11.89, -2.51 12.37, -3.28 12.56 C-4.06 12.75, -5.42 12.77, -6.28 12.64 C-7.14 12.52, -7.96 12.16, -8.44 11.81 C-8.92 11.46, -9 11.08, -9.16 10.54 C-9.31 10, -9.34 9.28, -9.36 8.55 C-9.38 7.82, -9.49 6.79, -9.27 6.14 C-9.05 5.5, -8.62 4.93, -8.03 4.68 C-7.45 4.43, -6.54 4.66, -5.77 4.66 C-5.01 4.66, -4.12 4.74, -3.44 4.68 C-2.76 4.62, -2.23 4.62, -1.69 4.28 C-1.15 3.95, -0.5 3.39, -0.22 2.68 C0.06 1.97, -0.04 0.45, 0 0 M0 0 C0.3 0.03, 1.35 -0.06, 1.8 0.15 C2.25 0.36, 2.47 0.64, 2.68 1.26 C2.88 1.89, 3.04 3.07, 3.02 3.9 C3.01 4.74, 2.94 5.67, 2.57 6.29 C2.2 6.9, 1.56 7.34, 0.82 7.59 C0.08 7.84, -0.95 7.77, -1.85 7.8 C-2.75 7.84, -3.96 7.79, -4.57 7.81 C-5.18 7.84, -5.38 7.75, -5.53 7.93 C-5.68 8.11, -6.15 8.71, -5.48 8.9 C-4.81 9.09, -2.27 8.84, -1.54 9.08 C-0.81 9.32, -1.09 9.94, -1.1 10.35 C-1.11 10.75, -1.25 11.15, -1.61 11.52 C-1.98 11.89, -2.51 12.37, -3.28 12.56 C-4.06 12.75, -5.42 12.77, -6.28 12.64 C-7.14 12.52, -7.96 12.16, -8.44 11.81 C-8.92 11.46, -9 11.08, -9.16 10.54 C-9.31 10, -9.34 9.28, -9.36 8.55 C-9.38 7.82, -9.49 6.79, -9.27 6.14 C-9.05 5.5, -8.62 4.93, -8.03 4.68 C-7.45 4.43, -6.54 4.66, -5.77 4.66 C-5.01 4.66, -4.12 4.74, -3.44 4.68 C-2.76 4.62, -2.23 4.62, -1.69 4.28 C-1.15 3.95, -0.5 3.39, -0.22 2.68 C0.06 1.97, -0.04 0.45, 0 0" stroke="#000" stroke-width="2" fill="none"></path></g></g><mask></mask><g stroke-linecap="round"><g transform="translate(215.03271751316288 371.98313275593057) rotate(0 2.8053550481808998 -6.530191918735056)" fill-rule="evenodd"><path d="M0 0 C-0.32 0, -1.39 0.21, -1.92 -0.01 C-2.46 -0.22, -2.9 -0.63, -3.19 -1.28 C-3.49 -1.94, -3.7 -3.1, -3.71 -3.96 C-3.71 -4.82, -3.58 -5.78, -3.23 -6.45 C-2.88 -7.12, -2.38 -7.7, -1.62 -7.98 C-0.86 -8.26, 0.31 -8.12, 1.31 -8.13 C2.31 -8.13, 3.67 -8.02, 4.37 -8.02 C5.06 -8.02, 5.36 -7.93, 5.48 -8.13 C5.6 -8.33, 5.8 -9.01, 5.07 -9.23 C4.34 -9.45, 1.84 -9.26, 1.1 -9.43 C0.36 -9.61, 0.66 -9.87, 0.63 -10.3 C0.61 -10.73, 0.6 -11.55, 0.97 -11.99 C1.34 -12.44, 2.03 -12.77, 2.86 -12.94 C3.7 -13.12, 5.09 -13.17, 5.99 -13.06 C6.89 -12.95, 7.71 -12.63, 8.25 -12.28 C8.79 -11.93, 9.05 -11.55, 9.23 -10.97 C9.4 -10.4, 9.36 -9.58, 9.32 -8.81 C9.28 -8.04, 9.25 -7.04, 9 -6.37 C8.76 -5.7, 8.42 -5.05, 7.83 -4.78 C7.24 -4.52, 6.26 -4.76, 5.45 -4.76 C4.65 -4.76, 3.71 -4.89, 2.99 -4.78 C2.28 -4.68, 1.65 -4.54, 1.16 -4.15 C0.66 -3.76, 0.23 -3.13, 0.04 -2.44 C-0.16 -1.75, 0.01 -0.41, 0 0" stroke="none" stroke-width="0" fill="#3371a2" fill-rule="evenodd"></path><path d="M0 0 C-0.32 0, -1.39 0.21, -1.92 -0.01 C-2.46 -0.22, -2.9 -0.63, -3.19 -1.28 C-3.49 -1.94, -3.7 -3.1, -3.71 -3.96 C-3.71 -4.82, -3.58 -5.78, -3.23 -6.45 C-2.88 -7.12, -2.38 -7.7, -1.62 -7.98 C-0.86 -8.26, 0.31 -8.12, 1.31 -8.13 C2.31 -8.13, 3.67 -8.02, 4.37 -8.02 C5.06 -8.02, 5.36 -7.93, 5.48 -8.13 C5.6 -8.33, 5.8 -9.01, 5.07 -9.23 C4.34 -9.45, 1.84 -9.26, 1.1 -9.43 C0.36 -9.61, 0.66 -9.87, 0.63 -10.3 C0.61 -10.73, 0.6 -11.55, 0.97 -11.99 C1.34 -12.44, 2.03 -12.77, 2.86 -12.94 C3.7 -13.12, 5.09 -13.17, 5.99 -13.06 C6.89 -12.95, 7.71 -12.63, 8.25 -12.28 C8.79 -11.93, 9.05 -11.55, 9.23 -10.97 C9.4 -10.4, 9.36 -9.58, 9.32 -8.81 C9.28 -8.04, 9.25 -7.04, 9 -6.37 C8.76 -5.7, 8.42 -5.05, 7.83 -4.78 C7.24 -4.52, 6.26 -4.76, 5.45 -4.76 C4.65 -4.76, 3.71 -4.89, 2.99 -4.78 C2.28 -4.68, 1.65 -4.54, 1.16 -4.15 C0.66 -3.76, 0.23 -3.13, 0.04 -2.44 C-0.16 -1.75, 0.01 -0.41, 0 0 M0 0 C-0.32 0, -1.39 0.21, -1.92 -0.01 C-2.46 -0.22, -2.9 -0.63, -3.19 -1.28 C-3.49 -1.94, -3.7 -3.1, -3.71 -3.96 C-3.71 -4.82, -3.58 -5.78, -3.23 -6.45 C-2.88 -7.12, -2.38 -7.7, -1.62 -7.98 C-0.86 -8.26, 0.31 -8.12, 1.31 -8.13 C2.31 -8.13, 3.67 -8.02, 4.37 -8.02 C5.06 -8.02, 5.36 -7.93, 5.48 -8.13 C5.6 -8.33, 5.8 -9.01, 5.07 -9.23 C4.34 -9.45, 1.84 -9.26, 1.1 -9.43 C0.36 -9.61, 0.66 -9.87, 0.63 -10.3 C0.61 -10.73, 0.6 -11.55, 0.97 -11.99 C1.34 -12.44, 2.03 -12.77, 2.86 -12.94 C3.7 -13.12, 5.09 -13.17, 5.99 -13.06 C6.89 -12.95, 7.71 -12.63, 8.25 -12.28 C8.79 -11.93, 9.05 -11.55, 9.23 -10.97 C9.4 -10.4, 9.36 -9.58, 9.32 -8.81 C9.28 -8.04, 9.25 -7.04, 9 -6.37 C8.76 -5.7, 8.42 -5.05, 7.83 -4.78 C7.24 -4.52, 6.26 -4.76, 5.45 -4.76 C4.65 -4.76, 3.71 -4.89, 2.99 -4.78 C2.28 -4.68, 1.65 -4.54, 1.16 -4.15 C0.66 -3.76, 0.23 -3.13, 0.04 -2.44 C-0.16 -1.75, 0.01 -0.41, 0 0" stroke="#000" stroke-width="2" fill="none"></path></g></g><mask></mask><g stroke-linecap="round" transform="translate(218.82231359987782 359.8962907690983) rotate(0 0.8247156300696474 0.8791741922143501)"><path d="M1.65 0.88 C1.65 0.93, 1.65 0.98, 1.64 1.03 C1.63 1.08, 1.62 1.13, 1.6 1.18 C1.58 1.23, 1.56 1.27, 1.54 1.32 C1.52 1.36, 1.49 1.41, 1.46 1.44 C1.43 1.48, 1.39 1.52, 1.35 1.55 C1.32 1.59, 1.28 1.62, 1.24 1.64 C1.2 1.67, 1.15 1.69, 1.11 1.71 C1.06 1.72, 1.01 1.74, 0.97 1.74 C0.92 1.75, 0.87 1.76, 0.82 1.76 C0.78 1.76, 0.73 1.75, 0.68 1.74 C0.63 1.74, 0.59 1.72, 0.54 1.71 C0.5 1.69, 0.45 1.67, 0.41 1.64 C0.37 1.62, 0.33 1.59, 0.29 1.55 C0.26 1.52, 0.22 1.48, 0.19 1.44 C0.16 1.41, 0.13 1.36, 0.11 1.32 C0.09 1.27, 0.07 1.23, 0.05 1.18 C0.03 1.13, 0.02 1.08, 0.01 1.03 C0 0.98, 0 0.93, 0 0.88 C0 0.83, 0 0.78, 0.01 0.73 C0.02 0.68, 0.03 0.63, 0.05 0.58 C0.07 0.53, 0.09 0.48, 0.11 0.44 C0.13 0.4, 0.16 0.35, 0.19 0.31 C0.22 0.28, 0.26 0.24, 0.29 0.21 C0.33 0.17, 0.37 0.14, 0.41 0.12 C0.45 0.09, 0.5 0.07, 0.54 0.05 C0.59 0.04, 0.63 0.02, 0.68 0.01 C0.73 0, 0.78 0, 0.82 0 C0.87 0, 0.92 0, 0.97 0.01 C1.01 0.02, 1.06 0.04, 1.11 0.05 C1.15 0.07, 1.2 0.09, 1.24 0.12 C1.28 0.14, 1.32 0.17, 1.35 0.21 C1.39 0.24, 1.43 0.28, 1.46 0.31 C1.49 0.35, 1.52 0.4, 1.54 0.44 C1.56 0.48, 1.58 0.53, 1.6 0.58 C1.62 0.63, 1.63 0.68, 1.64 0.73 C1.65 0.78, 1.65 0.85, 1.65 0.88 C1.65 0.9, 1.65 0.85, 1.65 0.88" stroke="none" stroke-width="0" fill="#fff"></path><path d="M1.65 0.88 C1.65 0.93, 1.65 0.98, 1.64 1.03 C1.63 1.08, 1.62 1.13, 1.6 1.18 C1.58 1.23, 1.56 1.27, 1.54 1.32 C1.52 1.36, 1.49 1.41, 1.46 1.44 C1.43 1.48, 1.39 1.52, 1.35 1.55 C1.32 1.59, 1.28 1.62, 1.24 1.64 C1.2 1.67, 1.15 1.69, 1.11 1.71 C1.06 1.72, 1.01 1.74, 0.97 1.74 C0.92 1.75, 0.87 1.76, 0.82 1.76 C0.78 1.76, 0.73 1.75, 0.68 1.74 C0.63 1.74, 0.59 1.72, 0.54 1.71 C0.5 1.69, 0.45 1.67, 0.41 1.64 C0.37 1.62, 0.33 1.59, 0.29 1.55 C0.26 1.52, 0.22 1.48, 0.19 1.44 C0.16 1.41, 0.13 1.36, 0.11 1.32 C0.09 1.27, 0.07 1.23, 0.05 1.18 C0.03 1.13, 0.02 1.08, 0.01 1.03 C0 0.98, 0 0.93, 0 0.88 C0 0.83, 0 0.78, 0.01 0.73 C0.02 0.68, 0.03 0.63, 0.05 0.58 C0.07 0.53, 0.09 0.48, 0.11 0.44 C0.13 0.4, 0.16 0.35, 0.19 0.31 C0.22 0.28, 0.26 0.24, 0.29 0.21 C0.33 0.17, 0.37 0.14, 0.41 0.12 C0.45 0.09, 0.5 0.07, 0.54 0.05 C0.59 0.04, 0.63 0.02, 0.68 0.01 C0.73 0, 0.78 0, 0.82 0 C0.87 0, 0.92 0, 0.97 0.01 C1.01 0.02, 1.06 0.04, 1.11 0.05 C1.15 0.07, 1.2 0.09, 1.24 0.12 C1.28 0.14, 1.32 0.17, 1.35 0.21 C1.39 0.24, 1.43 0.28, 1.46 0.31 C1.49 0.35, 1.52 0.4, 1.54 0.44 C1.56 0.48, 1.58 0.53, 1.6 0.58 C1.62 0.63, 1.63 0.68, 1.64 0.73 C1.65 0.78, 1.65 0.85, 1.65 0.88 C1.65 0.9, 1.65 0.85, 1.65 0.88" stroke="#000" stroke-width="1" fill="none"></path></g><g stroke-linecap="round" transform="translate(219.37687088639382 373.74802720505966) rotate(0 0.8247156300696474 0.8791741922143501)"><path d="M1.65 0.88 C1.65 0.93, 1.65 0.98, 1.64 1.03 C1.63 1.08, 1.62 1.13, 1.6 1.18 C1.58 1.23, 1.56 1.27, 1.54 1.32 C1.52 1.36, 1.49 1.41, 1.46 1.44 C1.43 1.48, 1.39 1.52, 1.35 1.55 C1.32 1.59, 1.28 1.62, 1.24 1.64 C1.2 1.67, 1.15 1.69, 1.11 1.71 C1.06 1.72, 1.01 1.74, 0.97 1.74 C0.92 1.75, 0.87 1.76, 0.82 1.76 C0.78 1.76, 0.73 1.75, 0.68 1.74 C0.63 1.74, 0.59 1.72, 0.54 1.71 C0.5 1.69, 0.45 1.67, 0.41 1.64 C0.37 1.62, 0.33 1.59, 0.29 1.55 C0.26 1.52, 0.22 1.48, 0.19 1.44 C0.16 1.41, 0.13 1.36, 0.11 1.32 C0.09 1.27, 0.07 1.23, 0.05 1.18 C0.03 1.13, 0.02 1.08, 0.01 1.03 C0 0.98, 0 0.93, 0 0.88 C0 0.83, 0 0.78, 0.01 0.73 C0.02 0.68, 0.03 0.63, 0.05 0.58 C0.07 0.53, 0.09 0.48, 0.11 0.44 C0.13 0.4, 0.16 0.35, 0.19 0.31 C0.22 0.28, 0.26 0.24, 0.29 0.21 C0.33 0.17, 0.37 0.14, 0.41 0.12 C0.45 0.09, 0.5 0.07, 0.54 0.05 C0.59 0.04, 0.63 0.02, 0.68 0.01 C0.73 0, 0.78 0, 0.82 0 C0.87 0, 0.92 0, 0.97 0.01 C1.01 0.02, 1.06 0.04, 1.11 0.05 C1.15 0.07, 1.2 0.09, 1.24 0.12 C1.28 0.14, 1.32 0.17, 1.35 0.21 C1.39 0.24, 1.43 0.28, 1.46 0.31 C1.49 0.35, 1.52 0.4, 1.54 0.44 C1.56 0.48, 1.58 0.53, 1.6 0.58 C1.62 0.63, 1.63 0.68, 1.64 0.73 C1.65 0.78, 1.65 0.85, 1.65 0.88 C1.65 0.9, 1.65 0.85, 1.65 0.88" stroke="none" stroke-width="0" fill="#fff"></path><path d="M1.65 0.88 C1.65 0.93, 1.65 0.98, 1.64 1.03 C1.63 1.08, 1.62 1.13, 1.6 1.18 C1.58 1.23, 1.56 1.27, 1.54 1.32 C1.52 1.36, 1.49 1.41, 1.46 1.44 C1.43 1.48, 1.39 1.52, 1.35 1.55 C1.32 1.59, 1.28 1.62, 1.24 1.64 C1.2 1.67, 1.15 1.69, 1.11 1.71 C1.06 1.72, 1.01 1.74, 0.97 1.74 C0.92 1.75, 0.87 1.76, 0.82 1.76 C0.78 1.76, 0.73 1.75, 0.68 1.74 C0.63 1.74, 0.59 1.72, 0.54 1.71 C0.5 1.69, 0.45 1.67, 0.41 1.64 C0.37 1.62, 0.33 1.59, 0.29 1.55 C0.26 1.52, 0.22 1.48, 0.19 1.44 C0.16 1.41, 0.13 1.36, 0.11 1.32 C0.09 1.27, 0.07 1.23, 0.05 1.18 C0.03 1.13, 0.02 1.08, 0.01 1.03 C0 0.98, 0 0.93, 0 0.88 C0 0.83, 0 0.78, 0.01 0.73 C0.02 0.68, 0.03 0.63, 0.05 0.58 C0.07 0.53, 0.09 0.48, 0.11 0.44 C0.13 0.4, 0.16 0.35, 0.19 0.31 C0.22 0.28, 0.26 0.24, 0.29 0.21 C0.33 0.17, 0.37 0.14, 0.41 0.12 C0.45 0.09, 0.5 0.07, 0.54 0.05 C0.59 0.04, 0.63 0.02, 0.68 0.01 C0.73 0, 0.78 0, 0.82 0 C0.87 0, 0.92 0, 0.97 0.01 C1.01 0.02, 1.06 0.04, 1.11 0.05 C1.15 0.07, 1.2 0.09, 1.24 0.12 C1.28 0.14, 1.32 0.17, 1.35 0.21 C1.39 0.24, 1.43 0.28, 1.46 0.31 C1.49 0.35, 1.52 0.4, 1.54 0.44 C1.56 0.48, 1.58 0.53, 1.6 0.58 C1.62 0.63, 1.63 0.68, 1.64 0.73 C1.65 0.78, 1.65 0.85, 1.65 0.88 C1.65 0.9, 1.65 0.85, 1.65 0.88" stroke="#000" stroke-width="1" fill="none"></path></g></svg>