<svg xmlns="http://www.w3.org/2000/svg" xmlns:xlink="http://www.w3.org/1999/xlink" xmlns:lucid="lucid" width="1461" height="989"><g transform="translate(160.50000002089936 220.50000000787392)" lucid:page-tab-id="0_0"><path d="M840 44.66a5 5 0 0 1 5-5h270a5 5 0 0 1 5 5v62a5 5 0 0 1-5 5H845a5 5 0 0 1-5-5z" fill="#fff"/><path d="M840 79.66v-35a5 5 0 0 1 5-5h270a5 5 0 0 1 5 5v35" fill="#dedeff"/><path d="M840 44.66a5 5 0 0 1 5-5h270a5 5 0 0 1 5 5v62a5 5 0 0 1-5 5H845a5 5 0 0 1-5-5zM840 79.66h280M980 79.66v32" stroke="#282c33" fill="none"/><use xlink:href="#a" transform="matrix(1,0,0,1,850,39.66245342247362) translate(0 23.6)"/><use xlink:href="#b" transform="matrix(1,0,0,1,845,82.16245342247362) translate(0 17.1)"/><use xlink:href="#c" transform="matrix(1,0,0,1,845,82.16245342247362) translate(96.80000000000001 17.1)"/><use xlink:href="#d" transform="matrix(1,0,0,1,985,82.16245342247362) translate(0 17.1)"/><path d="M640 345a5 5 0 0 1 5-5h270a5 5 0 0 1 5 5v126a5 5 0 0 1-5 5H645a5 5 0 0 1-5-5z" fill="#fff"/><path d="M640 380v-35a5 5 0 0 1 5-5h270a5 5 0 0 1 5 5v35" fill="#dedeff"/><path d="M640 345a5 5 0 0 1 5-5h270a5 5 0 0 1 5 5v126a5 5 0 0 1-5 5H645a5 5 0 0 1-5-5zM640 380h280M780 380v96" stroke="#282c33" fill="none"/><use xlink:href="#e" transform="matrix(1,0,0,1,650,340) translate(0 23.6)"/><use xlink:href="#b" transform="matrix(1,0,0,1,645,382.5) translate(0 17.1)"/><use xlink:href="#c" transform="matrix(1,0,0,1,645,382.5) translate(96.80000000000001 17.1)"/><use xlink:href="#f" transform="matrix(1,0,0,1,785,382.5) translate(0 17.1)"/><use xlink:href="#g" transform="matrix(1,0,0,1,645,414.5) translate(0 17.1)"/><use xlink:href="#c" transform="matrix(1,0,0,1,645,414.5) translate(106.85000000000001 17.1)"/><use xlink:href="#f" transform="matrix(1,0,0,1,785,414.5) translate(0 17.1)"/><use xlink:href="#h" transform="matrix(1,0,0,1,645,446.5) translate(0 17.1)"/><use xlink:href="#c" transform="matrix(1,0,0,1,645,446.5) translate(103.80000000000001 17.1)"/><use xlink:href="#d" transform="matrix(1,0,0,1,785,446.5) translate(0 17.1)"/><path d="M300 28.66a5 5 0 0 1 5-5h249.5a5 5 0 0 1 5 5v126a5 5 0 0 1-5 5H305a5 5 0 0 1-5-5z" fill="#fff"/><path d="M300 63.66v-35a5 5 0 0 1 5-5h249.5a5 5 0 0 1 5 5v35" fill="#dedeff"/><path d="M300 28.66a5 5 0 0 1 5-5h249.5a5 5 0 0 1 5 5v126a5 5 0 0 1-5 5H305a5 5 0 0 1-5-5zM300 63.66h259.5M438.28 63.66v96" stroke="#282c33" fill="none"/><use xlink:href="#i" transform="matrix(1,0,0,1,310,23.662453422473618) translate(0 23.6)"/><use xlink:href="#g" transform="matrix(1,0,0,1,305,66.16245342247362) translate(0 17.1)"/><use xlink:href="#c" transform="matrix(1,0,0,1,305,66.16245342247362) translate(106.85000000000001 17.1)"/><use xlink:href="#d" transform="matrix(1,0,0,1,443.27983457586146,66.16245342247362) translate(0 17.1)"/><use xlink:href="#j" transform="matrix(1,0,0,1,305,98.16245342247362) translate(0 17.1)"/><use xlink:href="#k" transform="matrix(1,0,0,1,443.27983457586146,98.16245342247362) translate(0 17.1)"/><use xlink:href="#j" transform="matrix(1,0,0,1,305,130.16245342247362) translate(0 17.1)"/><use xlink:href="#k" transform="matrix(1,0,0,1,443.27983457586146,130.16245342247362) translate(0 17.1)"/><path d="M1020 345a5 5 0 0 1 5-5h270a5 5 0 0 1 5 5v190a5 5 0 0 1-5 5h-270a5 5 0 0 1-5-5z" fill="#fff"/><path d="M1020 380v-35a5 5 0 0 1 5-5h270a5 5 0 0 1 5 5v35" fill="#dedeff"/><path d="M1020 345a5 5 0 0 1 5-5h270a5 5 0 0 1 5 5v190a5 5 0 0 1-5 5h-270a5 5 0 0 1-5-5zM1020 380h280M1160 380v160" stroke="#282c33" fill="none"/><use xlink:href="#l" transform="matrix(1,0,0,1,1030,340) translate(0 23.6)"/><use xlink:href="#b" transform="matrix(1,0,0,1,1025,382.5) translate(0 17.1)"/><use xlink:href="#c" transform="matrix(1,0,0,1,1025,382.5) translate(96.80000000000001 17.1)"/><use xlink:href="#f" transform="matrix(1,0,0,1,1165,382.5) translate(0 17.1)"/><use xlink:href="#m" transform="matrix(1,0,0,1,1025,414.5) translate(0 17.1)"/><use xlink:href="#c" transform="matrix(1,0,0,1,1025,414.5) translate(105.85000000000001 17.1)"/><use xlink:href="#d" transform="matrix(1,0,0,1,1165,414.5) translate(0 17.1)"/><use xlink:href="#n" transform="matrix(1,0,0,1,1025,446.5) translate(0 17.1)"/><use xlink:href="#k" transform="matrix(1,0,0,1,1165,446.5) translate(0 17.1)"/><use xlink:href="#o" transform="matrix(1,0,0,1,1025,478.5) translate(0 17.1)"/><use xlink:href="#p" transform="matrix(1,0,0,1,1025,478.5) translate(47.95 17.1)"/><use xlink:href="#k" transform="matrix(1,0,0,1,1165,478.5) translate(0 17.1)"/><use xlink:href="#q" transform="matrix(1,0,0,1,1025,510.5) translate(0 17.1)"/><use xlink:href="#k" transform="matrix(1,0,0,1,1165,510.5) translate(0 17.1)"/><path d="M1020 605a5 5 0 0 1 5-5h270a5 5 0 0 1 5 5v158a5 5 0 0 1-5 5h-270a5 5 0 0 1-5-5z" fill="#fff"/><path d="M1020 640v-35a5 5 0 0 1 5-5h270a5 5 0 0 1 5 5v35" fill="#dedeff"/><path d="M1020 605a5 5 0 0 1 5-5h270a5 5 0 0 1 5 5v158a5 5 0 0 1-5 5h-270a5 5 0 0 1-5-5zM1020 640h280M1160 640v128" stroke="#282c33" fill="none"/><use xlink:href="#r" transform="matrix(1,0,0,1,1030,600) translate(0 23.6)"/><use xlink:href="#b" transform="matrix(1,0,0,1,1025,642.5) translate(0 17.1)"/><use xlink:href="#c" transform="matrix(1,0,0,1,1025,642.5) translate(96.80000000000001 17.1)"/><use xlink:href="#f" transform="matrix(1,0,0,1,1165,642.5) translate(0 17.1)"/><use xlink:href="#m" transform="matrix(1,0,0,1,1025,674.5) translate(0 17.1)"/><use xlink:href="#c" transform="matrix(1,0,0,1,1025,674.5) translate(105.85000000000001 17.1)"/><use xlink:href="#f" transform="matrix(1,0,0,1,1165,674.5) translate(0 17.1)"/><use xlink:href="#h" transform="matrix(1,0,0,1,1025,706.5) translate(0 17.1)"/><use xlink:href="#c" transform="matrix(1,0,0,1,1025,706.5) translate(103.80000000000001 17.1)"/><use xlink:href="#f" transform="matrix(1,0,0,1,1165,706.5) translate(0 17.1)"/><use xlink:href="#o" transform="matrix(1,0,0,1,1025,738.5) translate(0 17.1)"/><use xlink:href="#c" transform="matrix(1,0,0,1,1025,738.5) translate(47.95 17.1)"/><use xlink:href="#d" transform="matrix(1,0,0,1,1165,738.5) translate(0 17.1)"/><path d="M-160 28.66a5 5 0 0 1 5-5h270a5 5 0 0 1 5 5v94a5 5 0 0 1-5 5h-270a5 5 0 0 1-5-5z" fill="#fff"/><path d="M-160 63.66v-35a5 5 0 0 1 5-5h270a5 5 0 0 1 5 5v35" fill="#dedeff"/><path d="M-160 28.66a5 5 0 0 1 5-5h270a5 5 0 0 1 5 5v94a5 5 0 0 1-5 5h-270a5 5 0 0 1-5-5zM-160 63.66h280M-20 63.66v64" stroke="#282c33" fill="none"/><use xlink:href="#s" transform="matrix(1,0,0,1,-150,23.662453422473618) translate(0 23.6)"/><use xlink:href="#t" transform="matrix(1,0,0,1,-155,66.16245342247362) translate(0 17.1)"/><use xlink:href="#c" transform="matrix(1,0,0,1,-155,66.16245342247362) translate(42.900000000000006 17.1)"/><use xlink:href="#d" transform="matrix(1,0,0,1,-15,66.16245342247362) translate(0 17.1)"/><use xlink:href="#j" transform="matrix(1,0,0,1,-155,98.16245342247362) translate(0 17.1)"/><use xlink:href="#k" transform="matrix(1,0,0,1,-15,98.16245342247362) translate(0 17.1)"/><path d="M-20 148.16v239.67a12 12 0 0 0 12 12h28.1" stroke="#3a414a" fill="none"/><path d="M-30 148.16h20M-20 128.16v20" stroke="#3a414a" fill="#fff"/><path d="M39.28 409.83l-20-10 20-10" stroke="#3a414a" fill="#fff" fill-opacity="0"/><path d="M39.28 399.83h-20" stroke="#3a414a" fill="#fff"/><path d="M819.4-200H968a12 12 0 0 1 12 12V19.16" stroke="#3a414a" fill="none"/><path d="M800.22-210l20 10-20 10" stroke="#3a414a" fill="#fff" fill-opacity="0"/><path d="M800.22-200h20M990 19.16h-20M980 39.16v-20" stroke="#3a414a" fill="#fff"/><path d="M980 132.16v81.67a12 12 0 0 1-12 12H792a12 12 0 0 0-12 12v82.26" stroke="#3a414a" fill="none"/><path d="M970 132.16h20M980 112.16v20" stroke="#3a414a" fill="#fff"/><path d="M770 339.28l10-20 10 20" stroke="#3a414a" fill="#fff" fill-opacity="0"/><path d="M780 339.28v-20" stroke="#3a414a" fill="#fff"/><path d="M980 132.16v81.67a12 12 0 0 0 12 12h156a12 12 0 0 1 12 12v82.26" stroke="#3a414a" fill="none"/><path d="M970 132.16h20M980 112.16v20" stroke="#3a414a" fill="#fff"/><path d="M1150 339.28l10-20 10 20" stroke="#3a414a" fill="#fff" fill-opacity="0"/><path d="M1160 339.28v-20" stroke="#3a414a" fill="#fff"/><path d="M429.75 180.16v207.67a12 12 0 0 1-12 12H339.9" stroke="#3a414a" fill="none"/><path d="M419.75 180.16h20M429.75 160.16v20" stroke="#3a414a" fill="#fff"/><path d="M320.72 389.83l20 10-20 10" stroke="#3a414a" fill="#fff" fill-opacity="0"/><path d="M320.72 399.83h20" stroke="#3a414a" fill="#fff"/><path d="M40 385a5 5 0 0 1 5-5h270a5 5 0 0 1 5 5v126a5 5 0 0 1-5 5H45a5 5 0 0 1-5-5z" fill="#fff"/><path d="M40 420v-35a5 5 0 0 1 5-5h270a5 5 0 0 1 5 5v35" fill="#dedeff"/><path d="M40 385a5 5 0 0 1 5-5h270a5 5 0 0 1 5 5v126a5 5 0 0 1-5 5H45a5 5 0 0 1-5-5zM40 420h280M180 420v96" stroke="#282c33" fill="none"/><use xlink:href="#u" transform="matrix(1,0,0,1,50,380) translate(0 23.6)"/><use xlink:href="#t" transform="matrix(1,0,0,1,45,422.5) translate(0 17.1)"/><use xlink:href="#c" transform="matrix(1,0,0,1,45,422.5) translate(42.900000000000006 17.1)"/><use xlink:href="#d" transform="matrix(1,0,0,1,185,422.5) translate(0 17.1)"/><use xlink:href="#g" transform="matrix(1,0,0,1,45,454.5) translate(0 17.1)"/><use xlink:href="#c" transform="matrix(1,0,0,1,45,454.5) translate(106.85000000000001 17.1)"/><use xlink:href="#d" transform="matrix(1,0,0,1,185,454.5) translate(0 17.1)"/><use xlink:href="#v" transform="matrix(1,0,0,1,45,486.5) translate(0 17.1)"/><use xlink:href="#k" transform="matrix(1,0,0,1,185,486.5) translate(0 17.1)"/><path d="M540-215a5 5 0 0 1 5-5h249.5a5 5 0 0 1 5 5v126a5 5 0 0 1-5 5H545a5 5 0 0 1-5-5z" fill="#fff"/><path d="M540-180v-35a5 5 0 0 1 5-5h249.5a5 5 0 0 1 5 5v35" fill="#dedeff"/><path d="M540-215a5 5 0 0 1 5-5h249.5a5 5 0 0 1 5 5v126a5 5 0 0 1-5 5H545a5 5 0 0 1-5-5zM540-180h259.5M678.28-180v96" stroke="#282c33" fill="none"/><use xlink:href="#w" transform="matrix(1,0,0,1,550,-220) translate(0 23.6)"/><use xlink:href="#g" transform="matrix(1,0,0,1,545,-177.5) translate(0 17.1)"/><use xlink:href="#c" transform="matrix(1,0,0,1,545,-177.5) translate(106.85000000000001 17.1)"/><use xlink:href="#d" transform="matrix(1,0,0,1,683.2798345758615,-177.5) translate(0 17.1)"/><use xlink:href="#b" transform="matrix(1,0,0,1,545,-145.5) translate(0 17.1)"/><use xlink:href="#c" transform="matrix(1,0,0,1,545,-145.5) translate(96.80000000000001 17.1)"/><use xlink:href="#d" transform="matrix(1,0,0,1,683.2798345758615,-145.5) translate(0 17.1)"/><use xlink:href="#j" transform="matrix(1,0,0,1,545,-113.5) translate(0 17.1)"/><use xlink:href="#k" transform="matrix(1,0,0,1,683.2798345758615,-113.5) translate(0 17.1)"/><path d="M428.5 3.16V-188.2a12 12 0 0 1 12-12h79.6" stroke="#3a414a" fill="none"/><path d="M438.5 3.16h-20M428.5 23.16v-20" stroke="#3a414a" fill="#fff"/><path d="M539.28-190.2l-20-10 20-10" stroke="#3a414a" fill="#fff" fill-opacity="0"/><path d="M539.28-200.2h-20" stroke="#3a414a" fill="#fff"/><path d="M1160 560.5v19.6" stroke="#3a414a" fill="none"/><path d="M1150 560.5h20M1160 540.5v20" stroke="#3a414a" fill="#fff"/><path d="M1150 599.28l10-20 10 20" stroke="#3a414a" fill="#fff" fill-opacity="0"/><path d="M1160 599.28v-20" stroke="#3a414a" fill="#fff"/><path d="M640 605a5 5 0 0 1 5-5h270a5 5 0 0 1 5 5v158a5 5 0 0 1-5 5H645a5 5 0 0 1-5-5z" fill="#fff"/><path d="M640 640v-35a5 5 0 0 1 5-5h270a5 5 0 0 1 5 5v35" fill="#dedeff"/><path d="M640 605a5 5 0 0 1 5-5h270a5 5 0 0 1 5 5v158a5 5 0 0 1-5 5H645a5 5 0 0 1-5-5zM640 640h280M780 640v128" stroke="#282c33" fill="none"/><g><use xlink:href="#x" transform="matrix(1,0,0,1,650,600) translate(0 23.6)"/></g><g><use xlink:href="#y" transform="matrix(1,0,0,1,645,642.5) translate(0 17.1)"/><use xlink:href="#c" transform="matrix(1,0,0,1,645,642.5) translate(85.80000000000001 17.1)"/></g><g><use xlink:href="#d" transform="matrix(1,0,0,1,785,642.5) translate(0 17.1)"/></g><g><use xlink:href="#h" transform="matrix(1,0,0,1,645,674.5) translate(0 17.1)"/><use xlink:href="#c" transform="matrix(1,0,0,1,645,674.5) translate(103.80000000000001 17.1)"/></g><g><use xlink:href="#f" transform="matrix(1,0,0,1,785,674.5) translate(0 17.1)"/></g><g><use xlink:href="#z" transform="matrix(1,0,0,1,645,706.5) translate(0 17.1)"/></g><g><use xlink:href="#A" transform="matrix(1,0,0,1,785,706.5) translate(0 17.1)"/></g><g><use xlink:href="#B" transform="matrix(1,0,0,1,645,738.5) translate(0 17.1)"/><use xlink:href="#C" transform="matrix(1,0,0,1,645,738.5) translate(65.9 17.1)"/></g><g><use xlink:href="#D" transform="matrix(1,0,0,1,785,738.5) translate(0 17.1)"/></g><path d="M780 496.5V560" stroke="#3a414a" fill="none"/><path d="M770 496.5h20M780 476.5v20M790 589.5h-20M780 599.5v-20M790 569.5c0 5.52-4.48 10-10 10s-10-4.48-10-10 4.48-10 10-10 10 4.48 10 10" stroke="#3a414a" fill="#fff"/><defs><path fill="#333" d="M212-179c-10-28-35-45-73-45-59 0-87 40-87 99 0 60 29 101 89 101 43 0 62-24 78-52l27 14C228-24 195 4 139 4 59 4 22-46 18-125c-6-104 99-153 187-111 19 9 31 26 39 46" id="E"/><path fill="#333" d="M100-194c62-1 85 37 85 99 1 63-27 99-86 99S16-35 15-95c0-66 28-99 85-99zM99-20c44 1 53-31 53-75 0-43-8-75-51-75s-53 32-53 75 10 74 51 75" id="F"/><path fill="#333" d="M117-194c89-4 53 116 60 194h-32v-121c0-31-8-49-39-48C34-167 62-67 57 0H25l-1-190h30c1 10-1 24 2 32 11-22 29-35 61-36" id="G"/><path fill="#333" d="M135-143c-3-34-86-38-87 0 15 53 115 12 119 90S17 21 10-45l28-5c4 36 97 45 98 0-10-56-113-15-118-90-4-57 82-63 122-42 12 7 21 19 24 35" id="H"/><path fill="#333" d="M114-163C36-179 61-72 57 0H25l-1-190h30c1 12-1 29 2 39 6-27 23-49 58-41v29" id="I"/><path fill="#333" d="M59-47c-2 24 18 29 38 22v24C64 9 27 4 27-40v-127H5v-23h24l9-43h21v43h35v23H59v120" id="J"/><path fill="#333" d="M24-231v-30h32v30H24zM24 0v-190h32V0H24" id="K"/><path fill="#333" d="M84 4C-5 8 30-112 23-190h32v120c0 31 7 50 39 49 72-2 45-101 50-169h31l1 190h-30c-1-10 1-25-2-33-11 22-28 36-60 37" id="L"/><path fill="#333" d="M210-169c-67 3-38 105-44 169h-31v-121c0-29-5-50-35-48C34-165 62-65 56 0H25l-1-190h30c1 10-1 24 2 32 10-44 99-50 107 0 11-21 27-35 58-36 85-2 47 119 55 194h-31v-121c0-29-5-49-35-48" id="M"/><g id="a"><use transform="matrix(0.05,0,0,0.05,0,0)" xlink:href="#E"/><use transform="matrix(0.05,0,0,0.05,12.950000000000001,0)" xlink:href="#F"/><use transform="matrix(0.05,0,0,0.05,22.950000000000003,0)" xlink:href="#G"/><use transform="matrix(0.05,0,0,0.05,32.95,0)" xlink:href="#H"/><use transform="matrix(0.05,0,0,0.05,41.95,0)" xlink:href="#F"/><use transform="matrix(0.05,0,0,0.05,51.95,0)" xlink:href="#I"/><use transform="matrix(0.05,0,0,0.05,57.900000000000006,0)" xlink:href="#J"/><use transform="matrix(0.05,0,0,0.05,62.900000000000006,0)" xlink:href="#K"/><use transform="matrix(0.05,0,0,0.05,66.85000000000001,0)" xlink:href="#L"/><use transform="matrix(0.05,0,0,0.05,76.85000000000001,0)" xlink:href="#M"/></g><g id="b"><use transform="matrix(0.05,0,0,0.05,0,0)" xlink:href="#E"/><use transform="matrix(0.05,0,0,0.05,12.950000000000001,0)" xlink:href="#F"/><use transform="matrix(0.05,0,0,0.05,22.950000000000003,0)" xlink:href="#G"/><use transform="matrix(0.05,0,0,0.05,32.95,0)" xlink:href="#H"/><use transform="matrix(0.05,0,0,0.05,41.95,0)" xlink:href="#F"/><use transform="matrix(0.05,0,0,0.05,51.95,0)" xlink:href="#I"/><use transform="matrix(0.05,0,0,0.05,57.900000000000006,0)" xlink:href="#J"/><use transform="matrix(0.05,0,0,0.05,62.900000000000006,0)" xlink:href="#K"/><use transform="matrix(0.05,0,0,0.05,66.85000000000001,0)" xlink:href="#L"/><use transform="matrix(0.05,0,0,0.05,76.85000000000001,0)" xlink:href="#M"/></g><path fill="#333" d="M33 0v-248h34V0H33" id="N"/><path fill="#333" d="M30-248c118-7 216 8 213 122C240-48 200 0 122 0H30v-248zM63-27c89 8 146-16 146-99s-60-101-146-95v194" id="O"/><g id="c"><use transform="matrix(0.05,0,0,0.05,0,0)" xlink:href="#N"/><use transform="matrix(0.05,0,0,0.05,5,0)" xlink:href="#O"/></g><path fill="#333" d="M30-248c87 1 191-15 191 75 0 78-77 80-158 76V0H30v-248zm33 125c57 0 124 11 124-50 0-59-68-47-124-48v98" id="P"/><path fill="#333" d="M194 0L95-120 63-95V0H30v-248h33v124l119-124h40L117-140 236 0h-42" id="Q"/><g id="d"><use transform="matrix(0.05,0,0,0.05,0,0)" xlink:href="#P"/><use transform="matrix(0.05,0,0,0.05,12,0)" xlink:href="#Q"/></g><path fill="#333" d="M240 0l2-218c-23 76-54 145-80 218h-23L58-218 59 0H30v-248h44l77 211c21-75 51-140 76-211h43V0h-30" id="R"/><path fill="#333" d="M100-194c63 0 86 42 84 106H49c0 40 14 67 53 68 26 1 43-12 49-29l28 8c-11 28-37 45-77 45C44 4 14-33 15-96c1-61 26-98 85-98zm52 81c6-60-76-77-97-28-3 7-6 17-6 28h103" id="S"/><path fill="#333" d="M115-194c53 0 69 39 70 98 0 66-23 100-70 100C84 3 66-7 56-30L54 0H23l1-261h32v101c10-23 28-34 59-34zm-8 174c40 0 45-34 45-75 0-40-5-75-45-74-42 0-51 32-51 76 0 43 10 73 51 73" id="T"/><path fill="#333" d="M106-169C34-169 62-67 57 0H25v-261h32l-1 103c12-21 28-36 61-36 89 0 53 116 60 194h-32v-121c2-32-8-49-39-48" id="U"/><path fill="#333" d="M115-194c55 1 70 41 70 98S169 2 115 4C84 4 66-9 55-30l1 105H24l-1-265h31l2 30c10-21 28-34 59-34zm-8 174c40 0 45-34 45-75s-6-73-45-74c-42 0-51 32-51 76 0 43 10 73 51 73" id="V"/><g id="e"><use transform="matrix(0.05,0,0,0.05,0,0)" xlink:href="#R"/><use transform="matrix(0.05,0,0,0.05,14.950000000000001,0)" xlink:href="#S"/><use transform="matrix(0.05,0,0,0.05,24.950000000000003,0)" xlink:href="#M"/><use transform="matrix(0.05,0,0,0.05,39.900000000000006,0)" xlink:href="#T"/><use transform="matrix(0.05,0,0,0.05,49.900000000000006,0)" xlink:href="#S"/><use transform="matrix(0.05,0,0,0.05,59.900000000000006,0)" xlink:href="#I"/><use transform="matrix(0.05,0,0,0.05,65.85000000000001,0)" xlink:href="#H"/><use transform="matrix(0.05,0,0,0.05,74.85000000000001,0)" xlink:href="#U"/><use transform="matrix(0.05,0,0,0.05,84.85000000000001,0)" xlink:href="#K"/><use transform="matrix(0.05,0,0,0.05,88.80000000000001,0)" xlink:href="#V"/></g><path fill="#333" d="M63-220v92h138v28H63V0H30v-248h175v28H63" id="W"/><g id="f"><use transform="matrix(0.05,0,0,0.05,0,0)" xlink:href="#W"/><use transform="matrix(0.05,0,0,0.05,10.950000000000001,0)" xlink:href="#Q"/></g><path fill="#333" d="M140-251c81 0 123 46 123 126C263-46 219 4 140 4 59 4 17-45 17-125s42-126 123-126zm0 227c63 0 89-41 89-101s-29-99-89-99c-61 0-89 39-89 99S79-25 140-24" id="X"/><path fill="#333" d="M177-190C167-65 218 103 67 71c-23-6-38-20-44-43l32-5c15 47 100 32 89-28v-30C133-14 115 1 83 1 29 1 15-40 15-95c0-56 16-97 71-98 29-1 48 16 59 35 1-10 0-23 2-32h30zM94-22c36 0 50-32 50-73 0-42-14-75-50-75-39 0-46 34-46 75s6 73 46 73" id="Y"/><path fill="#333" d="M141-36C126-15 110 5 73 4 37 3 15-17 15-53c-1-64 63-63 125-63 3-35-9-54-41-54-24 1-41 7-42 31l-33-3c5-37 33-52 76-52 45 0 72 20 72 64v82c-1 20 7 32 28 27v20c-31 9-61-2-59-35zM48-53c0 20 12 33 32 33 41-3 63-29 60-74-43 2-92-5-92 41" id="Z"/><path fill="#333" d="M9 0v-24l116-142H16v-24h144v24L44-24h123V0H9" id="aa"/><g id="g"><use transform="matrix(0.05,0,0,0.05,0,0)" xlink:href="#X"/><use transform="matrix(0.05,0,0,0.05,14,0)" xlink:href="#I"/><use transform="matrix(0.05,0,0,0.05,19.95,0)" xlink:href="#Y"/><use transform="matrix(0.05,0,0,0.05,29.950000000000003,0)" xlink:href="#Z"/><use transform="matrix(0.05,0,0,0.05,39.95,0)" xlink:href="#G"/><use transform="matrix(0.05,0,0,0.05,49.95,0)" xlink:href="#K"/><use transform="matrix(0.05,0,0,0.05,53.900000000000006,0)" xlink:href="#aa"/><use transform="matrix(0.05,0,0,0.05,62.900000000000006,0)" xlink:href="#Z"/><use transform="matrix(0.05,0,0,0.05,72.9,0)" xlink:href="#J"/><use transform="matrix(0.05,0,0,0.05,77.9,0)" xlink:href="#K"/><use transform="matrix(0.05,0,0,0.05,81.85000000000001,0)" xlink:href="#F"/><use transform="matrix(0.05,0,0,0.05,91.85000000000001,0)" xlink:href="#G"/></g><g id="h"><use transform="matrix(0.05,0,0,0.05,0,0)" xlink:href="#R"/><use transform="matrix(0.05,0,0,0.05,14.950000000000001,0)" xlink:href="#S"/><use transform="matrix(0.05,0,0,0.05,24.950000000000003,0)" xlink:href="#M"/><use transform="matrix(0.05,0,0,0.05,39.900000000000006,0)" xlink:href="#T"/><use transform="matrix(0.05,0,0,0.05,49.900000000000006,0)" xlink:href="#S"/><use transform="matrix(0.05,0,0,0.05,59.900000000000006,0)" xlink:href="#I"/><use transform="matrix(0.05,0,0,0.05,65.85000000000001,0)" xlink:href="#H"/><use transform="matrix(0.05,0,0,0.05,74.85000000000001,0)" xlink:href="#U"/><use transform="matrix(0.05,0,0,0.05,84.85000000000001,0)" xlink:href="#K"/><use transform="matrix(0.05,0,0,0.05,88.80000000000001,0)" xlink:href="#V"/></g><g id="i"><use transform="matrix(0.05,0,0,0.05,0,0)" xlink:href="#X"/><use transform="matrix(0.05,0,0,0.05,14,0)" xlink:href="#I"/><use transform="matrix(0.05,0,0,0.05,19.95,0)" xlink:href="#Y"/><use transform="matrix(0.05,0,0,0.05,29.950000000000003,0)" xlink:href="#Z"/><use transform="matrix(0.05,0,0,0.05,39.95,0)" xlink:href="#G"/><use transform="matrix(0.05,0,0,0.05,49.95,0)" xlink:href="#K"/><use transform="matrix(0.05,0,0,0.05,53.900000000000006,0)" xlink:href="#aa"/><use transform="matrix(0.05,0,0,0.05,62.900000000000006,0)" xlink:href="#Z"/><use transform="matrix(0.05,0,0,0.05,72.9,0)" xlink:href="#J"/><use transform="matrix(0.05,0,0,0.05,77.9,0)" xlink:href="#K"/><use transform="matrix(0.05,0,0,0.05,81.85000000000001,0)" xlink:href="#F"/><use transform="matrix(0.05,0,0,0.05,91.85000000000001,0)" xlink:href="#G"/></g><path fill="#333" d="M24 0v-261h32V0H24" id="ab"/><path fill="#333" d="M85-194c31 0 48 13 60 33l-1-100h32l1 261h-30c-2-10 0-23-3-31C134-8 116 4 85 4 32 4 16-35 15-94c0-66 23-100 70-100zm9 24c-40 0-46 34-46 75 0 40 6 74 45 74 42 0 51-32 51-76 0-42-9-74-50-73" id="ac"/><g id="j"><use transform="matrix(0.05,0,0,0.05,0,0)" xlink:href="#W"/><use transform="matrix(0.05,0,0,0.05,10.950000000000001,0)" xlink:href="#K"/><use transform="matrix(0.05,0,0,0.05,14.9,0)" xlink:href="#S"/><use transform="matrix(0.05,0,0,0.05,24.900000000000002,0)" xlink:href="#ab"/><use transform="matrix(0.05,0,0,0.05,28.85,0)" xlink:href="#ac"/></g><path fill="#333" d="M127-220V0H93v-220H8v-28h204v28h-85" id="ad"/><path fill="#333" d="M179-190L93 31C79 59 56 82 12 73V49c39 6 53-20 64-50L1-190h34L92-34l54-156h33" id="ae"/><g id="k"><use transform="matrix(0.05,0,0,0.05,0,0)" xlink:href="#ad"/><use transform="matrix(0.05,0,0,0.05,9.950000000000001,0)" xlink:href="#ae"/><use transform="matrix(0.05,0,0,0.05,18.950000000000003,0)" xlink:href="#V"/><use transform="matrix(0.05,0,0,0.05,28.950000000000003,0)" xlink:href="#S"/></g><path fill="#333" d="M30 0v-248h187v28H63v79h144v27H63v87h162V0H30" id="af"/><path fill="#333" d="M108 0H70L1-190h34L89-25l56-165h34" id="ag"/><g id="l"><use transform="matrix(0.05,0,0,0.05,0,0)" xlink:href="#af"/><use transform="matrix(0.05,0,0,0.05,12,0)" xlink:href="#G"/><use transform="matrix(0.05,0,0,0.05,22,0)" xlink:href="#ag"/><use transform="matrix(0.05,0,0,0.05,31,0)" xlink:href="#K"/><use transform="matrix(0.05,0,0,0.05,34.95,0)" xlink:href="#I"/><use transform="matrix(0.05,0,0,0.05,40.900000000000006,0)" xlink:href="#F"/><use transform="matrix(0.05,0,0,0.05,50.900000000000006,0)" xlink:href="#G"/><use transform="matrix(0.05,0,0,0.05,60.900000000000006,0)" xlink:href="#M"/><use transform="matrix(0.05,0,0,0.05,75.85000000000001,0)" xlink:href="#S"/><use transform="matrix(0.05,0,0,0.05,85.85000000000001,0)" xlink:href="#G"/><use transform="matrix(0.05,0,0,0.05,95.85000000000001,0)" xlink:href="#J"/></g><g id="m"><use transform="matrix(0.05,0,0,0.05,0,0)" xlink:href="#af"/><use transform="matrix(0.05,0,0,0.05,12,0)" xlink:href="#G"/><use transform="matrix(0.05,0,0,0.05,22,0)" xlink:href="#ag"/><use transform="matrix(0.05,0,0,0.05,31,0)" xlink:href="#K"/><use transform="matrix(0.05,0,0,0.05,34.95,0)" xlink:href="#I"/><use transform="matrix(0.05,0,0,0.05,40.900000000000006,0)" xlink:href="#F"/><use transform="matrix(0.05,0,0,0.05,50.900000000000006,0)" xlink:href="#G"/><use transform="matrix(0.05,0,0,0.05,60.900000000000006,0)" xlink:href="#M"/><use transform="matrix(0.05,0,0,0.05,75.85000000000001,0)" xlink:href="#S"/><use transform="matrix(0.05,0,0,0.05,85.85000000000001,0)" xlink:href="#G"/><use transform="matrix(0.05,0,0,0.05,95.85000000000001,0)" xlink:href="#J"/></g><path fill="#333" d="M96-169c-40 0-48 33-48 73s9 75 48 75c24 0 41-14 43-38l32 2c-6 37-31 61-74 61-59 0-76-41-82-99-10-93 101-131 147-64 4 7 5 14 7 22l-32 3c-4-21-16-35-41-35" id="ah"/><g id="n"><use transform="matrix(0.05,0,0,0.05,0,0)" xlink:href="#P"/><use transform="matrix(0.05,0,0,0.05,12,0)" xlink:href="#I"/><use transform="matrix(0.05,0,0,0.05,17.95,0)" xlink:href="#F"/><use transform="matrix(0.05,0,0,0.05,27.950000000000003,0)" xlink:href="#J"/><use transform="matrix(0.05,0,0,0.05,32.95,0)" xlink:href="#F"/><use transform="matrix(0.05,0,0,0.05,42.95,0)" xlink:href="#ah"/><use transform="matrix(0.05,0,0,0.05,51.95,0)" xlink:href="#Z"/><use transform="matrix(0.05,0,0,0.05,61.95,0)" xlink:href="#ab"/></g><path fill="#333" d="M190 0L58-211 59 0H30v-248h39L202-35l-2-213h31V0h-41" id="ai"/><g id="o"><use transform="matrix(0.05,0,0,0.05,0,0)" xlink:href="#ai"/><use transform="matrix(0.05,0,0,0.05,12.950000000000001,0)" xlink:href="#F"/><use transform="matrix(0.05,0,0,0.05,22.950000000000003,0)" xlink:href="#ac"/><use transform="matrix(0.05,0,0,0.05,32.95,0)" xlink:href="#S"/></g><g id="p"><use transform="matrix(0.05,0,0,0.05,0,0)" xlink:href="#E"/><use transform="matrix(0.05,0,0,0.05,12.950000000000001,0)" xlink:href="#ab"/><use transform="matrix(0.05,0,0,0.05,16.900000000000002,0)" xlink:href="#K"/><use transform="matrix(0.05,0,0,0.05,20.85,0)" xlink:href="#S"/><use transform="matrix(0.05,0,0,0.05,30.85,0)" xlink:href="#G"/><use transform="matrix(0.05,0,0,0.05,40.85,0)" xlink:href="#J"/></g><g id="q"><use transform="matrix(0.05,0,0,0.05,0,0)" xlink:href="#E"/><use transform="matrix(0.05,0,0,0.05,12.950000000000001,0)" xlink:href="#F"/><use transform="matrix(0.05,0,0,0.05,22.950000000000003,0)" xlink:href="#G"/><use transform="matrix(0.05,0,0,0.05,32.95,0)" xlink:href="#H"/><use transform="matrix(0.05,0,0,0.05,41.95,0)" xlink:href="#S"/><use transform="matrix(0.05,0,0,0.05,51.95,0)" xlink:href="#G"/><use transform="matrix(0.05,0,0,0.05,61.95,0)" xlink:href="#H"/><use transform="matrix(0.05,0,0,0.05,70.95,0)" xlink:href="#L"/><use transform="matrix(0.05,0,0,0.05,80.95,0)" xlink:href="#H"/></g><g id="r"><use transform="matrix(0.05,0,0,0.05,0,0)" xlink:href="#ai"/><use transform="matrix(0.05,0,0,0.05,12.950000000000001,0)" xlink:href="#F"/><use transform="matrix(0.05,0,0,0.05,22.950000000000003,0)" xlink:href="#ac"/><use transform="matrix(0.05,0,0,0.05,32.95,0)" xlink:href="#S"/></g><path fill="#333" d="M232-93c-1 65-40 97-104 97C67 4 28-28 28-90v-158h33c8 89-33 224 67 224 102 0 64-133 71-224h33v155" id="aj"/><g id="s"><use transform="matrix(0.05,0,0,0.05,0,0)" xlink:href="#aj"/><use transform="matrix(0.05,0,0,0.05,12.950000000000001,0)" xlink:href="#H"/><use transform="matrix(0.05,0,0,0.05,21.950000000000003,0)" xlink:href="#S"/><use transform="matrix(0.05,0,0,0.05,31.950000000000003,0)" xlink:href="#I"/></g><g id="t"><use transform="matrix(0.05,0,0,0.05,0,0)" xlink:href="#aj"/><use transform="matrix(0.05,0,0,0.05,12.950000000000001,0)" xlink:href="#H"/><use transform="matrix(0.05,0,0,0.05,21.950000000000003,0)" xlink:href="#S"/><use transform="matrix(0.05,0,0,0.05,31.950000000000003,0)" xlink:href="#I"/></g><path fill="#333" d="M16-82v-28h88v28H16" id="ak"/><g id="u"><use transform="matrix(0.05,0,0,0.05,0,0)" xlink:href="#aj"/><use transform="matrix(0.05,0,0,0.05,12.950000000000001,0)" xlink:href="#H"/><use transform="matrix(0.05,0,0,0.05,21.950000000000003,0)" xlink:href="#S"/><use transform="matrix(0.05,0,0,0.05,31.950000000000003,0)" xlink:href="#I"/><use transform="matrix(0.05,0,0,0.05,37.900000000000006,0)" xlink:href="#ak"/><use transform="matrix(0.05,0,0,0.05,43.85000000000001,0)" xlink:href="#X"/><use transform="matrix(0.05,0,0,0.05,57.85,0)" xlink:href="#I"/><use transform="matrix(0.05,0,0,0.05,63.80000000000001,0)" xlink:href="#Y"/><use transform="matrix(0.05,0,0,0.05,73.80000000000001,0)" xlink:href="#Z"/><use transform="matrix(0.05,0,0,0.05,83.80000000000001,0)" xlink:href="#G"/><use transform="matrix(0.05,0,0,0.05,93.80000000000001,0)" xlink:href="#K"/><use transform="matrix(0.05,0,0,0.05,97.75000000000001,0)" xlink:href="#aa"/><use transform="matrix(0.05,0,0,0.05,106.75,0)" xlink:href="#Z"/><use transform="matrix(0.05,0,0,0.05,116.75,0)" xlink:href="#J"/><use transform="matrix(0.05,0,0,0.05,121.75,0)" xlink:href="#K"/><use transform="matrix(0.05,0,0,0.05,125.7,0)" xlink:href="#F"/><use transform="matrix(0.05,0,0,0.05,135.70000000000002,0)" xlink:href="#G"/></g><path fill="#333" d="M233-177c-1 41-23 64-60 70L243 0h-38l-65-103H63V0H30v-248c88 3 205-21 203 71zM63-129c60-2 137 13 137-47 0-61-80-42-137-45v92" id="al"/><g id="v"><use transform="matrix(0.05,0,0,0.05,0,0)" xlink:href="#al"/><use transform="matrix(0.05,0,0,0.05,12.950000000000001,0)" xlink:href="#F"/><use transform="matrix(0.05,0,0,0.05,22.950000000000003,0)" xlink:href="#ab"/><use transform="matrix(0.05,0,0,0.05,26.900000000000002,0)" xlink:href="#S"/></g><g id="w"><use transform="matrix(0.05,0,0,0.05,0,0)" xlink:href="#X"/><use transform="matrix(0.05,0,0,0.05,14,0)" xlink:href="#I"/><use transform="matrix(0.05,0,0,0.05,19.95,0)" xlink:href="#Y"/><use transform="matrix(0.05,0,0,0.05,29.950000000000003,0)" xlink:href="#Z"/><use transform="matrix(0.05,0,0,0.05,39.95,0)" xlink:href="#G"/><use transform="matrix(0.05,0,0,0.05,49.95,0)" xlink:href="#K"/><use transform="matrix(0.05,0,0,0.05,53.900000000000006,0)" xlink:href="#aa"/><use transform="matrix(0.05,0,0,0.05,62.900000000000006,0)" xlink:href="#Z"/><use transform="matrix(0.05,0,0,0.05,72.9,0)" xlink:href="#J"/><use transform="matrix(0.05,0,0,0.05,77.9,0)" xlink:href="#K"/><use transform="matrix(0.05,0,0,0.05,81.85000000000001,0)" xlink:href="#F"/><use transform="matrix(0.05,0,0,0.05,91.85000000000001,0)" xlink:href="#G"/><use transform="matrix(0.05,0,0,0.05,101.85000000000001,0)" xlink:href="#ak"/><use transform="matrix(0.05,0,0,0.05,107.80000000000001,0)" xlink:href="#E"/><use transform="matrix(0.05,0,0,0.05,120.75,0)" xlink:href="#F"/><use transform="matrix(0.05,0,0,0.05,130.75,0)" xlink:href="#G"/><use transform="matrix(0.05,0,0,0.05,140.75,0)" xlink:href="#H"/><use transform="matrix(0.05,0,0,0.05,149.75,0)" xlink:href="#F"/><use transform="matrix(0.05,0,0,0.05,159.75,0)" xlink:href="#I"/><use transform="matrix(0.05,0,0,0.05,165.7,0)" xlink:href="#J"/><use transform="matrix(0.05,0,0,0.05,170.7,0)" xlink:href="#K"/><use transform="matrix(0.05,0,0,0.05,174.64999999999998,0)" xlink:href="#L"/><use transform="matrix(0.05,0,0,0.05,184.64999999999998,0)" xlink:href="#M"/></g><path fill="#333" d="M101-234c-31-9-42 10-38 44h38v23H63V0H32v-167H5v-23h27c-7-52 17-82 69-68v24" id="am"/><g id="x"><use transform="matrix(0.05,0,0,0.05,0,0)" xlink:href="#E"/><use transform="matrix(0.05,0,0,0.05,12.950000000000001,0)" xlink:href="#S"/><use transform="matrix(0.05,0,0,0.05,22.950000000000003,0)" xlink:href="#I"/><use transform="matrix(0.05,0,0,0.05,28.900000000000002,0)" xlink:href="#J"/><use transform="matrix(0.05,0,0,0.05,33.900000000000006,0)" xlink:href="#K"/><use transform="matrix(0.05,0,0,0.05,37.85000000000001,0)" xlink:href="#ah"/><use transform="matrix(0.05,0,0,0.05,46.85000000000001,0)" xlink:href="#K"/><use transform="matrix(0.05,0,0,0.05,50.80000000000001,0)" xlink:href="#am"/><use transform="matrix(0.05,0,0,0.05,55.80000000000001,0)" xlink:href="#Z"/><use transform="matrix(0.05,0,0,0.05,65.80000000000001,0)" xlink:href="#J"/><use transform="matrix(0.05,0,0,0.05,70.80000000000001,0)" xlink:href="#S"/></g><g id="y"><use transform="matrix(0.05,0,0,0.05,0,0)" xlink:href="#E"/><use transform="matrix(0.05,0,0,0.05,12.950000000000001,0)" xlink:href="#S"/><use transform="matrix(0.05,0,0,0.05,22.950000000000003,0)" xlink:href="#I"/><use transform="matrix(0.05,0,0,0.05,28.900000000000002,0)" xlink:href="#J"/><use transform="matrix(0.05,0,0,0.05,33.900000000000006,0)" xlink:href="#K"/><use transform="matrix(0.05,0,0,0.05,37.85000000000001,0)" xlink:href="#am"/><use transform="matrix(0.05,0,0,0.05,42.85000000000001,0)" xlink:href="#K"/><use transform="matrix(0.05,0,0,0.05,46.80000000000001,0)" xlink:href="#ah"/><use transform="matrix(0.05,0,0,0.05,55.80000000000001,0)" xlink:href="#Z"/><use transform="matrix(0.05,0,0,0.05,65.80000000000001,0)" xlink:href="#J"/><use transform="matrix(0.05,0,0,0.05,70.80000000000001,0)" xlink:href="#S"/></g><g id="z"><use transform="matrix(0.05,0,0,0.05,0,0)" xlink:href="#ai"/><use transform="matrix(0.05,0,0,0.05,12.950000000000001,0)" xlink:href="#Z"/><use transform="matrix(0.05,0,0,0.05,22.950000000000003,0)" xlink:href="#M"/><use transform="matrix(0.05,0,0,0.05,37.900000000000006,0)" xlink:href="#S"/></g><path fill="#333" d="M185-189c-5-48-123-54-124 2 14 75 158 14 163 119 3 78-121 87-175 55-17-10-28-26-33-46l33-7c5 56 141 63 141-1 0-78-155-14-162-118-5-82 145-84 179-34 5 7 8 16 11 25" id="an"/><g id="A"><use transform="matrix(0.05,0,0,0.05,0,0)" xlink:href="#an"/><use transform="matrix(0.05,0,0,0.05,12,0)" xlink:href="#J"/><use transform="matrix(0.05,0,0,0.05,17,0)" xlink:href="#I"/><use transform="matrix(0.05,0,0,0.05,22.95,0)" xlink:href="#K"/><use transform="matrix(0.05,0,0,0.05,26.899999999999995,0)" xlink:href="#G"/><use transform="matrix(0.05,0,0,0.05,36.9,0)" xlink:href="#Y"/></g><path fill="#333" d="M141 0L90-78 38 0H4l68-98-65-92h35l48 74 47-74h35l-64 92 68 98h-35" id="ao"/><g id="B"><use transform="matrix(0.05,0,0,0.05,0,0)" xlink:href="#af"/><use transform="matrix(0.05,0,0,0.05,12,0)" xlink:href="#ao"/><use transform="matrix(0.05,0,0,0.05,21,0)" xlink:href="#V"/><use transform="matrix(0.05,0,0,0.05,31,0)" xlink:href="#K"/><use transform="matrix(0.05,0,0,0.05,34.95,0)" xlink:href="#I"/><use transform="matrix(0.05,0,0,0.05,40.900000000000006,0)" xlink:href="#S"/><use transform="matrix(0.05,0,0,0.05,50.900000000000006,0)" xlink:href="#ac"/></g><g id="C"><use transform="matrix(0.05,0,0,0.05,0,0)" xlink:href="#ad"/><use transform="matrix(0.05,0,0,0.05,10.3,0)" xlink:href="#K"/><use transform="matrix(0.05,0,0,0.05,14.25,0)" xlink:href="#M"/><use transform="matrix(0.05,0,0,0.05,29.200000000000003,0)" xlink:href="#S"/></g><g id="D"><use transform="matrix(0.05,0,0,0.05,0,0)" xlink:href="#ad"/><use transform="matrix(0.05,0,0,0.05,10.3,0)" xlink:href="#K"/><use transform="matrix(0.05,0,0,0.05,14.25,0)" xlink:href="#M"/><use transform="matrix(0.05,0,0,0.05,29.200000000000003,0)" xlink:href="#S"/></g></defs></g></svg>