<svg version="1.1" xmlns="http://www.w3.org/2000/svg" viewBox="0 0 815.522372188035 910.606293811332" width="815.522372188035" height="910.606293811332">
  <!-- svg-source:excalidraw -->
  
  <defs>
    <style class="style-fonts">
      @font-face {
        font-family: "Virgil";
        src: url("https://file%2B.vscode-resource.vscode-cdn.net/c%3A/Users/logre/.vscode/extensions/pomdtr.excalidraw-editor-3.7.1/public//dist/excalidraw-assets/Virgil.woff2");
      }
      @font-face {
        font-family: "Cascadia";
        src: url("https://file%2B.vscode-resource.vscode-cdn.net/c%3A/Users/logre/.vscode/extensions/pomdtr.excalidraw-editor-3.7.1/public//dist/excalidraw-assets/Cascadia.woff2");
      }
      @font-face {
        font-family: "Assistant";
        src: url("https://file%2B.vscode-resource.vscode-cdn.net/c%3A/Users/logre/.vscode/extensions/pomdtr.excalidraw-editor-3.7.1/public//dist/excalidraw-assets/Assistant-Regular.woff2");
      }
    </style>
    
  </defs>
  <rect x="0" y="0" width="815.522372188035" height="910.606293811332" fill="#ffffff"></rect><g stroke-linecap="round" transform="translate(11.966387211055974 72.90693176751859) rotate(0.27348613066688204 395.79479888296146 412.9074260156206)"><path d="M32 0 C277.99 0.09, 524.78 0.48, 759.59 0 M32 0 C318.17 0.65, 603.64 0.3, 759.59 0 M759.59 0 C780.3 1.22, 793.21 9.58, 791.59 32 M759.59 0 C779.88 -0.15, 790.32 10.73, 791.59 32 M791.59 32 C790.94 226.3, 790.6 419.83, 791.59 793.81 M791.59 32 C791.3 213.63, 791.52 395.27, 791.59 793.81 M791.59 793.81 C792.75 813.25, 781.5 825.3, 759.59 825.81 M791.59 793.81 C790.35 815.12, 783.15 826.35, 759.59 825.81 M759.59 825.81 C500.56 828.59, 242.15 829.27, 32 825.81 M759.59 825.81 C565.67 826.27, 372.48 826.65, 32 825.81 M32 825.81 C12.24 827.13, -1.04 814.77, 0 793.81 M32 825.81 C10.1 826.02, 2.16 813.55, 0 793.81 M0 793.81 C-1.7 519.02, -1.54 245.2, 0 32 M0 793.81 C2.53 498.18, 2.2 202.02, 0 32 M0 32 C-1.04 10.37, 11.61 0.93, 32 0 M0 32 C-0.43 8.51, 11.63 -0.72, 32 0" stroke="#1e1e1e" stroke-width="2" fill="none"></path></g><g transform="translate(323.0612373368305 10.268913045625254) rotate(0.27348613066688204 56.379974365234375 17.618846373168395)"><text x="0" y="0" font-family="Virgil, Segoe UI Emoji" font-size="28.190154197069432px" fill="#1e1e1e" text-anchor="start" style="white-space: pre;" direction="ltr" dominant-baseline="text-before-edge">资源模型</text></g><g stroke-linecap="round" transform="translate(61.24968125941956 283.28960242529445) rotate(0.27348613066688204 76.76783062594802 27.68675858640748)"><path d="M13.84 0 C47.41 0.96, 76.92 1.77, 139.69 0 M13.84 0 C55.79 1.26, 99.17 0.11, 139.69 0 M139.69 0 C148.02 -0.13, 152.43 4.67, 153.54 13.84 M139.69 0 C147.87 -0.81, 154.66 5.84, 153.54 13.84 M153.54 13.84 C152.34 23.96, 155.12 33.62, 153.54 41.53 M153.54 13.84 C154.17 21.32, 153.88 30.45, 153.54 41.53 M153.54 41.53 C152.46 50.73, 150.86 55.84, 139.69 55.37 M153.54 41.53 C154.81 49.64, 151.1 53.74, 139.69 55.37 M139.69 55.37 C101.02 56.42, 64.23 55.09, 13.84 55.37 M139.69 55.37 C113.31 56.18, 84.84 55.34, 13.84 55.37 M13.84 55.37 C4.12 55.55, 1.87 49.37, 0 41.53 M13.84 55.37 C6 56.43, 1.61 49.91, 0 41.53 M0 41.53 C1.81 32.56, -1.32 27.31, 0 13.84 M0 41.53 C-0.36 32.48, 0.63 24.19, 0 13.84 M0 13.84 C-0.37 2.74, 5.45 -0.63, 13.84 0 M0 13.84 C1.88 5.07, 2.97 0.35, 13.84 0" stroke="#e03131" stroke-width="2" fill="none"></path></g><g transform="translate(118.61220793028946 298.3914707451531) rotate(0.27348613066688204 19.405303955078125 12.584890266548854)"><text x="19.405303955078125" y="0" font-family="Virgil, Segoe UI Emoji" font-size="20.135824426478166px" fill="#e03131" text-anchor="middle" style="white-space: pre;" direction="ltr" dominant-baseline="text-before-edge">Org1</text></g><g stroke-linecap="round" transform="translate(323.0124168059878 284.5390665567811) rotate(0.27348613066688204 76.76783062594802 27.68675858640748)"><path d="M13.84 0 C58.43 -1.07, 100.56 -1.74, 139.69 0 M13.84 0 C58.84 0.62, 104.18 0.71, 139.69 0 M139.69 0 C148.01 -0.71, 154.52 5.68, 153.54 13.84 M139.69 0 C150.51 0.26, 154.51 3.2, 153.54 13.84 M153.54 13.84 C153.84 22.42, 154.02 31.33, 153.54 41.53 M153.54 13.84 C153.08 19.5, 154.59 25.42, 153.54 41.53 M153.54 41.53 C154.64 49.79, 150.82 53.95, 139.69 55.37 M153.54 41.53 C153.58 49.26, 150.92 54.59, 139.69 55.37 M139.69 55.37 C100.57 55.44, 65.06 56.08, 13.84 55.37 M139.69 55.37 C93.44 55.23, 48.61 54.44, 13.84 55.37 M13.84 55.37 C5.82 56.29, 1.4 50.02, 0 41.53 M13.84 55.37 C3.84 54.98, 1.3 52.79, 0 41.53 M0 41.53 C0.62 34.28, -1.59 28.28, 0 13.84 M0 41.53 C-0.32 32.7, 0.29 25.44, 0 13.84 M0 13.84 C1.63 5.01, 3.19 0.3, 13.84 0 M0 13.84 C-0.06 6.14, 2.38 0.68, 13.84 0" stroke="#2f9e44" stroke-width="2" fill="none"></path></g><g transform="translate(375.9362761794944 299.64093487663973) rotate(0.27348613066688204 23.843971252441406 12.584890266548854)"><text x="23.843971252441406" y="0" font-family="Virgil, Segoe UI Emoji" font-size="20.135824426478166px" fill="#2f9e44" text-anchor="middle" style="white-space: pre;" direction="ltr" dominant-baseline="text-before-edge">Org2</text></g><g stroke-linecap="round" transform="translate(638.8715787520848 289.80723984194503) rotate(0.27348613066688204 73.6216080593108 27.68675858640748)"><path d="M13.84 0 C51.23 1.99, 85.09 -0.53, 133.4 0 M13.84 0 C48.5 -0.39, 84.56 0.5, 133.4 0 M133.4 0 C144.01 0.23, 148.09 3.38, 147.24 13.84 M133.4 0 C142.51 1.79, 146.47 4.72, 147.24 13.84 M147.24 13.84 C145.38 23.3, 146.77 30.52, 147.24 41.53 M147.24 13.84 C148.06 21.63, 148.46 29.67, 147.24 41.53 M147.24 41.53 C147.28 49.46, 144.37 54.7, 133.4 55.37 M147.24 41.53 C147.19 51.38, 141.04 53.44, 133.4 55.37 M133.4 55.37 C93.27 55.27, 50.13 55.82, 13.84 55.37 M133.4 55.37 C97.06 55, 60.22 54.17, 13.84 55.37 M13.84 55.37 C3.94 55.03, 1.13 52.52, 0 41.53 M13.84 55.37 C2.78 53.8, 0.61 51.26, 0 41.53 M0 41.53 C-0.06 35.76, 1.18 27.73, 0 13.84 M0 41.53 C0.7 36.02, -0.83 30.26, 0 13.84 M0 13.84 C-0.05 5.94, 2.67 0.59, 13.84 0 M0 13.84 C1.63 6.74, 3.54 -0.88, 13.84 0" stroke="#1971c2" stroke-width="2" fill="none"></path></g><g transform="translate(688.9612272777042 304.90910816180366) rotate(0.27348613066688204 23.531959533691406 12.584890266548854)"><text x="23.531959533691406" y="0" font-family="Virgil, Segoe UI Emoji" font-size="20.135824426478166px" fill="#1971c2" text-anchor="middle" style="white-space: pre;" direction="ltr" dominant-baseline="text-before-edge">Org3</text></g><g stroke-linecap="round" transform="translate(150.04857896007087 399.56185112272783) rotate(0.27348613066688204 90.61120991915175 27.68675858640748)"><path d="M13.84 0 C61.09 -1.46, 111.55 -1.63, 167.38 0 C175.08 -1.12, 182.88 7.68, 181.22 13.84 C178.69 24.36, 181.1 30.55, 181.22 41.53 C183.71 51.12, 178.07 53.35, 167.38 55.37 C118.66 52.11, 63.81 54.38, 13.84 55.37 C1.68 54.27, -0.75 47.65, 0 41.53 C-2.76 29.49, 0.05 20.7, 0 13.84 C-3.07 7.07, 6.47 -2.48, 13.84 0" stroke="none" stroke-width="0" fill="#ffc9c9"></path><path d="M13.84 0 C72.19 -0.41, 130.85 -0.22, 167.38 0 M13.84 0 C55.17 -0.7, 95.54 -1.44, 167.38 0 M167.38 0 C176.51 1.55, 180.55 4.71, 181.22 13.84 M167.38 0 C177.08 0.31, 182.55 2.43, 181.22 13.84 M181.22 13.84 C181.12 24.89, 181.62 33.16, 181.22 41.53 M181.22 13.84 C181.5 20.15, 182.35 27.42, 181.22 41.53 M181.22 41.53 C181.17 51.3, 175.23 53.69, 167.38 55.37 M181.22 41.53 C182.3 51.04, 178.42 56.88, 167.38 55.37 M167.38 55.37 C129.49 56.87, 89.84 56.2, 13.84 55.37 M167.38 55.37 C113.93 54.63, 61.7 55.69, 13.84 55.37 M13.84 55.37 C3.02 54, 0.53 51.19, 0 41.53 M13.84 55.37 C3.29 53.33, -1.2 50.41, 0 41.53 M0 41.53 C-2 32.76, -0.75 23.95, 0 13.84 M0 41.53 C0.17 33.34, -0.78 24.11, 0 13.84 M0 13.84 C1.42 6.46, 3.68 -0.77, 13.84 0 M0 13.84 C0.88 5.78, 6.07 1.56, 13.84 0" stroke="#1e1e1e" stroke-width="2" fill="none"></path></g><g transform="translate(199.3228671873281 414.66371944258645) rotate(0.27348613066688204 41.33692169189453 12.584890266548854)"><text x="41.33692169189453" y="0" font-family="Virgil, Segoe UI Emoji" font-size="20.135824426478166px" fill="#1e1e1e" text-anchor="middle" style="white-space: pre;" direction="ltr" dominant-baseline="text-before-edge">Network1</text></g><g stroke-linecap="round" transform="translate(462.1503021117482 401.0515968179619) rotate(0.27348613066688204 90.61120991915175 27.68675858640748)"><path d="M13.84 0 C53.25 -0.07, 97.38 4.12, 167.38 0 C176.06 -1.93, 180.87 2.35, 181.22 13.84 C183.73 24.54, 182.7 32.48, 181.22 41.53 C182.18 53.96, 174.73 56.82, 167.38 55.37 C126.18 54.61, 90.11 52.61, 13.84 55.37 C7.78 55.87, -3.28 48.07, 0 41.53 C-3.09 36.68, 1.84 24.44, 0 13.84 C-2.07 5.66, 7.01 -0.74, 13.84 0" stroke="none" stroke-width="0" fill="#b2f2bb"></path><path d="M13.84 0 C50.72 1.68, 90.08 2.09, 167.38 0 M13.84 0 C61.61 1.72, 109.15 0.99, 167.38 0 M167.38 0 C177.02 0.27, 182.38 2.71, 181.22 13.84 M167.38 0 C177.27 -0.59, 179.99 4.58, 181.22 13.84 M181.22 13.84 C180.31 26.73, 179.87 35.86, 181.22 41.53 M181.22 13.84 C181.44 20.62, 180.77 26.01, 181.22 41.53 M181.22 41.53 C182.16 51.01, 178.18 56.69, 167.38 55.37 M181.22 41.53 C180.03 50.33, 176.04 55.58, 167.38 55.37 M167.38 55.37 C107.85 57.7, 45.74 55.63, 13.84 55.37 M167.38 55.37 C123.18 56.04, 80.84 56.94, 13.84 55.37 M13.84 55.37 C3.47 53.6, -1.04 50.46, 0 41.53 M13.84 55.37 C5.7 56.44, -0.43 48.6, 0 41.53 M0 41.53 C0.48 30.64, 0.39 22.55, 0 13.84 M0 41.53 C0.98 32.31, -0.2 20.86, 0 13.84 M0 13.84 C0.76 5.63, 5.88 1.35, 13.84 0 M0 13.84 C0.66 4.64, 4.83 -2.07, 13.84 0" stroke="#1e1e1e" stroke-width="2" fill="none"></path></g><g transform="translate(506.98592304164214 416.15346513782055) rotate(0.27348613066688204 45.77558898925781 12.584890266548854)"><text x="45.77558898925781" y="0" font-family="Virgil, Segoe UI Emoji" font-size="20.135824426478166px" fill="#1e1e1e" text-anchor="middle" style="white-space: pre;" direction="ltr" dominant-baseline="text-before-edge">Network2</text></g><g stroke-linecap="round" transform="translate(84.12774770522168 497.2362781130481) rotate(0.27348613066688204 54.115028146160085 30.20373663971725)"><path d="M2.16 5.85 C2.16 5.85, 2.16 5.85, 2.16 5.85 M2.16 5.85 C2.16 5.85, 2.16 5.85, 2.16 5.85 M0.98 19.41 C6.71 9.9, 14.61 2.44, 18.04 -0.22 M0.98 19.41 C6.5 14.41, 9.3 8.23, 18.04 -0.22 M0.46 32.2 C6.18 24.95, 16.36 13.65, 28.67 -0.25 M0.46 32.2 C7 24.78, 13.86 15.77, 28.67 -0.25 M0.59 44.24 C12.5 29.76, 23.67 16.11, 39.3 -0.29 M0.59 44.24 C14.98 25.69, 31.91 8.23, 39.3 -0.29 M2.04 54.77 C20.24 31.19, 38.57 11.4, 49.93 -0.32 M2.04 54.77 C18.44 36.52, 33.87 18.65, 49.93 -0.32 M8.73 59.27 C26.94 37.97, 41.92 20.9, 59.91 0.4 M8.73 59.27 C28.8 38.26, 45.6 16.06, 59.91 0.4 M18.05 60.74 C33.79 42.25, 48.15 24.28, 70.54 0.36 M18.05 60.74 C38.94 36.74, 60.01 12.54, 70.54 0.36 M28.68 60.71 C47.29 39.84, 64.86 17.65, 81.17 0.33 M28.68 60.71 C41.44 47.23, 53.43 33.11, 81.17 0.33 M39.31 60.67 C50.92 46.32, 60.84 35.72, 91.8 0.3 M39.31 60.67 C50.8 46.04, 64.57 30.83, 91.8 0.3 M49.94 60.64 C64.84 42.25, 79.38 26.66, 101.11 1.77 M49.94 60.64 C63.58 44.83, 77 29.62, 101.11 1.77 M60.57 60.6 C74.05 48.03, 85.06 32.06, 107.15 7.02 M60.57 60.6 C74.2 45.44, 85.61 31, 107.15 7.02 M71.2 60.57 C78.95 51.41, 85.97 41.75, 108.6 17.55 M71.2 60.57 C81.63 46.94, 93.6 35.69, 108.6 17.55 M81.83 60.53 C90.14 50.16, 101.24 37.46, 108.73 29.59 M81.83 60.53 C89.31 51.01, 96.97 42.91, 108.73 29.59 M92.46 60.5 C95.41 56.53, 100.52 50.08, 108.21 42.39 M92.46 60.5 C99.01 52.93, 104.95 45.82, 108.21 42.39" stroke="#ffc9c9" stroke-width="1" fill="none"></path><path d="M15.1 0 C42.57 0.3, 68.34 -0.64, 93.13 0 M15.1 0 C44.78 0.1, 74.62 -0.99, 93.13 0 M93.13 0 C103.78 -0.51, 107.16 5.01, 108.23 15.1 M93.13 0 C105.43 0.54, 109.5 3.92, 108.23 15.1 M108.23 15.1 C106.71 28.77, 107.34 38.91, 108.23 45.31 M108.23 15.1 C108.49 25.1, 108.81 35.52, 108.23 45.31 M108.23 45.31 C107.19 55, 102.7 60.59, 93.13 60.41 M108.23 45.31 C110.39 53.77, 104.58 61.46, 93.13 60.41 M93.13 60.41 C63.92 61.27, 37.17 58.55, 15.1 60.41 M93.13 60.41 C74.49 59.69, 56.47 60.43, 15.1 60.41 M15.1 60.41 C5.98 61.34, -0.37 53.5, 0 45.31 M15.1 60.41 C6 59.69, 1.88 55.83, 0 45.31 M0 45.31 C1.28 36.45, 0.54 32.92, 0 15.1 M0 45.31 C0.52 33.97, 0.77 22.29, 0 15.1 M0 15.1 C0.58 5.06, 5.22 -1.8, 15.1 0 M0 15.1 C-0.77 2.94, 4.16 -0.98, 15.1 0" stroke="#e03131" stroke-width="2" fill="none"></path></g><g transform="translate(100.9821709929833 502.27023421966766) rotate(0.27348613066688204 37.26060485839844 25.169780533097708)"><text x="37.26060485839844" y="0" font-family="Virgil, Segoe UI Emoji" font-size="20.135824426478166px" fill="#e03131" text-anchor="middle" style="white-space: pre;" direction="ltr" dominant-baseline="text-before-edge">Org1 </text><text x="37.26060485839844" y="25.169780533097708" font-family="Virgil, Segoe UI Emoji" font-size="20.135824426478166px" fill="#e03131" text-anchor="middle" style="white-space: pre;" direction="ltr" dominant-baseline="text-before-edge">Member1</text></g><g stroke-linecap="round" transform="translate(232.60974002301253 501.72053279648617) rotate(0.27348613066688204 54.11502814616006 30.20373663971725)"><path d="M2.16 5.85 C2.16 5.85, 2.16 5.85, 2.16 5.85 M2.16 5.85 C2.16 5.85, 2.16 5.85, 2.16 5.85 M0.98 19.41 C3.93 15.01, 6.4 13.06, 18.04 -0.22 M0.98 19.41 C6.15 13.41, 12.05 6.36, 18.04 -0.22 M0.46 32.2 C9.53 21.03, 22.4 8.08, 28.67 -0.25 M0.46 32.2 C10.79 19.8, 20.69 8.7, 28.67 -0.25 M0.59 44.24 C11.87 34.77, 19.97 21.67, 39.3 -0.29 M0.59 44.24 C10.36 33.78, 19.25 23.02, 39.3 -0.29 M2.04 54.77 C14.5 41.6, 25.01 29.28, 49.93 -0.32 M2.04 54.77 C17.88 35.88, 33.16 19.36, 49.93 -0.32 M8.73 59.27 C22.67 43.49, 33.48 32.96, 59.91 0.4 M8.73 59.27 C27.13 38.85, 45.94 18.36, 59.91 0.4 M18.05 60.74 C34.99 43.41, 46.81 26.53, 70.54 0.36 M18.05 60.74 C33.29 44.23, 47.27 27.28, 70.54 0.36 M28.68 60.71 C42.95 42.48, 60.48 25.81, 81.17 0.33 M28.68 60.71 C47.59 37.93, 69.04 15.18, 81.17 0.33 M39.31 60.67 C48.4 50.51, 60.46 35.22, 91.8 0.3 M39.31 60.67 C55.4 41.99, 72.02 23.24, 91.8 0.3 M49.94 60.64 C60.15 48.15, 71.4 35.93, 101.11 1.77 M49.94 60.64 C61.53 47.9, 73.05 33.63, 101.11 1.77 M60.57 60.6 C78.46 39.18, 99.02 20.27, 107.15 7.02 M60.57 60.6 C72.73 45.27, 87.12 30.81, 107.15 7.02 M71.2 60.57 C82.62 47.63, 94.74 33.41, 108.6 17.55 M71.2 60.57 C80.45 51.3, 87.26 39.85, 108.6 17.55 M81.83 60.53 C91.44 49.58, 102.1 37.81, 108.73 29.59 M81.83 60.53 C87.78 53.3, 93.74 45.75, 108.73 29.59 M92.46 60.5 C99.93 53.64, 105.22 48.37, 108.21 42.39 M92.46 60.5 C96.33 55.79, 100.22 51.18, 108.21 42.39" stroke="#b2f2bb" stroke-width="1" fill="none"></path><path d="M15.1 0 C43.35 -0.63, 68.59 0.45, 93.13 0 M15.1 0 C39.84 0.49, 63.46 0.73, 93.13 0 M93.13 0 C105.14 0.47, 109.33 4.06, 108.23 15.1 M93.13 0 C105.38 -1.63, 108.27 3.54, 108.23 15.1 M108.23 15.1 C108.67 25.41, 106.44 39.41, 108.23 45.31 M108.23 15.1 C107.95 24.35, 108.22 34.06, 108.23 45.31 M108.23 45.31 C110.1 53.98, 104.4 61.33, 93.13 60.41 M108.23 45.31 C109.84 54.52, 102.43 60.01, 93.13 60.41 M93.13 60.41 C63.95 60.32, 37.95 58.64, 15.1 60.41 M93.13 60.41 C77.12 60.76, 59.99 59.35, 15.1 60.41 M15.1 60.41 C5.87 59.78, 1.63 55.77, 0 45.31 M15.1 60.41 C3.39 60.76, -0.06 56.9, 0 45.31 M0 45.31 C1.76 38.25, -0.86 33.82, 0 15.1 M0 45.31 C0.1 34.72, -0.1 23.21, 0 15.1 M0 15.1 C-0.67 3.22, 4.27 -0.85, 15.1 0 M0 15.1 C-0.72 6.09, 6.99 -0.35, 15.1 0" stroke="#2f9e44" stroke-width="2" fill="none"></path></g><g transform="translate(249.46416331077415 506.7544889031057) rotate(0.27348613066688204 37.26060485839844 25.169780533097708)"><text x="37.26060485839844" y="0" font-family="Virgil, Segoe UI Emoji" font-size="20.135824426478166px" fill="#2f9e44" text-anchor="middle" style="white-space: pre;" direction="ltr" dominant-baseline="text-before-edge">Org2 </text><text x="37.26060485839844" y="25.169780533097708" font-family="Virgil, Segoe UI Emoji" font-size="20.135824426478166px" fill="#2f9e44" text-anchor="middle" style="white-space: pre;" direction="ltr" dominant-baseline="text-before-edge">Member1</text></g><g stroke-linecap="round" transform="translate(86.23021138801249 584.0830458100488) rotate(0.27348613066688204 54.115028146160085 30.20373663971725)"><path d="M2.16 5.85 C2.16 5.85, 2.16 5.85, 2.16 5.85 M2.16 5.85 C2.16 5.85, 2.16 5.85, 2.16 5.85 M0.98 19.41 C6.19 11.96, 9.18 7.57, 18.04 -0.22 M0.98 19.41 C6.8 14.12, 10.6 7.08, 18.04 -0.22 M0.46 32.2 C10.81 21.19, 17.81 10.91, 28.67 -0.25 M0.46 32.2 C6.37 24.58, 12.64 18.44, 28.67 -0.25 M0.59 44.24 C12.31 30.71, 26.05 16.12, 39.3 -0.29 M0.59 44.24 C10.59 30.94, 22.65 19.49, 39.3 -0.29 M2.04 54.77 C16.9 37.45, 32.54 22.14, 49.93 -0.32 M2.04 54.77 C11.33 42.11, 22.83 32.06, 49.93 -0.32 M8.73 59.27 C21.28 43.61, 31.42 32.07, 59.91 0.4 M8.73 59.27 C23.89 40.65, 39.59 23.73, 59.91 0.4 M18.05 60.74 C32.41 44.14, 46.59 28.55, 70.54 0.36 M18.05 60.74 C35.42 40.73, 52.04 20.28, 70.54 0.36 M28.68 60.71 C44.11 44.47, 58.13 26.27, 81.17 0.33 M28.68 60.71 C46 39.32, 65.38 16.87, 81.17 0.33 M39.31 60.67 C59.86 38.21, 79.15 13.78, 91.8 0.3 M39.31 60.67 C54.29 42.56, 70.68 23.79, 91.8 0.3 M49.94 60.64 C64.61 43.21, 80.62 23.74, 101.11 1.77 M49.94 60.64 C71.33 36.98, 90.74 14.06, 101.11 1.77 M60.57 60.6 C73.01 44.2, 86.57 27.61, 107.15 7.02 M60.57 60.6 C71.77 46.92, 82.92 34.2, 107.15 7.02 M71.2 60.57 C80.6 48.55, 94.63 37.14, 108.6 17.55 M71.2 60.57 C86.4 44.07, 100.18 28.08, 108.6 17.55 M81.83 60.53 C88.9 50.71, 98.76 40.47, 108.73 29.59 M81.83 60.53 C89.88 51.76, 96.63 44.65, 108.73 29.59 M92.46 60.5 C95.84 55.93, 100.05 50.09, 108.21 42.39 M92.46 60.5 C97.18 55.64, 100.57 50.13, 108.21 42.39" stroke="#ffc9c9" stroke-width="1" fill="none"></path><path d="M15.1 0 C36.16 1, 54.78 0.42, 93.13 0 M15.1 0 C37.48 0.25, 58.48 -0.48, 93.13 0 M93.13 0 C105.09 -1.42, 108.27 3.73, 108.23 15.1 M93.13 0 C105.2 -0.78, 108.17 5.66, 108.23 15.1 M108.23 15.1 C108.22 23.65, 109.29 28.01, 108.23 45.31 M108.23 15.1 C109.09 22.9, 108.76 32.55, 108.23 45.31 M108.23 45.31 C109.63 54.63, 102.53 60.06, 93.13 60.41 M108.23 45.31 C109.53 57.4, 101.37 58.83, 93.13 60.41 M93.13 60.41 C65.87 58.92, 41.86 60.9, 15.1 60.41 M93.13 60.41 C66.51 59.36, 39.87 59.88, 15.1 60.41 M15.1 60.41 C3.61 60.71, -0.05 56.7, 0 45.31 M15.1 60.41 C2.8 61.08, 1.63 57.5, 0 45.31 M0 45.31 C1.13 38.92, 1.47 30.58, 0 15.1 M0 45.31 C-0.36 35.3, -0.41 26.68, 0 15.1 M0 15.1 C-0.62 5.96, 6.74 -0.3, 15.1 0 M0 15.1 C-1.23 4.81, 3.59 1.68, 15.1 0" stroke="#e03131" stroke-width="2" fill="none"></path></g><g transform="translate(98.64596737841083 589.1170019166684) rotate(0.27348613066688204 41.69927215576172 25.169780533097708)"><text x="41.69927215576172" y="0" font-family="Virgil, Segoe UI Emoji" font-size="20.135824426478166px" fill="#e03131" text-anchor="middle" style="white-space: pre;" direction="ltr" dominant-baseline="text-before-edge">Org1 </text><text x="41.69927215576172" y="25.169780533097708" font-family="Virgil, Segoe UI Emoji" font-size="20.135824426478166px" fill="#e03131" text-anchor="middle" style="white-space: pre;" direction="ltr" dominant-baseline="text-before-edge">Member2</text></g><g stroke-linecap="round"><g transform="translate(135.22672338970932 341.38560764732347) rotate(0.27348613066688204 45.305604959575874 27.05751407308003)"><path d="M0.35 -0.31 C15.23 8.9, 74.73 44.98, 89.97 54.1 M-0.93 -1.51 C14.28 8, 76.92 46.07, 92.34 55.63" stroke="#e03131" stroke-width="2" fill="none"></path></g><g transform="translate(135.22672338970932 341.38560764732347) rotate(0.27348613066688204 45.305604959575874 27.05751407308003)"><path d="M62.94 49.64 C72.9 50.62, 83.9 55.78, 92.34 55.63 M62.94 49.64 C73.44 51.01, 82.01 53, 92.34 55.63" stroke="#e03131" stroke-width="2" fill="none"></path></g><g transform="translate(135.22672338970932 341.38560764732347) rotate(0.27348613066688204 45.305604959575874 27.05751407308003)"><path d="M73.67 32.14 C79.62 39.42, 86.78 50.84, 92.34 55.63 M73.67 32.14 C80.79 39.12, 85.9 46.78, 92.34 55.63" stroke="#e03131" stroke-width="2" fill="none"></path></g></g><mask></mask><g stroke-linecap="round"><g transform="translate(379.72147767232144 342.01416363671774) rotate(0.27348613066688204 -68.13966135528779 30.20373663971725)"><path d="M-0.64 -0.02 C-23.22 10.15, -112.62 50.72, -135.12 60.69 M1.22 -1.07 C-21.45 8.74, -112.58 48.4, -135.45 58.71" stroke="#e03131" stroke-width="2" fill="none"></path></g><g transform="translate(379.72147767232144 342.01416363671774) rotate(0.27348613066688204 -68.13966135528779 30.20373663971725)"><path d="M-113.81 37.94 C-121.01 46.59, -127.64 52.6, -135.45 58.71 M-113.81 37.94 C-119.04 42.35, -123.63 47.89, -135.45 58.71" stroke="#e03131" stroke-width="2" fill="none"></path></g><g transform="translate(379.72147767232144 342.01416363671774) rotate(0.27348613066688204 -68.13966135528779 30.20373663971725)"><path d="M-105.52 56.71 C-115.4 59.15, -124.75 58.97, -135.45 58.71 M-105.52 56.71 C-113.01 56.35, -119.68 57.16, -135.45 58.71" stroke="#e03131" stroke-width="2" fill="none"></path></g></g><mask></mask><g stroke-linecap="round"><g transform="translate(397.3755007569379 347.7668254725787) rotate(0.27348613066688204 65.3140454180737 23.911291506442822)"><path d="M1.16 0.28 C23.15 8.16, 109.52 39.46, 131.29 47.24 M0.32 -0.62 C22.26 7.41, 108.81 40.39, 130.69 48.47" stroke="#e03131" stroke-width="2" fill="none"></path></g><g transform="translate(397.3755007569379 347.7668254725787) rotate(0.27348613066688204 65.3140454180737 23.911291506442822)"><path d="M100.69 48.16 C108.55 49.05, 114.5 49.92, 130.69 48.47 M100.69 48.16 C108.43 48.09, 114.41 48.77, 130.69 48.47" stroke="#e03131" stroke-width="2" fill="none"></path></g><g transform="translate(397.3755007569379 347.7668254725787) rotate(0.27348613066688204 65.3140454180737 23.911291506442822)"><path d="M107.91 28.95 C113.99 34.64, 118.16 40.24, 130.69 48.47 M107.91 28.95 C114 33.23, 118.33 38.31, 130.69 48.47" stroke="#e03131" stroke-width="2" fill="none"></path></g></g><mask></mask><g stroke-linecap="round"><g transform="translate(700.8079799471952 351.06199945866535) rotate(0.27348613066688204 -75.33196198170054 24.666384922435753)"><path d="M0.66 -0.58 C-24.45 7.45, -124.31 40.29, -149.53 48.48 M-0.45 1.72 C-25.72 9.86, -124.72 41.62, -149.88 49.57" stroke="#e03131" stroke-width="2" fill="none"></path></g><g transform="translate(700.8079799471952 351.06199945866535) rotate(0.27348613066688204 -75.33196198170054 24.666384922435753)"><path d="M-126.13 31.23 C-136.49 40.54, -146.36 45.96, -149.88 49.57 M-126.13 31.23 C-131.57 35.73, -137.82 38.92, -149.88 49.57" stroke="#e03131" stroke-width="2" fill="none"></path></g><g transform="translate(700.8079799471952 351.06199945866535) rotate(0.27348613066688204 -75.33196198170054 24.666384922435753)"><path d="M-119.9 50.78 C-132.77 52.37, -145.12 50.03, -149.88 49.57 M-119.9 50.78 C-126.97 50.67, -134.68 49.27, -149.88 49.57" stroke="#e03131" stroke-width="2" fill="none"></path></g></g><mask></mask><g stroke-linecap="round" transform="translate(430.20828749034746 498.88821386381153) rotate(0.27348613066688204 54.115028146160114 30.20373663971725)"><path d="M2.16 5.85 C2.16 5.85, 2.16 5.85, 2.16 5.85 M2.16 5.85 C2.16 5.85, 2.16 5.85, 2.16 5.85 M0.98 19.41 C6.37 14.41, 10.25 9.9, 18.04 -0.22 M0.98 19.41 C4.88 14.6, 8.89 9.46, 18.04 -0.22 M0.46 32.2 C7.32 23.13, 11.48 18.89, 28.67 -0.25 M0.46 32.2 C8.29 23.3, 14.23 14.47, 28.67 -0.25 M0.59 44.24 C13.61 29.69, 27.35 13.19, 39.3 -0.29 M0.59 44.24 C15.48 27.87, 29.23 9.8, 39.3 -0.29 M2.04 54.77 C19.69 36.33, 38.63 11.89, 49.93 -0.32 M2.04 54.77 C16.29 39.53, 28.67 23.62, 49.93 -0.32 M8.73 59.27 C20.88 43.24, 35.19 27.76, 59.91 0.4 M8.73 59.27 C21.87 43.64, 35.84 27.54, 59.91 0.4 M18.05 60.74 C31.44 47.29, 44.75 32.55, 70.54 0.36 M18.05 60.74 C39.06 38.31, 57.4 15.16, 70.54 0.36 M28.68 60.71 C43.81 42.27, 58.05 27.8, 81.17 0.33 M28.68 60.71 C42.3 45.34, 54.97 29.79, 81.17 0.33 M39.31 60.67 C53.29 44.8, 67.04 28.41, 91.8 0.3 M39.31 60.67 C51.74 45.68, 66.57 29.7, 91.8 0.3 M49.94 60.64 C68.88 42.94, 83.74 20.88, 101.11 1.77 M49.94 60.64 C65.73 43.87, 79.88 26.57, 101.11 1.77 M60.57 60.6 C73.81 44.95, 84.03 32.4, 107.15 7.02 M60.57 60.6 C76.85 39.13, 95.91 19.29, 107.15 7.02 M71.2 60.57 C83.9 46.46, 94.07 32.64, 108.6 17.55 M71.2 60.57 C81.8 47.43, 93.46 35.3, 108.6 17.55 M81.83 60.53 C90.89 52.28, 96.6 42.82, 108.73 29.59 M81.83 60.53 C88.17 52.89, 95.11 45.83, 108.73 29.59 M92.46 60.5 C94.27 57.58, 98.04 52.66, 108.21 42.39 M92.46 60.5 C99.41 53.49, 104.61 46.29, 108.21 42.39" stroke="#b2f2bb" stroke-width="1" fill="none"></path><path d="M15.1 0 C41.4 -0.7, 69.23 1, 93.13 0 M15.1 0 C35.18 -1.05, 57.1 -0.09, 93.13 0 M93.13 0 C104.77 1.31, 107.19 4.66, 108.23 15.1 M93.13 0 C102.63 0.21, 110.39 3.43, 108.23 15.1 M108.23 15.1 C107.63 25.32, 108.02 38, 108.23 45.31 M108.23 15.1 C108.26 27.04, 107.42 37.66, 108.23 45.31 M108.23 45.31 C107.19 55.07, 104.14 61.34, 93.13 60.41 M108.23 45.31 C107.8 53.22, 104.16 59.69, 93.13 60.41 M93.13 60.41 C63.65 59.8, 34.89 57.9, 15.1 60.41 M93.13 60.41 C66.96 60.74, 42.1 61.64, 15.1 60.41 M15.1 60.41 C6.3 61.76, 0.58 55.4, 0 45.31 M15.1 60.41 C5.25 58.34, -0.77 53.28, 0 45.31 M0 45.31 C1.05 39.1, -0.18 28.41, 0 15.1 M0 45.31 C0.23 36.8, 0.88 27.87, 0 15.1 M0 15.1 C0.81 3.91, 5.57 1.78, 15.1 0 M0 15.1 C-1.2 5.96, 3.87 -2.07, 15.1 0" stroke="#2f9e44" stroke-width="2" fill="none"></path></g><g transform="translate(447.0627107781091 503.92216997043107) rotate(0.27348613066688204 37.26060485839844 25.169780533097708)"><text x="37.26060485839844" y="0" font-family="Virgil, Segoe UI Emoji" font-size="20.135824426478166px" fill="#2f9e44" text-anchor="middle" style="white-space: pre;" direction="ltr" dominant-baseline="text-before-edge">Org2 </text><text x="37.26060485839844" y="25.169780533097708" font-family="Virgil, Segoe UI Emoji" font-size="20.135824426478166px" fill="#2f9e44" text-anchor="middle" style="white-space: pre;" direction="ltr" dominant-baseline="text-before-edge">Member1</text></g><g stroke-linecap="round" transform="translate(578.7263220427008 495.8216204064833) rotate(0.27348613066688204 54.11502814616006 30.20373663971725)"><path d="M2.16 5.85 C2.16 5.85, 2.16 5.85, 2.16 5.85 M2.16 5.85 C2.16 5.85, 2.16 5.85, 2.16 5.85 M0.98 19.41 C4.62 13.96, 8.93 7.74, 18.04 -0.22 M0.98 19.41 C5.42 14.59, 11.67 8.2, 18.04 -0.22 M0.46 32.2 C5.98 26.96, 12.53 19.57, 28.67 -0.25 M0.46 32.2 C8.22 24.59, 14.94 15.99, 28.67 -0.25 M0.59 44.24 C15.08 30.17, 24.67 15.18, 39.3 -0.29 M0.59 44.24 C14.08 30.93, 25.03 15.98, 39.3 -0.29 M2.04 54.77 C20.23 33.38, 39.69 13.45, 49.93 -0.32 M2.04 54.77 C17.18 38.24, 32.61 19.1, 49.93 -0.32 M8.73 59.27 C22.6 43.67, 38.2 25.59, 59.91 0.4 M8.73 59.27 C24.9 39.3, 42.02 20.96, 59.91 0.4 M18.05 60.74 C36.44 38.83, 53.26 22, 70.54 0.36 M18.05 60.74 C37.94 37.46, 58.63 15.76, 70.54 0.36 M28.68 60.71 C39.72 46.45, 52.57 33.01, 81.17 0.33 M28.68 60.71 C45.62 41.01, 62.66 21.87, 81.17 0.33 M39.31 60.67 C56.3 39.7, 76.74 18.3, 91.8 0.3 M39.31 60.67 C57.74 39.13, 75.92 18.82, 91.8 0.3 M49.94 60.64 C69.88 35.88, 89.14 15.74, 101.11 1.77 M49.94 60.64 C64.23 44.05, 79.13 27.65, 101.11 1.77 M60.57 60.6 C73.31 49.76, 84.16 33.96, 107.15 7.02 M60.57 60.6 C70.29 49.36, 80.07 38.48, 107.15 7.02 M71.2 60.57 C82.37 47.56, 93.15 34.56, 108.6 17.55 M71.2 60.57 C79.11 52.19, 87.17 42.57, 108.6 17.55 M81.83 60.53 C90.06 49.68, 100.07 38.83, 108.73 29.59 M81.83 60.53 C88.44 51.68, 96.94 42.57, 108.73 29.59 M92.46 60.5 C100.2 55.6, 104 49.07, 108.21 42.39 M92.46 60.5 C97.69 55.75, 101.22 50.33, 108.21 42.39" stroke="#a5d8ff" stroke-width="1" fill="none"></path><path d="M15.1 0 C37.98 -0.73, 62.76 -2.06, 93.13 0 M15.1 0 C32.73 0.56, 48.27 -0.28, 93.13 0 M93.13 0 C102.7 0.18, 110.1 3.64, 108.23 15.1 M93.13 0 C104.58 1.06, 109.84 4.18, 108.23 15.1 M108.23 15.1 C109.94 21.56, 106.81 31.73, 108.23 45.31 M108.23 15.1 C107.54 24.66, 108.53 34.99, 108.23 45.31 M108.23 45.31 C107.86 53.5, 104.03 59.78, 93.13 60.41 M108.23 45.31 C110.11 55.83, 101.55 60.76, 93.13 60.41 M93.13 60.41 C70.51 61.07, 48.56 58.71, 15.1 60.41 M93.13 60.41 C73.35 61.48, 52.6 60.82, 15.1 60.41 M15.1 60.41 C5.22 58.61, -0.67 53.55, 0 45.31 M15.1 60.41 C4.16 59.43, -0.72 56.43, 0 45.31 M0 45.31 C-0.15 32.41, 1.51 22.12, 0 15.1 M0 45.31 C0.2 34.9, 0.06 26.51, 0 15.1 M0 15.1 C-1.04 5.84, 4.02 -1.8, 15.1 0 M0 15.1 C0.29 3.16, 4.33 -0.48, 15.1 0" stroke="#1971c2" stroke-width="2" fill="none"></path></g><g transform="translate(595.5807453304624 500.85557651310285) rotate(0.27348613066688204 37.26060485839844 25.169780533097708)"><text x="37.26060485839844" y="0" font-family="Virgil, Segoe UI Emoji" font-size="20.135824426478166px" fill="#1971c2" text-anchor="middle" style="white-space: pre;" direction="ltr" dominant-baseline="text-before-edge">Org3 </text><text x="37.26060485839844" y="25.169780533097708" font-family="Virgil, Segoe UI Emoji" font-size="20.135824426478166px" fill="#1971c2" text-anchor="middle" style="white-space: pre;" direction="ltr" dominant-baseline="text-before-edge">Member1</text></g><g stroke-linecap="round" transform="translate(33.48699170203389 691.3632908779869) rotate(0.27348613066688204 171.10828351794453 98.36003693221042)"><path d="M7.86 8.16 C7.86 8.16, 7.86 8.16, 7.86 8.16 M7.86 8.16 C7.86 8.16, 7.86 8.16, 7.86 8.16 M2.75 26.24 C9.25 20.41, 11.2 15.08, 21.12 5.11 M2.75 26.24 C7.21 21.91, 11.4 16.62, 21.12 5.11 M2.88 38.28 C9.42 29.97, 17.11 18.55, 34.37 2.05 M2.88 38.28 C12.81 26.19, 23.73 15.88, 34.37 2.05 M2.36 51.07 C11.7 41.34, 18.83 32.09, 45 2.02 M2.36 51.07 C17.97 34.75, 32.46 17.48, 45 2.02 M2.49 63.11 C16.25 45.23, 32.57 27.57, 55.63 1.98 M2.49 63.11 C17.98 46.21, 31.34 28.32, 55.63 1.98 M2.62 75.16 C25.97 49.2, 48.73 19.45, 66.26 1.95 M2.62 75.16 C16.08 59.06, 30.17 43.48, 66.26 1.95 M2.76 87.2 C20.5 64.35, 42.92 39.15, 76.89 1.91 M2.76 87.2 C16.77 69.02, 33.85 51.79, 76.89 1.91 M2.89 99.24 C20.69 80.91, 38.32 58.87, 87.52 1.88 M2.89 99.24 C25.76 71.68, 48.62 45.75, 87.52 1.88 M2.37 112.03 C31.61 78.42, 59.92 46.36, 98.15 1.85 M2.37 112.03 C31.08 80.4, 60.03 48.28, 98.15 1.85 M2.5 124.07 C34.82 89.17, 67.35 49.09, 108.78 1.81 M2.5 124.07 C40.19 82.92, 75.06 40.89, 108.78 1.81 M2.63 136.11 C41.98 91.74, 81.07 45.48, 119.41 1.78 M2.63 136.11 C40.19 93.54, 77.59 50.52, 119.41 1.78 M2.77 148.16 C49.1 96.48, 92.16 49.59, 130.04 1.74 M2.77 148.16 C35.64 110.85, 70.19 71.23, 130.04 1.74 M2.9 160.2 C39.27 119.57, 77.1 75.89, 140.67 1.71 M2.9 160.2 C37.31 121.47, 70.75 81.38, 140.67 1.71 M1.72 173.75 C49.69 116.31, 94.56 63.92, 150.65 2.43 M1.72 173.75 C38.57 131.58, 75.41 88.13, 150.65 2.43 M5.13 182.01 C52.24 127.25, 98.69 74.2, 161.28 2.39 M5.13 182.01 C43.84 136.81, 83.18 91.2, 161.28 2.39 M9.86 188.77 C63.98 126.97, 117.49 66.11, 171.91 2.36 M9.86 188.77 C61.98 130.08, 112.9 71.77, 171.91 2.36 M15.24 194.78 C69.58 130.82, 125.71 65.02, 182.54 2.32 M15.24 194.78 C61.29 139.89, 109.3 84.05, 182.54 2.32 M24.56 196.25 C87.07 122.77, 151.37 48.48, 193.17 2.29 M24.56 196.25 C68.34 146.37, 112.84 95.16, 193.17 2.29 M33.88 197.72 C97.9 126.86, 159.37 54.47, 203.8 2.26 M33.88 197.72 C84.56 138.92, 136.77 79.49, 203.8 2.26 M43.85 198.45 C106.5 125.48, 172.18 50.66, 214.43 2.22 M43.85 198.45 C95.59 139.3, 146.16 80.51, 214.43 2.22 M54.48 198.41 C107.87 136.56, 161.9 71.67, 225.06 2.19 M54.48 198.41 C100.93 147.05, 144.27 95.2, 225.06 2.19 M65.11 198.38 C121.21 133.48, 178.7 68.23, 235.69 2.15 M65.11 198.38 C102.25 156.07, 138.77 113.88, 235.69 2.15 M75.74 198.34 C114.25 155.07, 149.82 113.45, 246.32 2.12 M75.74 198.34 C124.53 140.11, 175.73 82.72, 246.32 2.12 M86.37 198.31 C152.04 123.63, 216.32 51.07, 256.95 2.08 M86.37 198.31 C121 157.91, 155.75 118.81, 256.95 2.08 M97 198.27 C159.15 128.94, 222.31 55.32, 267.58 2.05 M97 198.27 C154.58 131.11, 212.09 66.63, 267.58 2.05 M107.63 198.24 C164.83 132.48, 224.55 67.23, 278.21 2.01 M107.63 198.24 C150.01 151.94, 190.38 104.19, 278.21 2.01 M118.26 198.2 C154.92 155.7, 189.72 115.37, 288.84 1.98 M118.26 198.2 C172.99 135.41, 228.46 73.66, 288.84 1.98 M128.89 198.17 C190.18 129.85, 250.32 61.13, 299.47 1.94 M128.89 198.17 C180.76 138.37, 232.95 78.03, 299.47 1.94 M139.52 198.13 C190.21 139.36, 240.55 81.46, 311.41 0.4 M139.52 198.13 C200.77 126.64, 263.04 55.08, 311.41 0.4 M150.15 198.1 C192.61 149.59, 236.99 99.07, 320.07 2.63 M150.15 198.1 C210.5 125.53, 273.44 54.73, 320.07 2.63 M160.78 198.07 C205.29 150.37, 247.33 102.03, 328.08 5.61 M160.78 198.07 C224.41 124.17, 289.12 50.39, 328.08 5.61 M171.41 198.03 C207.25 160.02, 240.52 122.49, 335.43 9.35 M171.41 198.03 C236.21 126.85, 298.91 53.67, 335.43 9.35 M182.04 198 C219.94 152.82, 257.59 106.93, 340.81 15.36 M182.04 198 C228.16 145.14, 274.66 91.43, 340.81 15.36 M192.67 197.96 C231 154.62, 269.11 113.18, 345.53 22.11 M192.67 197.96 C241.61 140.19, 289.91 84.46, 345.53 22.11 M203.3 197.93 C246.39 146.62, 291.17 94.97, 345.01 34.91 M203.3 197.93 C260.16 131.67, 316.56 67.5, 345.01 34.91 M213.93 197.89 C260.58 145.07, 304.82 96.71, 345.14 46.95 M213.93 197.89 C256.15 150.63, 298.4 100.84, 345.14 46.95 M224.56 197.86 C251.65 164.12, 280.28 132.7, 345.28 58.99 M224.56 197.86 C273.05 142.39, 318.64 88.96, 345.28 58.99 M235.19 197.82 C271.95 151.88, 310.75 109.59, 345.41 71.03 M235.19 197.82 C271.01 153.5, 309.36 112.25, 345.41 71.03 M245.82 197.79 C276.12 163.87, 304.11 130.81, 345.54 83.07 M245.82 197.79 C282.89 155.63, 318.88 114.8, 345.54 83.07 M256.45 197.76 C277.79 170.45, 301.56 145.48, 345.02 95.87 M256.45 197.76 C282.03 167.67, 307.58 137.46, 345.02 95.87 M267.08 197.72 C283.6 176.07, 302.68 156.06, 345.15 107.91 M267.08 197.72 C283.03 179.91, 299.32 161.65, 345.15 107.91 M277.06 198.44 C302.43 172.06, 323.38 143.19, 345.29 119.95 M277.06 198.44 C301.74 171.73, 324.1 144, 345.29 119.95 M287.69 198.41 C305.78 176.75, 324.61 153.06, 345.42 131.99 M287.69 198.41 C310.82 172.02, 334.51 147.12, 345.42 131.99 M298.32 198.37 C315.02 178.58, 335.37 154.82, 345.55 144.03 M298.32 198.37 C317.64 177.63, 334.9 156.21, 345.55 144.03 M310.26 196.83 C317.17 187.17, 326.8 177.77, 345.03 156.83 M310.26 196.83 C323.2 181.18, 337.81 165.87, 345.03 156.83 M322.2 195.28 C328.28 189.99, 331.98 183.9, 341.88 172.64 M322.2 195.28 C330.57 186.15, 337.76 178.21, 341.88 172.64" stroke="#ffc9c9" stroke-width="1" fill="none"></path><path d="M32 0 C113.47 2.2, 197.73 2.69, 310.22 0 M310.22 0 C332.86 -1.04, 341.84 10.17, 342.22 32 M342.22 32 C344.67 73.93, 344.86 113.28, 342.22 164.72 M342.22 164.72 C341.55 185.71, 332.68 198.48, 310.22 196.72 M310.22 196.72 C249.23 196.41, 186.2 196.49, 32 196.72 M32 196.72 C10.37 197.66, 0.93 185.68, 0 164.72 M0 164.72 C1.08 137.74, -1.98 110.27, 0 32 M0 32 C-0.05 11.99, 8.72 0.59, 32 0" stroke="#e03131" stroke-width="2.5" fill="none" stroke-dasharray="8 10"></path></g><g stroke-linecap="round" transform="translate(423.64756351562863 688.2253244076948) rotate(0.27348613066688204 178.1746443479242 96.22744629991831)"><path d="M7.86 8.16 C7.86 8.16, 7.86 8.16, 7.86 8.16 M7.86 8.16 C7.86 8.16, 7.86 8.16, 7.86 8.16 M1.43 27.75 C8.08 18.45, 15.84 10.96, 24.4 1.33 M1.43 27.75 C8.45 19.96, 14.77 11.79, 24.4 1.33 M0.91 40.54 C13.89 22.75, 28.94 7.06, 36.34 -0.21 M0.91 40.54 C11.42 30.01, 19.17 18.15, 36.34 -0.21 M1.04 52.58 C11.44 39.93, 26.29 23.25, 46.97 -0.25 M1.04 52.58 C11.82 40.1, 22.97 26.15, 46.97 -0.25 M1.18 64.62 C18.55 44.09, 35.05 24.32, 57.6 -0.28 M1.18 64.62 C22.53 37.89, 46.51 12.31, 57.6 -0.28 M1.31 76.67 C26.86 44.53, 52.49 16.33, 67.57 0.44 M1.31 76.67 C23.87 51.34, 45.46 26.38, 67.57 0.44 M1.44 88.71 C28.54 57.4, 52.15 30.4, 78.2 0.41 M1.44 88.71 C31.07 56.95, 57.22 23.99, 78.2 0.41 M0.92 101.5 C27 70.77, 51.74 40.86, 88.83 0.37 M0.92 101.5 C36.03 61.42, 71.22 20.98, 88.83 0.37 M1.05 113.54 C35.46 74.47, 68.97 33.95, 99.46 0.34 M1.05 113.54 C24.71 87.57, 47.44 61.11, 99.46 0.34 M1.19 125.58 C23.73 97.95, 44.93 74.36, 110.09 0.3 M1.19 125.58 C25.79 95.08, 53.27 64.11, 110.09 0.3 M1.32 137.62 C35.6 96.92, 69.52 59.03, 120.72 0.27 M1.32 137.62 C32.68 101.59, 63.87 65.93, 120.72 0.27 M1.45 149.67 C37.06 111.31, 71.07 68.89, 131.35 0.23 M1.45 149.67 C37.81 107.77, 71.83 67.33, 131.35 0.23 M0.93 162.46 C30.87 127.94, 59.62 93.49, 141.98 0.2 M0.93 162.46 C42.22 113.24, 84.81 66.45, 141.98 0.2 M2.38 172.99 C57.43 108.74, 115.82 41.63, 152.61 0.16 M2.38 172.99 C44.4 123.33, 86.82 75.14, 152.61 0.16 M5.79 181.26 C50.03 130.61, 95.71 77.58, 163.24 0.13 M5.79 181.26 C67.18 110.1, 127.82 40.11, 163.24 0.13 M11.83 186.51 C59.49 132.29, 107.89 75.74, 173.87 0.09 M11.83 186.51 C54.78 137.47, 97.59 89.38, 173.87 0.09 M19.18 190.25 C84.2 114.48, 148.73 40.61, 184.5 0.06 M19.18 190.25 C80.95 118.78, 142.2 49.85, 184.5 0.06 M27.84 192.48 C75.73 136.95, 122.89 84.75, 195.13 0.03 M27.84 192.48 C62.63 152.27, 97.67 112.51, 195.13 0.03 M37.81 193.2 C87.43 134.7, 138.27 75.48, 205.76 -0.01 M37.81 193.2 C84.5 140.62, 131.09 87.16, 205.76 -0.01 M48.44 193.16 C106.12 127.58, 161.22 64.29, 216.39 -0.04 M48.44 193.16 C96.02 137.88, 144.8 83.23, 216.39 -0.04 M59.07 193.13 C109.31 132.77, 161.36 73.07, 227.02 -0.08 M59.07 193.13 C111.92 129.45, 167.4 67.25, 227.02 -0.08 M69.7 193.09 C125.69 129.68, 178.33 66.13, 237.65 -0.11 M69.7 193.09 C115.5 139.91, 161.49 85.54, 237.65 -0.11 M80.33 193.06 C145.11 117.81, 209.31 44.13, 248.28 -0.15 M80.33 193.06 C140.55 125.93, 198.92 57.91, 248.28 -0.15 M90.96 193.02 C135.79 142.68, 179.37 90.05, 258.91 -0.18 M90.96 193.02 C149.16 127.51, 207.68 60.14, 258.91 -0.18 M101.59 192.99 C145.04 142.26, 187.66 94.19, 269.54 -0.22 M101.59 192.99 C160.72 126.59, 219.55 57.79, 269.54 -0.22 M112.22 192.96 C156.29 145.73, 195.97 95.27, 280.17 -0.25 M112.22 192.96 C151.93 145.03, 192.14 98.38, 280.17 -0.25 M122.85 192.92 C172.04 135.92, 223.61 76.17, 290.8 -0.28 M122.85 192.92 C182.85 126.47, 240.66 58.8, 290.8 -0.28 M133.48 192.89 C181.48 138.26, 227.88 82.82, 300.78 0.44 M133.48 192.89 C189.83 127.25, 245.48 62.73, 300.78 0.44 M144.11 192.85 C184.79 145.83, 226.7 100.87, 311.41 0.4 M144.11 192.85 C199.58 129.14, 254.55 66.07, 311.41 0.4 M154.74 192.82 C203.12 137.95, 250.75 83, 322.04 0.37 M154.74 192.82 C217.5 123.24, 277.77 52.77, 322.04 0.37 M165.37 192.78 C214.72 136.29, 264.41 78.92, 332.01 1.09 M165.37 192.78 C214.77 136.17, 262.57 78.53, 332.01 1.09 M176 192.75 C220.24 142.64, 264.05 90.4, 340.67 3.32 M176 192.75 C220.15 139.6, 264.06 88.07, 340.67 3.32 M186.63 192.71 C247.77 119.83, 310.56 51.08, 347.37 7.81 M186.63 192.71 C224 149.31, 261.77 104.61, 347.37 7.81 M197.26 192.68 C254.44 129.33, 309.51 63.03, 352.75 13.81 M197.26 192.68 C258.58 122.56, 320.96 52.27, 352.75 13.81 M207.24 193.4 C256.41 136.65, 309.16 77.96, 354.85 23.59 M207.24 193.4 C255.91 138.9, 305.39 82.25, 354.85 23.59 M217.87 193.37 C272.92 132.52, 326.8 68.15, 356.3 34.12 M217.87 193.37 C253.85 150.41, 288.94 110.01, 356.3 34.12 M228.5 193.33 C263.88 153.53, 303.97 109.83, 356.43 46.16 M228.5 193.33 C271.25 142.8, 317.65 91.1, 356.43 46.16 M239.13 193.3 C275.27 153.17, 313.59 110.45, 356.56 58.2 M239.13 193.3 C286.63 141.97, 331.51 88.32, 356.56 58.2 M249.76 193.26 C278.7 158.83, 308.46 126.04, 356.7 70.24 M249.76 193.26 C278.46 160.92, 308.25 126.71, 356.7 70.24 M260.39 193.23 C294.24 155.82, 328.9 116.71, 356.83 82.28 M260.39 193.23 C288.63 159.93, 317.8 125.41, 356.83 82.28 M271.02 193.19 C292.78 168, 311.91 146.91, 356.31 95.08 M271.02 193.19 C293.09 168.37, 315.24 142.07, 356.31 95.08 M281.65 193.16 C300.22 168.48, 321.73 145.05, 356.44 107.12 M281.65 193.16 C303.5 166.14, 327.01 141.57, 356.44 107.12 M292.28 193.12 C307.76 173.07, 328.17 152.59, 356.57 119.16 M292.28 193.12 C310.04 174.84, 326.86 154.02, 356.57 119.16 M302.91 193.09 C320.91 171.43, 339.47 153.73, 356.71 131.2 M302.91 193.09 C318.16 174.64, 334.18 155.79, 356.71 131.2 M313.54 193.05 C327.15 177.88, 339.81 165.51, 356.84 143.24 M313.54 193.05 C324.11 181.9, 334.1 169.96, 356.84 143.24 M324.83 192.27 C332.04 183.56, 342.68 172.32, 356.32 156.04 M324.83 192.27 C337.72 178.1, 349.92 164.36, 356.32 156.04 M336.77 190.72 C342.97 183.77, 350.85 175.97, 356.45 168.08 M336.77 190.72 C343.1 183.9, 348.72 177.11, 356.45 168.08" stroke="#b2f2bb" stroke-width="1" fill="none"></path><path d="M32 0 C99.7 0.16, 168.01 -1.79, 324.35 0 M324.35 0 C345.31 -0.49, 356.53 12.54, 356.35 32 M356.35 32 C358.52 60.85, 356.45 90.84, 356.35 160.45 M356.35 160.45 C357.48 183.55, 344.09 191.09, 324.35 192.45 M324.35 192.45 C227.54 190.42, 133.15 191.9, 32 192.45 M32 192.45 C11.6 192.08, -1.87 182.63, 0 160.45 M0 160.45 C-2.48 126.24, -1.1 92.75, 0 32 M0 32 C-1.95 11.26, 12.08 1.84, 32 0" stroke="#2f9e44" stroke-width="2.5" fill="none" stroke-dasharray="8 10"></path></g><g stroke-linecap="round"><g transform="translate(384.39481252770275 375.10531342706247) rotate(0.27348613066688204 5.0339561066195415 259.87798400423384)"><path d="M0.94 0.79 C2.42 87.35, 7.97 433.02, 9.44 519.53" stroke="#1e1e1e" stroke-width="2.5" fill="none" stroke-dasharray="8 10"></path></g></g><mask></mask><g transform="translate(126.65485248011345 708.9086423789803) rotate(0 88.5699234008789 12.5)"><text x="0" y="0" font-family="Virgil, Segoe UI Emoji" font-size="20px" fill="#1e1e1e" text-anchor="start" style="white-space: pre;" direction="ltr" dominant-baseline="text-before-edge">Environment-Fabric</text></g><g transform="translate(512.7006436138925 705.5051297961506) rotate(0 104.14990234375 12.5)"><text x="0" y="0" font-family="Virgil, Segoe UI Emoji" font-size="20px" fill="#1e1e1e" text-anchor="start" style="white-space: pre;" direction="ltr" dominant-baseline="text-before-edge">Environment-Ethereum</text></g><g stroke-linecap="round" transform="translate(67.61894040288229 778.5416014638674) rotate(0 33.027421935206604 27.44453123531548)"><path d="M42.47 0.91 C48.91 2.21, 56.61 8.31, 60.65 13.18 C64.68 18.05, 67.65 24.35, 66.67 30.13 C65.69 35.92, 60.05 43.85, 54.74 47.88 C49.43 51.9, 41.91 54.14, 34.8 54.28 C27.7 54.43, 17.82 52.15, 12.13 48.76 C6.44 45.37, 1.99 39.63, 0.66 33.95 C-0.67 28.27, 1.03 19.91, 4.14 14.67 C7.26 9.44, 12.52 4.52, 19.34 2.55 C26.16 0.57, 40.34 2.79, 45.07 2.81 C49.8 2.83, 47.87 2.41, 47.74 2.69 M44.84 2.88 C51.46 4.19, 57.07 7.79, 60.63 12.73 C64.2 17.66, 67.05 26.42, 66.22 32.49 C65.39 38.57, 61.01 45.43, 55.65 49.17 C50.29 52.9, 41.25 55.19, 34.04 54.9 C26.83 54.61, 18.04 51.36, 12.39 47.43 C6.73 43.5, 1.58 36.98, 0.11 31.32 C-1.36 25.67, 0.13 18.31, 3.57 13.51 C7 8.7, 13.8 4.56, 20.72 2.52 C27.63 0.48, 41.38 1.37, 45.05 1.27 C48.72 1.16, 43.3 1.21, 42.75 1.87" stroke="#1e1e1e" stroke-width="2" fill="none"></path></g><g transform="translate(83.31246022445043 796.0799185562054) rotate(0 17.47998809814453 10)"><text x="17.47998809814453" y="0" font-family="Virgil, Segoe UI Emoji" font-size="16px" fill="#1e1e1e" text-anchor="middle" style="white-space: pre;" direction="ltr" dominant-baseline="text-before-edge">Peer</text></g><g stroke-linecap="round" transform="translate(261.72639430204134 755.6669633773301) rotate(0 49.138359464575956 49.5)"><path d="M41.83 -0.1 C49.29 -2.16, 58.02 0.46, 65.58 3.37 C73.15 6.28, 82.03 11.15, 87.22 17.37 C92.4 23.6, 95.4 32.42, 96.7 40.72 C98.01 49.03, 97.67 59.44, 95.04 67.22 C92.42 75.01, 87.37 82.2, 80.93 87.45 C74.48 92.7, 64.6 97.18, 56.4 98.73 C48.19 100.27, 39.18 99.78, 31.7 96.71 C24.21 93.65, 16.62 86.84, 11.48 80.34 C6.33 73.84, 2.13 65.91, 0.84 57.73 C-0.45 49.55, 0.87 38.88, 3.74 31.27 C6.62 23.66, 11 17.34, 18.11 12.07 C25.22 6.8, 41.14 1.45, 46.4 -0.33 C51.65 -2.11, 49.64 0.37, 49.63 1.38 M65.58 1.45 C73 3.15, 80.72 9.52, 85.93 15.9 C91.15 22.28, 95.35 31.28, 96.86 39.73 C98.38 48.18, 97.44 58.76, 95.03 66.61 C92.62 74.46, 88.69 81.61, 82.41 86.84 C76.14 92.07, 65.82 96.26, 57.4 98 C48.98 99.75, 39.48 99.94, 31.9 97.3 C24.31 94.65, 16.91 88.54, 11.91 82.12 C6.9 75.7, 3.3 67.1, 1.88 58.78 C0.46 50.47, 0.78 39.82, 3.39 32.24 C6 24.65, 11.56 18.4, 17.54 13.27 C23.53 8.14, 31.44 3.42, 39.29 1.45 C47.15 -0.52, 60.34 1.28, 64.67 1.45 C69.01 1.63, 65.52 1.56, 65.3 2.51" stroke="#1e1e1e" stroke-width="2" fill="none"></path></g><g transform="translate(281.1867102544741 795.165177708596) rotate(0 29.431976318359375 10)"><text x="29.431976318359375" y="0" font-family="Virgil, Segoe UI Emoji" font-size="16px" fill="#1e1e1e" text-anchor="middle" style="white-space: pre;" direction="ltr" dominant-baseline="text-before-edge">Orderer</text></g><g stroke-linecap="round" transform="translate(164.5105593022733 772.2739033476605) rotate(0 35.038843848899546 32.8358677357615)"><path d="M21.68 1.99 C27.47 -0.92, 35.53 -1.3, 42.15 0.35 C48.77 1.99, 56.7 6.93, 61.41 11.85 C66.12 16.78, 69.98 23.5, 70.42 29.9 C70.86 36.3, 67.76 44.59, 64.07 50.26 C60.39 55.93, 54.44 61.62, 48.3 63.92 C42.16 66.23, 33.84 65.7, 27.24 64.09 C20.63 62.48, 13.07 59.18, 8.67 54.27 C4.26 49.35, 1.34 40.9, 0.79 34.61 C0.24 28.32, 0.31 22.33, 5.36 16.53 C10.41 10.74, 25.54 2.39, 31.1 -0.15 C36.67 -2.69, 38.74 0.54, 38.75 1.27 M46.8 0.51 C52.95 1.89, 59.59 7.4, 63.37 12.81 C67.15 18.22, 69.66 26.21, 69.5 32.98 C69.34 39.76, 66.28 48.28, 62.42 53.46 C58.56 58.64, 52.98 62.37, 46.34 64.07 C39.71 65.77, 29.46 65.58, 22.61 63.67 C15.77 61.75, 9.02 57.8, 5.26 52.59 C1.51 47.39, -0.42 39.03, 0.07 32.44 C0.57 25.85, 3.97 18.38, 8.23 13.06 C12.49 7.74, 19.15 2.17, 25.62 0.53 C32.09 -1.12, 43.72 2.77, 47.06 3.19 C50.4 3.62, 46.03 3.01, 45.65 3.08" stroke="#1e1e1e" stroke-width="2" fill="none"></path></g><g transform="translate(189.37321279358957 794.8913063413205) rotate(0 10.399986267089844 10)"><text x="10.399986267089844" y="0" font-family="Virgil, Segoe UI Emoji" font-size="16px" fill="#1e1e1e" text-anchor="middle" style="white-space: pre;" direction="ltr" dominant-baseline="text-before-edge">CA</text></g><g stroke-linecap="round" transform="translate(461.32471618881885 744.3740492620826) rotate(0 59.290964901618395 54.355593904672446)"><path d="M42.34 2.7 C50.69 -0.28, 62.43 -0.78, 71.31 0.86 C80.19 2.49, 88.59 7.03, 95.61 12.49 C102.62 17.95, 109.57 26.06, 113.4 33.6 C117.23 41.14, 119.23 49.47, 118.61 57.73 C118 65.98, 114.51 76.04, 109.72 83.14 C104.93 90.23, 97.78 95.94, 89.87 100.31 C81.97 104.68, 71.42 108.9, 62.29 109.36 C53.16 109.83, 43.51 106.74, 35.08 103.12 C26.65 99.49, 17.32 94.14, 11.7 87.62 C6.07 81.1, 2.67 72.31, 1.33 63.99 C-0.02 55.67, 0.85 45.8, 3.63 37.7 C6.41 29.61, 10.48 21.67, 18 15.45 C25.53 9.23, 42.41 2.84, 48.76 0.39 C55.11 -2.06, 55.87 -0.15, 56.11 0.75 M72.02 1.29 C80.35 2.56, 90.07 8.76, 97.16 14.36 C104.25 19.96, 110.86 27.21, 114.55 34.89 C118.23 42.58, 120.18 52.28, 119.26 60.45 C118.35 68.61, 114.31 76.7, 109.07 83.88 C103.84 91.06, 96.15 99.29, 87.84 103.53 C79.52 107.77, 68.56 109.66, 59.18 109.31 C49.81 108.96, 39.59 105.55, 31.57 101.42 C23.55 97.29, 16.32 91.22, 11.07 84.52 C5.81 77.81, 1.51 69.13, 0.06 61.21 C-1.4 53.28, -0.95 45.06, 2.32 36.98 C5.59 28.89, 12.85 18.68, 19.68 12.72 C26.52 6.75, 34.46 3.02, 43.33 1.19 C52.19 -0.65, 68.22 1.32, 72.87 1.7 C77.53 2.09, 71.38 2.85, 71.27 3.52" stroke="#1e1e1e" stroke-width="2" fill="none"></path></g><g transform="translate(488.83466545537027 788.794434121339) rotate(0 31.855972290039062 10)"><text x="31.855972290039062" y="0" font-family="Virgil, Segoe UI Emoji" font-size="16px" fill="#1e1e1e" text-anchor="middle" style="white-space: pre;" direction="ltr" dominant-baseline="text-before-edge">FullNode</text></g><g stroke-linecap="round" transform="translate(626.4149089476837 741.7255434958977) rotate(0 63.26372355089586 60.094023064739986)"><path d="M77.08 2.07 C86.22 3.44, 97.03 9.74, 104.6 15.68 C112.17 21.62, 118.86 29.17, 122.47 37.71 C126.08 46.26, 127.31 57.73, 126.26 66.93 C125.22 76.14, 121.71 85.13, 116.22 92.94 C110.73 100.76, 101.92 109.37, 93.31 113.83 C84.71 118.3, 74.5 119.71, 64.59 119.72 C54.68 119.72, 42.61 117.95, 33.84 113.86 C25.06 109.77, 17.38 102.82, 11.94 95.18 C6.49 87.54, 2.51 77.33, 1.19 68.01 C-0.14 58.68, 0.83 48.06, 3.98 39.24 C7.14 30.41, 12.97 21.33, 20.11 15.03 C27.25 8.74, 36.54 3.55, 46.82 1.46 C57.11 -0.64, 75.24 1.68, 81.84 2.46 C88.44 3.24, 86.69 5.22, 86.42 6.14 M60.25 0.46 C69.83 -1.01, 81.96 2.02, 90.94 5.74 C99.92 9.45, 108.28 15.15, 114.13 22.75 C119.97 30.34, 124.6 41.88, 126.02 51.29 C127.44 60.71, 125.88 70.84, 122.66 79.25 C119.44 87.65, 113.56 95.53, 106.71 101.73 C99.86 107.93, 90.9 113.61, 81.56 116.45 C72.22 119.29, 60.53 120.12, 50.67 118.76 C40.8 117.4, 29.9 114.28, 22.37 108.28 C14.84 102.27, 9.37 91.59, 5.48 82.74 C1.59 73.9, -1.64 64.23, -0.96 55.22 C-0.28 46.21, 4.42 36.32, 9.56 28.67 C14.7 21.02, 21.33 14.27, 29.89 9.33 C38.46 4.39, 56.04 0.31, 60.96 -0.96 C65.87 -2.23, 59.3 0.59, 59.39 1.71" stroke="#1e1e1e" stroke-width="2" fill="none"></path></g><g transform="translate(651.9084519774151 791.8266753427793) rotate(0 37.535972595214844 10)"><text x="37.535972595214844" y="0" font-family="Virgil, Segoe UI Emoji" font-size="16px" fill="#1e1e1e" text-anchor="middle" style="white-space: pre;" direction="ltr" dominant-baseline="text-before-edge">LightNode</text></g><g stroke-linecap="round" transform="translate(224.42445290541576 596.1189520536032) rotate(0 55.61862108988487 25)"><path d="M12.5 0 C34.67 -2.28, 63 2, 98.74 0 C107.12 -0.16, 112.5 4.88, 111.24 12.5 C108.4 20.53, 112.38 23.83, 111.24 37.5 C107.92 48.54, 109.42 47.33, 98.74 50 C69.31 50.04, 46.43 51.11, 12.5 50 C7.13 50.74, -0.66 44.73, 0 37.5 C-2.21 30.13, -1.13 23.94, 0 12.5 C-1.16 5.86, 5.19 -1.05, 12.5 0" stroke="none" stroke-width="0" fill="#ffec99"></path><path d="M12.5 0 C40.56 1, 71.73 1.79, 98.74 0 M12.5 0 C40.06 0.53, 66.7 0.16, 98.74 0 M98.74 0 C108.49 1.84, 110.3 3.4, 111.24 12.5 M98.74 0 C107.95 1.17, 112.69 5.72, 111.24 12.5 M111.24 12.5 C109.44 20.05, 109.42 28.18, 111.24 37.5 M111.24 12.5 C112.01 18.78, 110.62 25.28, 111.24 37.5 M111.24 37.5 C109.98 47.3, 107.15 50.52, 98.74 50 M111.24 37.5 C112.83 46.06, 108 48.7, 98.74 50 M98.74 50 C71.36 48.54, 40.59 49.8, 12.5 50 M98.74 50 C79.04 50.7, 61.2 48.91, 12.5 50 M12.5 50 C2.67 49.28, 0.06 46.19, 0 37.5 M12.5 50 C2.2 51.57, 1.18 44.25, 0 37.5 M0 37.5 C-0.49 32.72, -0.46 24.37, 0 12.5 M0 37.5 C0.16 29.37, -0.07 21.72, 0 12.5 M0 12.5 C1.96 5, 5.03 -1.68, 12.5 0 M0 12.5 C-1.5 5.72, 3.27 2.25, 12.5 0" stroke="#1e1e1e" stroke-width="2" fill="none"></path></g><g transform="translate(236.91510616082797 601.1189520536032) rotate(0 43.127967834472656 20)"><text x="43.127967834472656" y="0" font-family="Virgil, Segoe UI Emoji" font-size="16px" fill="#1e1e1e" text-anchor="middle" style="white-space: pre;" direction="ltr" dominant-baseline="text-before-edge">X509-</text><text x="43.127967834472656" y="20" font-family="Virgil, Segoe UI Emoji" font-size="16px" fill="#1e1e1e" text-anchor="middle" style="white-space: pre;" direction="ltr" dominant-baseline="text-before-edge">Certifictae</text></g><g stroke-linecap="round"><g transform="translate(225.30728816081063 618.189833438478) rotate(0 -14.932167380824524 -0.07208519298922056)"><path d="M0.45 0.11 C-4.63 0.13, -25.2 -0.08, -30.26 -0.06 M0.02 -0.31 C-4.91 -0.18, -24.18 0.74, -29.23 0.68" stroke="#1e1e1e" stroke-width="2" fill="none"></path></g><g transform="translate(225.30728816081063 618.189833438478) rotate(0 -14.932167380824524 -0.07208519298922056)"><path d="M-15.31 -4.73 C-19.92 -3.35, -24.72 -0.99, -29.23 0.68 M-15.31 -4.73 C-20.17 -2.38, -25.7 -0.89, -29.23 0.68" stroke="#1e1e1e" stroke-width="2" fill="none"></path></g><g transform="translate(225.30728816081063 618.189833438478) rotate(0 -14.932167380824524 -0.07208519298922056)"><path d="M-15.09 5.49 C-19.76 3.37, -24.63 2.24, -29.23 0.68 M-15.09 5.49 C-19.98 4.09, -25.6 1.84, -29.23 0.68" stroke="#1e1e1e" stroke-width="2" fill="none"></path></g></g><mask></mask><g stroke-opacity="0" fill-opacity="0" stroke-linecap="round" transform="translate(101.5199983993906 138.10533422710608) rotate(0 37.54532824850233 37.54532824850234)"><path d="M46.49 1.38 C53.47 2.62, 61.33 7.54, 65.9 12.99 C70.48 18.44, 73.27 26.64, 73.96 34.09 C74.66 41.55, 73.67 51.39, 70.07 57.74 C66.48 64.09, 59.19 69.57, 52.39 72.2 C45.6 74.84, 36.36 75.23, 29.31 73.58 C22.25 71.92, 15.01 67.77, 10.08 62.27 C5.14 56.77, 0.51 48.08, -0.3 40.58 C-1.12 33.07, 1.39 23.4, 5.2 17.23 C9.01 11.05, 14.21 5.82, 22.55 3.53 C30.89 1.25, 48.68 2.41, 55.24 3.51 C61.8 4.61, 62.15 9.46, 61.91 10.14 M44.59 0.29 C51.57 1.3, 61.65 5.49, 66.74 11.25 C71.83 17.01, 74.79 27.11, 75.12 34.82 C75.45 42.54, 72.41 51.55, 68.71 57.54 C65.01 63.52, 59.57 67.7, 52.91 70.72 C46.25 73.74, 36.1 77.07, 28.76 75.64 C21.42 74.2, 13.5 67.93, 8.86 62.09 C4.21 56.25, 1.51 47.6, 0.91 40.6 C0.3 33.6, 1.83 26.25, 5.21 20.07 C8.59 13.88, 14.47 6.83, 21.19 3.49 C27.92 0.14, 41.69 0.3, 45.55 -0.03 C49.41 -0.36, 44.31 0.67, 44.38 1.5" stroke="#e03131" stroke-width="1" fill="none"></path></g><g stroke-linecap="round"><g transform="translate(120.61218016545331 189.45341341063394) rotate(0 17.47647954524362 -15.562303138523376)"><path d="M0.55 -0.41 C0.86 -3.88, 0.03 -14.93, 2.82 -20.05 C5.61 -25.16, 12.79 -30.44, 17.27 -31.11 C21.75 -31.78, 26.8 -28.96, 29.71 -24.06 C32.62 -19.16, 39.5 -5.77, 34.71 -1.72 C29.93 2.33, 6.78 -0.1, 1.01 0.23 M-0.63 -1.67 C-0.03 -5.56, 2.05 -17.18, 4.95 -21.87 C7.85 -26.55, 12.59 -29.5, 16.77 -29.79 C20.94 -30.07, 26.66 -28.36, 30 -23.58 C33.33 -18.79, 41.9 -4.92, 36.78 -1.1 C31.66 2.71, 5.29 -0.71, -0.71 -0.68" stroke="#e03131" stroke-width="1" fill="none"></path></g></g><mask></mask><g stroke-linecap="round" transform="translate(129.45255448061852 142.09707492159046) rotate(0 8.947957527164732 7.82946283626918)"><path d="M9.37 -0.06 C11.23 0.07, 14.12 1.57, 15.55 2.8 C16.98 4.03, 17.84 5.76, 17.97 7.31 C18.1 8.87, 17.38 10.79, 16.31 12.15 C15.24 13.51, 13.48 15.04, 11.57 15.48 C9.65 15.91, 6.63 15.58, 4.82 14.76 C3 13.94, 1.47 12.01, 0.69 10.54 C-0.08 9.08, -0.42 7.54, 0.17 5.96 C0.77 4.38, 2.58 2.01, 4.26 1.06 C5.94 0.11, 9.17 0.38, 10.27 0.26 C11.38 0.15, 10.87 0.19, 10.86 0.35 M7.42 -0.32 C9.24 -0.66, 11.46 0.49, 12.96 1.42 C14.46 2.35, 15.65 3.93, 16.41 5.26 C17.18 6.59, 18.06 7.79, 17.57 9.41 C17.07 11.03, 15.11 14, 13.45 14.98 C11.79 15.96, 9.39 15.66, 7.63 15.3 C5.86 14.94, 4.13 13.86, 2.88 12.82 C1.63 11.77, 0.41 10.6, 0.13 9.02 C-0.15 7.44, 0.06 4.89, 1.18 3.35 C2.31 1.82, 6.01 0.32, 6.89 -0.18 C7.76 -0.67, 6.29 0.14, 6.42 0.37" stroke="#e03131" stroke-width="1" fill="none"></path></g><g transform="translate(124.03290553129199 193.12588884800232) rotate(0 14.367606476491346 8.039180590812073)"><text x="14.367606476491343" y="0" font-family="Virgil, Segoe UI Emoji" font-size="12.862688945299315px" fill="#e03131" text-anchor="middle" style="white-space: pre;" direction="ltr" dominant-baseline="text-before-edge">User</text></g><g stroke-opacity="0" fill-opacity="0" stroke-linecap="round" transform="translate(339.8533317327239 136.43866756043928) rotate(0 38.37866158183573 38.378661581835715)"><path d="M20.86 4.64 C27.03 0.59, 36.96 -1.4, 44.4 -0.32 C51.84 0.76, 60.32 5.69, 65.51 11.13 C70.69 16.57, 74.18 24.86, 75.51 32.34 C76.84 39.83, 76.55 49.34, 73.48 56.06 C70.41 62.78, 63.93 69.37, 57.1 72.69 C50.27 76, 40.17 76.97, 32.49 75.94 C24.82 74.92, 16.41 71.7, 11.06 66.56 C5.7 61.41, 1.49 52.57, 0.36 45.07 C-0.77 37.56, 0.41 28.57, 4.3 21.53 C8.19 14.5, 19.53 6.24, 23.7 2.87 C27.88 -0.51, 28.91 0.55, 29.33 1.26 M41.44 1.4 C48.78 1.55, 58.35 6.46, 63.96 11.01 C69.58 15.56, 73.6 21.63, 75.12 28.71 C76.63 35.78, 75.97 46.39, 73.05 53.45 C70.12 60.51, 63.97 67.3, 57.57 71.07 C51.17 74.84, 41.83 76.71, 34.64 76.07 C27.46 75.43, 20.09 72.29, 14.46 67.24 C8.82 62.19, 2.68 53.33, 0.85 45.75 C-0.97 38.17, 0.32 28.42, 3.49 21.77 C6.67 15.13, 13.47 9.26, 19.91 5.9 C26.35 2.54, 38.46 2.5, 42.15 1.61 C45.84 0.71, 42.24 0.19, 42.03 0.53" stroke="#e03131" stroke-width="1" fill="none"></path></g><g stroke-linecap="round"><g transform="translate(359.36927198523307 188.92643756523418) rotate(0 17.864376885173044 -15.907714579939856)"><path d="M-1.16 -0.01 C-0.37 -3.4, 1.95 -15.44, 5.04 -20.64 C8.14 -25.83, 13.34 -30.79, 17.41 -31.18 C21.47 -31.56, 26.34 -27.64, 29.44 -22.95 C32.55 -18.25, 40.85 -6.97, 36.04 -3.01 C31.23 0.95, 6.44 0.14, 0.58 0.81 M0.43 -1.06 C1.13 -4.79, 1.92 -17.17, 4.64 -22.52 C7.37 -27.88, 12.68 -33.34, 16.78 -33.19 C20.88 -33.04, 26.25 -26.64, 29.24 -21.62 C32.23 -16.59, 39.83 -6.69, 34.73 -3.05 C29.63 0.58, 4.71 -0.35, -1.36 0.19" stroke="#e03131" stroke-width="1" fill="none"></path></g></g><mask></mask><g stroke-linecap="round" transform="translate(368.4058618867213 140.5190065102571) rotate(0 9.146560965208607 8.003240844557553)"><path d="M9.82 0.14 C11.58 0.22, 13.59 1.19, 15.05 2.4 C16.51 3.61, 18.2 5.71, 18.56 7.4 C18.93 9.09, 18.39 11.21, 17.23 12.55 C16.07 13.89, 13.6 14.92, 11.61 15.45 C9.62 15.98, 7.07 16.33, 5.29 15.7 C3.5 15.08, 1.71 13.29, 0.89 11.71 C0.08 10.14, 0.01 7.91, 0.41 6.25 C0.81 4.58, 1.61 2.82, 3.29 1.72 C4.98 0.63, 9.24 -0.17, 10.52 -0.33 C11.8 -0.5, 11.02 0.59, 10.96 0.74 M11.48 0.98 C13.3 1.07, 15.11 1.43, 16.19 2.69 C17.27 3.94, 18.09 6.72, 17.98 8.51 C17.87 10.3, 16.85 12.21, 15.52 13.4 C14.19 14.6, 11.8 15.49, 10.01 15.7 C8.21 15.91, 6.35 15.65, 4.74 14.65 C3.12 13.64, 0.94 11.44, 0.31 9.67 C-0.31 7.9, 0.08 5.47, 0.97 4.03 C1.87 2.6, 3.95 1.58, 5.7 1.07 C7.45 0.55, 10.52 1.1, 11.47 0.96 C12.42 0.81, 11.52 0.21, 11.4 0.19" stroke="#e03131" stroke-width="1" fill="none"></path></g><g transform="translate(362.86592169651004 192.68042503993382) rotate(0 14.68650115541999 8.217613367179595)"><text x="14.686501155419986" y="0" font-family="Virgil, Segoe UI Emoji" font-size="13.148181387487357px" fill="#e03131" text-anchor="middle" style="white-space: pre;" direction="ltr" dominant-baseline="text-before-edge">User</text></g><g stroke-opacity="0" fill-opacity="0" stroke-linecap="round" transform="translate(553.1866650660575 134.77200089377277) rotate(0 40.878661581835615 40.87866158183564)"><path d="M47.53 1.31 C54.55 2.08, 62.95 6.17, 68.5 11.09 C74.05 16.01, 79.08 23.68, 80.82 30.83 C82.57 37.97, 81.24 47.13, 78.97 53.97 C76.7 60.82, 72.73 67.16, 67.19 71.9 C61.65 76.64, 53.13 81.58, 45.74 82.42 C38.34 83.26, 29.32 80.42, 22.81 76.93 C16.31 73.44, 10.38 67.7, 6.72 61.49 C3.06 55.27, 0.59 47.05, 0.85 39.66 C1.11 32.27, 4.34 23.3, 8.26 17.15 C12.18 10.99, 16.18 5.05, 24.38 2.74 C32.59 0.43, 50.67 2.2, 57.5 3.27 C64.33 4.34, 65.67 8.34, 65.34 9.16 M41.35 -1.45 C48.56 -1.74, 58.04 2.56, 64.21 7.04 C70.38 11.52, 75.47 18.87, 78.36 25.43 C81.25 31.99, 82.75 39.4, 81.53 46.39 C80.31 53.38, 75.97 61.55, 71.03 67.35 C66.09 73.15, 58.7 79.03, 51.9 81.2 C45.1 83.37, 37.2 82.66, 30.23 80.36 C23.26 78.06, 15.05 72.8, 10.1 67.41 C5.15 62.02, 1.65 55.23, 0.54 48.02 C-0.58 40.81, 0.36 31.18, 3.4 24.14 C6.44 17.09, 12.48 9.77, 18.76 5.75 C25.04 1.74, 37.21 1.03, 41.06 0.05 C44.91 -0.93, 41.84 -0.82, 41.88 -0.15" stroke="#e03131" stroke-width="1" fill="none"></path></g><g stroke-linecap="round"><g transform="translate(573.9738807779056 190.6788433623684) rotate(0 19.028068904961174 -16.943948904189213)"><path d="M0.43 -0.48 C0.91 -4.5, 0.65 -17.51, 3.76 -23.12 C6.87 -28.73, 14.29 -33.9, 19.07 -34.13 C23.86 -34.35, 29.29 -29.64, 32.48 -24.49 C35.66 -19.33, 43.55 -7.39, 38.19 -3.19 C32.82 1.02, 6.8 0.13, 0.28 0.74 M-0.81 -1.77 C-0.61 -5.13, -0.71 -16.74, 2.55 -21.93 C5.8 -27.13, 13.68 -32.73, 18.73 -32.93 C23.78 -33.14, 29.82 -28.11, 32.83 -23.16 C35.84 -18.21, 42.56 -7.12, 36.78 -3.24 C31.01 0.63, 4.44 -0.35, -1.82 0.09" stroke="#e03131" stroke-width="1" fill="none"></path></g></g><mask></mask><g stroke-linecap="round" transform="translate(583.599117438363 139.11813460959073) rotate(0 9.742371279340148 8.524574869422636)"><path d="M11.55 0.17 C13.48 0.36, 15.43 1.8, 16.81 3.12 C18.18 4.44, 19.69 6.2, 19.79 8.08 C19.9 9.96, 18.83 12.99, 17.46 14.41 C16.09 15.84, 13.6 16.42, 11.59 16.64 C9.58 16.87, 7.17 16.63, 5.41 15.78 C3.65 14.94, 1.75 13.31, 1.02 11.58 C0.3 9.86, 0.5 7.2, 1.06 5.43 C1.63 3.66, 2.66 1.88, 4.42 0.97 C6.17 0.07, 10.37 0.13, 11.58 0.01 C12.8 -0.1, 11.76 0.05, 11.7 0.29 M9.94 -0.73 C12.03 -0.7, 15 0.83, 16.59 2.25 C18.18 3.67, 19.19 6.05, 19.47 7.78 C19.75 9.5, 19.4 11.17, 18.28 12.6 C17.15 14.02, 14.74 15.61, 12.73 16.35 C10.71 17.1, 8.02 17.64, 6.2 17.07 C4.37 16.5, 2.77 14.61, 1.78 12.92 C0.79 11.23, -0.06 8.65, 0.24 6.95 C0.54 5.25, 2 3.83, 3.56 2.7 C5.11 1.57, 8.56 0.64, 9.59 0.16 C10.61 -0.31, 9.67 -0.29, 9.7 -0.17" stroke="#e03131" stroke-width="1" fill="none"></path></g><g transform="translate(577.6983035254975 194.67736694906188) rotate(0 15.643185192205863 8.752911696282133)"><text x="15.643185192205841" y="0" font-family="Virgil, Segoe UI Emoji" font-size="14.004658714051414px" fill="#e03131" text-anchor="middle" style="white-space: pre;" direction="ltr" dominant-baseline="text-before-edge">User</text></g><g stroke-linecap="round"><g transform="translate(350.22755296094493 193.52342068998348) rotate(0 -64.07078582531557 42.96265874204938)"><path d="M-0.87 0.37 C-22.27 14.56, -105.88 71.32, -127.25 85.52 M0.87 -0.48 C-20.71 13.84, -106.47 72.31, -127.73 86.85" stroke="#e03131" stroke-width="2" fill="none"></path></g><g transform="translate(350.22755296094493 193.52342068998348) rotate(0 -64.07078582531557 42.96265874204938)"><path d="M-110.23 62.49 C-116.43 73.46, -124.63 80.06, -127.73 86.85 M-110.23 62.49 C-114.87 69.45, -120.26 75.21, -127.73 86.85" stroke="#e03131" stroke-width="2" fill="none"></path></g><g transform="translate(350.22755296094493 193.52342068998348) rotate(0 -64.07078582531557 42.96265874204938)"><path d="M-98.66 79.44 C-109.49 83.64, -122.25 83.54, -127.73 86.85 M-98.66 79.44 C-106.4 81.74, -114.95 82.88, -127.73 86.85" stroke="#e03131" stroke-width="2" fill="none"></path></g></g><mask></mask><g stroke-linecap="round"><g transform="translate(413.264395188876 203.0614580705395) rotate(0 120.76656243762022 41.718982934633644)"><path d="M-0.56 0.49 C39.71 14.3, 201.38 69.03, 241.54 82.91 M1.35 -0.29 C41.47 13.66, 200.37 69.91, 240.6 84.16" stroke="#e03131" stroke-width="2" fill="none"></path></g><g transform="translate(413.264395188876 203.0614580705395) rotate(0 120.76656243762022 41.718982934633644)"><path d="M210.6 84.43 C220.26 84.5, 227.38 82.56, 240.6 84.16 M210.6 84.43 C220.73 84.46, 230.49 85.32, 240.6 84.16" stroke="#e03131" stroke-width="2" fill="none"></path></g><g transform="translate(413.264395188876 203.0614580705395) rotate(0 120.76656243762022 41.718982934633644)"><path d="M217.45 65.08 C225.1 70.82, 230.21 74.58, 240.6 84.16 M217.45 65.08 C225.29 71.39, 232.82 78.56, 240.6 84.16" stroke="#e03131" stroke-width="2" fill="none"></path></g></g><mask></mask><g stroke-linecap="round"><g transform="translate(133.14020793636814 227.00213075622267) rotate(0 6.712559355762409 33.907599193026186)"><path d="M-0.2 -1.06 C2 9.99, 10.36 55.59, 12.7 66.87 M-1.76 0.99 C0.87 12.12, 12.52 56.86, 15.04 67.91" stroke="#e03131" stroke-width="2" fill="none"></path></g><g transform="translate(133.14020793636814 227.00213075622267) rotate(0 6.712559355762409 33.907599193026186)"><path d="M-1.67 42.99 C1 48.27, 5.52 56.69, 15.04 67.91 M-1.67 42.99 C1.46 48.82, 5.56 53.19, 15.04 67.91" stroke="#e03131" stroke-width="2" fill="none"></path></g><g transform="translate(133.14020793636814 227.00213075622267) rotate(0 6.712559355762409 33.907599193026186)"><path d="M18.26 38.09 C15.78 44.61, 15.15 54.3, 15.04 67.91 M18.26 38.09 C17.39 44.93, 17.46 50.29, 15.04 67.91" stroke="#e03131" stroke-width="2" fill="none"></path></g></g><mask></mask><g stroke-linecap="round"><g transform="translate(586.4224268167745 214.97782546827403) rotate(0 -53.42734510490038 31.02576587837256)"><path d="M-1.09 0.32 C-18.87 10.87, -88.73 52, -106.36 62.4 M0.54 -0.56 C-17.39 9.7, -89.01 50.24, -107.05 60.46" stroke="#e03131" stroke-width="2" fill="none"></path></g><g transform="translate(586.4224268167745 214.97782546827403) rotate(0 -53.42734510490038 31.02576587837256)"><path d="M-87.58 37.64 C-93.59 45.74, -99.9 52.29, -107.05 60.46 M-87.58 37.64 C-94.14 45.34, -101.25 54.82, -107.05 60.46" stroke="#e03131" stroke-width="2" fill="none"></path></g><g transform="translate(586.4224268167745 214.97782546827403) rotate(0 -53.42734510490038 31.02576587837256)"><path d="M-77.46 55.5 C-86.64 57.67, -96.25 58.39, -107.05 60.46 M-77.46 55.5 C-87.66 56.87, -98.38 59.97, -107.05 60.46" stroke="#e03131" stroke-width="2" fill="none"></path></g></g><mask></mask><g stroke-linecap="round"><g transform="translate(602.0164808297084 214.97782546827403) rotate(0 49.77442290909232 38.253085170333854)"><path d="M-0.73 -0.23 C16.03 12.64, 84.15 63.83, 100.74 76.44 M1.09 -1.4 C17.77 11.75, 83.72 65.01, 100.42 77.94" stroke="#e03131" stroke-width="2" fill="none"></path></g><g transform="translate(602.0164808297084 214.97782546827403) rotate(0 49.77442290909232 38.253085170333854)"><path d="M71.95 68.46 C80.59 73.65, 89.94 73.42, 100.42 77.94 M71.95 68.46 C78.59 70.75, 83.71 73.49, 100.42 77.94" stroke="#e03131" stroke-width="2" fill="none"></path></g><g transform="translate(602.0164808297084 214.97782546827403) rotate(0 49.77442290909232 38.253085170333854)"><path d="M84.71 52.38 C89.16 62.62, 94.45 67.52, 100.42 77.94 M84.71 52.38 C88.61 57.96, 91.07 64.05, 100.42 77.94" stroke="#e03131" stroke-width="2" fill="none"></path></g></g><mask></mask></svg>